<svg width="282" height="200" viewBox="0 0 282 200" fill="none" xmlns="http://www.w3.org/2000/svg">
<path d="M236.952 178.875H221.055V178.995H236.952V178.875Z" fill="#EBEBEB"/>
<path d="M179.986 180.181H175.814V180.301H179.986V180.181Z" fill="#EBEBEB"/>
<path d="M220.574 174.421H211.363V174.541H220.574V174.421Z" fill="#EBEBEB"/>
<path d="M66.9119 175.228H46.1807V175.348H66.9119V175.228Z" fill="#EBEBEB"/>
<path d="M74.2269 175.228H71.1885V175.348H74.2269V175.228Z" fill="#EBEBEB"/>
<path d="M129.072 177.253H84.1055V177.373H129.072V177.253Z" fill="#EBEBEB"/>
<path d="M134.76 149.744H42.0816C41.3547 149.744 40.6576 149.455 40.1436 148.941C39.6296 148.427 39.3408 147.73 39.3408 147.003V16.7168C39.3471 15.9941 39.6387 15.3031 40.152 14.7943C40.6653 14.2854 41.3589 14 42.0816 14H134.76C135.487 14 136.184 14.2888 136.698 14.8028C137.212 15.3168 137.501 16.0139 137.501 16.7408V147.003C137.501 147.73 137.212 148.427 136.698 148.941C136.184 149.455 135.487 149.744 134.76 149.744V149.744ZM42.0816 14.096C41.3869 14.0973 40.7211 14.3738 40.2298 14.865C39.7386 15.3562 39.4621 16.0221 39.4608 16.7168V147.003C39.4621 147.698 39.7386 148.364 40.2298 148.855C40.7211 149.346 41.3869 149.623 42.0816 149.624H134.76C135.455 149.623 136.121 149.346 136.612 148.855C137.103 148.364 137.38 147.698 137.381 147.003V16.7168C137.38 16.0221 137.103 15.3562 136.612 14.865C136.121 14.3738 135.455 14.0973 134.76 14.096H42.0816Z" fill="#EBEBEB"/>
<path d="M238.589 149.744H145.901C145.174 149.743 144.478 149.454 143.964 148.94C143.451 148.426 143.161 147.73 143.16 147.003V16.7168C143.168 15.9945 143.46 15.3042 143.973 14.7956C144.486 14.2871 145.179 14.0012 145.901 14H238.589C239.31 14.0025 240.001 14.2891 240.512 14.7976C241.024 15.3062 241.314 15.9957 241.32 16.7168V147.003C241.32 147.728 241.033 148.424 240.521 148.938C240.009 149.452 239.314 149.741 238.589 149.744V149.744ZM145.901 14.096C145.206 14.0973 144.54 14.3738 144.049 14.865C143.558 15.3562 143.281 16.0221 143.28 16.7168V147.003C143.281 147.698 143.558 148.364 144.049 148.855C144.54 149.346 145.206 149.623 145.901 149.624H238.589C239.284 149.623 239.95 149.346 240.441 148.855C240.932 148.364 241.208 147.698 241.21 147.003V16.7168C241.208 16.0221 240.932 15.3562 240.441 14.865C239.95 14.3738 239.284 14.0973 238.589 14.096H145.901Z" fill="#EBEBEB"/>
<path d="M261 171.152H21V171.272H261V171.152Z" fill="#EBEBEB"/>
<path d="M219.125 41.998H60.0771V171.243H219.125V41.998Z" fill="#F5F5F5"/>
<path d="M78.8641 27.5742H54.5713V44.7822H78.8641V27.5742Z" fill="#F0F0F0"/>
<path d="M103.013 27.5742H78.7197V44.7822H103.013V27.5742Z" fill="#F5F5F5"/>
<path d="M127.167 27.5742H102.874V44.7822H127.167V27.5742Z" fill="#F0F0F0"/>
<path d="M151.32 27.5742H127.027V44.7822H151.32V27.5742Z" fill="#F5F5F5"/>
<path d="M175.469 27.5742H151.176V44.7822H175.469V27.5742Z" fill="#F0F0F0"/>
<path d="M199.623 27.5742H175.33V44.7822H199.623V27.5742Z" fill="#F5F5F5"/>
<path d="M223.771 27.5742H199.479V44.7822H223.771V27.5742Z" fill="#F0F0F0"/>
<path d="M79.5985 56.6863C79.5985 60.8863 73.9969 64.2943 67.0849 64.2943C60.1729 64.2943 54.5713 60.8863 54.5713 56.6863V44.6143H78.8737L79.5985 56.6863Z" fill="#E6E6E6"/>
<path d="M103.771 56.6863C103.771 60.8863 98.1697 64.2943 91.2577 64.2943C84.3457 64.2943 78.7441 60.8863 78.7441 56.6863V44.6143H103.047L103.771 56.6863Z" fill="#F0F0F0"/>
<path d="M127.944 56.6863C127.944 60.8863 122.343 64.2943 115.431 64.2943C108.519 64.2943 102.917 60.8863 102.917 56.6863V44.6143H127.219L127.944 56.6863Z" fill="#E6E6E6"/>
<path d="M152.117 56.6863C152.117 60.8863 146.515 64.2943 139.603 64.2943C132.691 64.2943 127.08 60.8863 127.08 56.6863V44.6143H151.378L152.117 56.6863Z" fill="#F0F0F0"/>
<path d="M176.29 56.6863C176.29 60.8863 170.683 64.2943 163.776 64.2943C156.869 64.2943 151.258 60.8863 151.258 56.6863V44.6143H175.56L176.29 56.6863Z" fill="#E6E6E6"/>
<path d="M200.463 56.6863C200.463 60.8863 194.856 64.2943 187.944 64.2943C181.032 64.2943 175.431 60.8863 175.431 56.6863V44.6143H199.733L200.463 56.6863Z" fill="#F0F0F0"/>
<path d="M224.631 56.6863C224.631 60.8863 219.029 64.2943 212.117 64.2943C205.205 64.2943 199.604 60.8863 199.604 56.6863V44.6143H223.906L224.631 56.6863Z" fill="#E6E6E6"/>
<path d="M211.167 69.8428H138.639V110.988H211.167V69.8428Z" fill="#FAFAFA"/>
<path d="M185.083 110.96H171.955L181.814 70.2461H194.942L185.083 110.96Z" fill="#F5F5F5"/>
<path d="M191.453 110.96H188.544L198.403 70.2461H201.312L191.453 110.96Z" fill="#F5F5F5"/>
<path d="M151.008 110.96H149.534L159.393 70.2461H160.867L151.008 110.96Z" fill="#F5F5F5"/>
<path d="M212.606 112.429H137.198V68.4033H212.606V112.429ZM140.078 109.549H209.726V71.2833H140.078V109.549Z" fill="#EBEBEB"/>
<path d="M111.711 67.3857H68.1074V170.879H111.711V67.3857Z" fill="#EBEBEB"/>
<path d="M109.862 69.2627H69.9648V170.883H109.862V69.2627Z" fill="#F5F5F5"/>
<path d="M88.9731 82.6689H72.9795V119.883H88.9731V82.6689Z" fill="#FAFAFA"/>
<path d="M107.049 82.6689H91.0557V119.883H107.049V82.6689Z" fill="#FAFAFA"/>
<path d="M107.05 131.14H72.9795V168.354H107.05V131.14Z" fill="#EBEBEB"/>
<path d="M81.2785 71.96H98.7601C100.957 71.9612 103.063 72.8337 104.617 74.3859C106.171 75.9382 107.046 78.0435 107.05 80.24V80.72H72.9697V80.24C72.9716 79.1507 73.188 78.0725 73.6066 77.0669C74.0252 76.0613 74.6377 75.148 75.4093 74.3792C76.1808 73.6103 77.0963 73.0009 78.1033 72.5858C79.1103 72.1708 80.1893 71.9581 81.2785 71.96V71.96Z" fill="#FAFAFA"/>
<path d="M75.8883 121.559H72.9795V129.138H75.8883V121.559Z" fill="#E6E6E6"/>
<path d="M75.8927 129.138H76.4639V121.558H75.8927V129.138Z" fill="#E0E0E0"/>
<path d="M73.7044 125.768C74.383 125.768 74.9332 125.218 74.9332 124.539C74.9332 123.861 74.383 123.311 73.7044 123.311C73.0257 123.311 72.4756 123.861 72.4756 124.539C72.4756 125.218 73.0257 125.768 73.7044 125.768Z" fill="#E0E0E0"/>
<path d="M74.6971 126.656H74.0635V128.192H74.6971V126.656Z" fill="#E0E0E0"/>
<path d="M74.3325 124.539C74.3315 124.877 74.2302 125.208 74.0413 125.489C73.8525 125.771 73.5845 125.989 73.2713 126.118C72.9581 126.247 72.6137 126.281 72.2816 126.214C71.9495 126.147 71.6447 125.984 71.4055 125.744C71.1663 125.504 71.0036 125.199 70.9379 124.866C70.8721 124.534 70.9063 124.19 71.0362 123.877C71.166 123.564 71.3856 123.297 71.6673 123.109C71.949 122.921 72.2802 122.82 72.6189 122.82C72.8443 122.82 73.0675 122.865 73.2757 122.951C73.484 123.038 73.6731 123.164 73.8323 123.324C73.9915 123.484 74.1176 123.673 74.2034 123.881C74.2892 124.09 74.3331 124.313 74.3325 124.539V124.539Z" fill="#EBEBEB"/>
<path d="M189.816 143.058H187.056V162.978H189.816V143.058Z" fill="#E6E6E6"/>
<path d="M215.798 139.607L173.558 148.247L161.078 139.607V131.12H215.798V139.607Z" fill="#EBEBEB"/>
<path d="M186.898 158.672C186.899 159.999 186.638 161.314 186.13 162.54C185.623 163.766 184.879 164.881 183.94 165.82C183.002 166.758 181.888 167.503 180.662 168.011C179.435 168.519 178.121 168.781 176.794 168.781V168.781C176.626 168.77 176.457 168.794 176.299 168.851C176.14 168.908 175.995 168.997 175.872 169.113C175.75 169.228 175.652 169.367 175.585 169.522C175.518 169.677 175.483 169.843 175.483 170.012C175.483 170.18 175.518 170.347 175.585 170.502C175.652 170.656 175.75 170.796 175.872 170.911C175.995 171.026 176.14 171.115 176.299 171.172C176.457 171.23 176.626 171.254 176.794 171.243H200.084C200.397 171.224 200.691 171.085 200.906 170.857C201.121 170.628 201.24 170.326 201.24 170.012C201.24 169.698 201.121 169.396 200.906 169.167C200.691 168.938 200.397 168.8 200.084 168.781C198.755 168.783 197.439 168.522 196.211 168.015C194.983 167.508 193.866 166.764 192.926 165.825C191.986 164.886 191.24 163.771 190.731 162.544C190.222 161.316 189.96 160.001 189.96 158.672H186.898Z" fill="#E6E6E6"/>
<path d="M149.453 124.323C150.658 131.402 151.468 138.543 151.881 145.712L153.009 145.616C152.593 138.4 151.775 131.213 150.561 124.088C149.88 119.49 145.281 115.899 140.885 116.197C139.882 116.271 138.908 116.566 138.032 117.06C137.156 117.553 136.399 118.234 135.816 119.053C135.23 119.891 134.825 120.842 134.626 121.845C134.427 122.848 134.438 123.882 134.659 124.88C135.855 131.307 136.69 137.795 137.16 144.315L138.288 144.243C137.818 137.679 136.983 131.146 135.787 124.674C135.595 123.828 135.581 122.952 135.746 122.101C135.911 121.249 136.252 120.442 136.747 119.73C136.882 119.544 137.028 119.366 137.184 119.197C139.028 127.585 140.25 136.098 140.841 144.666L141.969 144.584C141.363 135.761 140.08 126.998 138.129 118.371C138.852 117.891 139.671 117.575 140.529 117.445C142.591 126.522 143.923 135.75 144.513 145.04L145.641 144.954C145.044 135.673 143.714 126.454 141.662 117.383C142.604 117.397 143.534 117.597 144.398 117.973C146.368 126.991 147.639 136.148 148.2 145.362L149.328 145.271C148.786 136.325 147.581 127.432 145.723 118.664C146.689 119.313 147.516 120.148 148.156 121.119C148.796 122.091 149.237 123.18 149.453 124.323V124.323Z" fill="#E0E0E0"/>
<path d="M163.08 144.896H137.117C137.118 144.164 137.41 143.463 137.927 142.946C138.444 142.428 139.146 142.137 139.877 142.136H160.33C161.06 142.14 161.759 142.432 162.274 142.949C162.789 143.466 163.079 144.166 163.08 144.896V144.896Z" fill="#F0F0F0"/>
<path d="M138 171.244H136.617L137.745 144.896H139.502L138 171.244Z" fill="#E0E0E0"/>
<path d="M147.216 171.244H145.838L146.591 144.896H148.348L147.216 171.244Z" fill="#E0E0E0"/>
<path d="M154.368 171.244H152.99L151.862 144.896H153.619L154.368 171.244Z" fill="#E0E0E0"/>
<path d="M163.589 171.244H162.211L160.704 144.896H162.461L163.589 171.244Z" fill="#E0E0E0"/>
<path d="M164.222 143.893H148.79V145.899H164.222V143.893Z" fill="#E6E6E6"/>
<path d="M148.786 143.893H135.984V145.899H148.786V143.893Z" fill="#EBEBEB"/>
<path d="M219.341 124.323C218.146 131.403 217.345 138.544 216.941 145.712L215.813 145.616C216.23 138.4 217.047 131.213 218.261 124.088C218.938 119.49 223.541 115.899 227.938 116.197C228.94 116.271 229.914 116.566 230.789 117.06C231.664 117.553 232.42 118.234 233.002 119.053C233.582 119.894 233.981 120.846 234.174 121.849C234.367 122.852 234.348 123.884 234.121 124.88C232.934 131.303 232.105 137.786 231.639 144.301L230.516 144.229C230.984 137.664 231.818 131.131 233.012 124.659C233.204 123.814 233.218 122.937 233.053 122.086C232.888 121.235 232.547 120.427 232.052 119.715C231.917 119.528 231.769 119.35 231.61 119.183C229.765 127.57 228.544 136.083 227.957 144.651L226.829 144.57C227.433 135.746 228.717 126.983 230.669 118.357C229.947 117.877 229.127 117.561 228.269 117.431C226.208 126.513 224.874 135.745 224.281 145.04L223.153 144.954C223.751 135.673 225.083 126.453 227.137 117.383C226.193 117.398 225.262 117.598 224.396 117.973C222.424 126.999 221.155 136.164 220.599 145.386L219.471 145.295C220.009 136.34 221.215 127.439 223.081 118.664C222.114 119.313 221.286 120.148 220.644 121.119C220.002 122.091 219.56 123.18 219.341 124.323V124.323Z" fill="#E0E0E0"/>
<path d="M205.709 144.896H231.677C231.677 144.164 231.386 143.462 230.869 142.944C230.351 142.427 229.649 142.136 228.917 142.136H208.469C207.737 142.136 207.035 142.427 206.517 142.944C206 143.462 205.709 144.164 205.709 144.896V144.896Z" fill="#F0F0F0"/>
<path d="M230.798 171.244H232.176L231.048 144.896H229.291L230.798 171.244Z" fill="#E0E0E0"/>
<path d="M221.578 171.244H222.956L222.207 144.896H220.45L221.578 171.244Z" fill="#E0E0E0"/>
<path d="M214.426 171.244H215.808L216.936 144.896H215.179L214.426 171.244Z" fill="#E0E0E0"/>
<path d="M205.205 171.244H206.587L208.09 144.896H206.333L205.205 171.244Z" fill="#E0E0E0"/>
<path d="M204.576 145.899H220.008V143.893H204.576V145.899Z" fill="#E6E6E6"/>
<path d="M220.008 145.899H232.81V143.893H220.008V145.899Z" fill="#EBEBEB"/>
<path d="M138.686 190.98C190.086 190.98 231.754 188.548 231.754 185.547C231.754 182.546 190.086 180.113 138.686 180.113C87.2867 180.113 45.6191 182.546 45.6191 185.547C45.6191 188.548 87.2867 190.98 138.686 190.98Z" fill="#F5F5F5"/>
<path d="M27.2653 38.5508L30.7882 37.4487C29.9533 37.699 29.1792 38.119 28.5143 38.6826C27.8494 39.2461 27.3081 39.9409 26.9244 40.7235C26.5407 41.506 26.3228 42.3594 26.2845 43.2302C26.2461 44.1009 26.3881 44.9701 26.7014 45.7834L65.7835 151.034C66.4375 152.721 67.7027 154.1 69.3275 154.896C70.9522 155.693 72.8173 155.848 74.5515 155.332L71.0286 156.434C69.2945 156.958 67.4265 156.805 65.8 156.008C64.1735 155.211 62.9091 153.827 62.2606 152.136L23.1878 46.8826C22.8739 46.0702 22.7314 45.2016 22.7691 44.3315C22.8067 43.4613 23.0238 42.6083 23.4067 41.826C23.7895 41.0437 24.3299 40.349 24.9939 39.7854C25.6579 39.2218 26.4312 38.8014 27.2653 38.5508V38.5508Z" fill="#263238"/>
<path opacity="0.3" d="M27.2653 38.5508L30.7882 37.4487C29.9533 37.699 29.1792 38.119 28.5143 38.6826C27.8494 39.2461 27.3081 39.9409 26.9244 40.7235C26.5407 41.506 26.3228 42.3594 26.2845 43.2302C26.2461 44.1009 26.3881 44.9701 26.7014 45.7834L65.7835 151.034C66.4375 152.721 67.7027 154.1 69.3275 154.896C70.9522 155.693 72.8173 155.848 74.5515 155.332L71.0286 156.434C69.2945 156.958 67.4265 156.805 65.8 156.008C64.1735 155.211 62.9091 153.827 62.2606 152.136L23.1878 46.8826C22.8739 46.0702 22.7314 45.2016 22.7691 44.3315C22.8067 43.4613 23.0238 42.6083 23.4067 41.826C23.7895 41.0437 24.3299 40.349 24.9939 39.7854C25.6579 39.2218 26.4312 38.8014 27.2653 38.5508V38.5508Z" fill="white"/>
<path d="M73.0058 155.825L116.169 142.323C117.001 142.071 117.773 141.652 118.436 141.089C119.099 140.526 119.638 139.833 120.021 139.053C120.404 138.272 120.622 137.421 120.662 136.552C120.701 135.684 120.561 134.816 120.251 134.004L81.1656 28.7448C80.5116 27.0577 79.2464 25.6787 77.6216 24.8822C75.9969 24.0857 74.1318 23.9302 72.3976 24.4466L29.2348 37.9495C28.4024 38.2005 27.6307 38.6204 26.9678 39.183C26.3049 39.7457 25.7651 40.4389 25.382 41.2194C24.999 41.9999 24.781 42.8511 24.7416 43.7196C24.7021 44.5882 24.8422 45.4555 25.1529 46.2676L64.235 151.518C64.8873 153.207 66.1523 154.589 67.7778 155.387C69.4034 156.186 71.2701 156.342 73.0058 155.825V155.825Z" fill="#263238"/>
<path d="M118.068 134.794L78.9864 29.5431C78.5345 28.3658 77.6546 27.4027 76.5228 26.8465C75.391 26.2904 74.091 26.1822 72.8829 26.5438L64.0872 29.2954L64.8954 31.4768C64.9974 31.7359 65.0444 32.0135 65.0334 32.2917C65.0223 32.57 64.9534 32.843 64.8311 33.0932C64.7088 33.3434 64.5357 33.5654 64.3229 33.745C64.1101 33.9247 63.8622 34.0581 63.5951 34.1367L42.7558 40.656C42.1709 40.84 41.5378 40.7933 40.9864 40.5253C40.4349 40.2573 40.0069 39.7884 39.7902 39.2149L39.0196 37.1374L29.7246 40.0452C29.1724 40.209 28.66 40.4855 28.2199 40.8571C27.7797 41.2288 27.4213 41.6875 27.1673 42.2045C26.9132 42.7216 26.769 43.2856 26.7437 43.8611C26.7184 44.4366 26.8126 45.0111 27.0204 45.5484L66.0975 150.815C66.5494 151.993 67.4293 152.956 68.5611 153.512C69.6928 154.068 70.9929 154.176 72.201 153.815L115.368 140.31C115.923 140.148 116.437 139.871 116.879 139.499C117.321 139.126 117.68 138.666 117.934 138.147C118.188 137.628 118.331 137.062 118.354 136.484C118.377 135.907 118.28 135.331 118.068 134.794V134.794Z" fill="#2D6E2B"/>
<path opacity="0.1" d="M118.068 134.794L78.9864 29.5431C78.5345 28.3658 77.6546 27.4027 76.5228 26.8465C75.391 26.2904 74.091 26.1822 72.8829 26.5438L64.0872 29.2954L64.8954 31.4768C64.9974 31.7359 65.0444 32.0135 65.0334 32.2917C65.0223 32.57 64.9534 32.843 64.8311 33.0932C64.7088 33.3434 64.5357 33.5654 64.3229 33.745C64.1101 33.9247 63.8622 34.0581 63.5951 34.1367L42.7558 40.656C42.1709 40.84 41.5378 40.7933 40.9864 40.5253C40.4349 40.2573 40.0069 39.7884 39.7902 39.2149L39.0196 37.1374L29.7246 40.0452C29.1724 40.209 28.66 40.4855 28.2199 40.8571C27.7797 41.2288 27.4213 41.6875 27.1673 42.2045C26.9132 42.7216 26.769 43.2856 26.7437 43.8611C26.7184 44.4366 26.8126 45.0111 27.0204 45.5484L66.0975 150.815C66.5494 151.993 67.4293 152.956 68.5611 153.512C69.6928 154.068 70.9929 154.176 72.201 153.815L115.368 140.31C115.923 140.148 116.437 139.871 116.879 139.499C117.321 139.126 117.68 138.666 117.934 138.147C118.188 137.628 118.331 137.062 118.354 136.484C118.377 135.907 118.28 135.331 118.068 134.794V134.794Z" fill="black"/>
<path opacity="0.2" d="M70.5145 154.019C71.0875 154.052 71.6616 153.981 72.2096 153.811L93.5116 147.147L86.1428 48.819L78.9858 29.5422C78.5339 28.3649 77.654 27.4017 76.5222 26.8456C75.3905 26.2894 74.0904 26.1813 72.8823 26.5429L64.0867 29.2944L64.8948 31.4759C64.9969 31.735 65.0439 32.0125 65.0328 32.2908C65.0217 32.5691 64.9528 32.842 64.8305 33.0922C64.7082 33.3424 64.5352 33.5644 64.3223 33.7441C64.1095 33.9238 63.8617 34.0572 63.5945 34.1358L61.5788 34.7664L70.5145 154.019Z" fill="white"/>
<path opacity="0.2" d="M98.9672 145.44L93.1375 67.6583L89.1297 56.8566L95.8383 146.419L98.9672 145.44Z" fill="white"/>
<path d="M52.8982 26.8854L56.5631 26.4463C55.6966 26.5396 54.8587 26.811 54.1019 27.2434C53.3452 27.6758 52.686 28.2599 52.1656 28.9591C51.6452 29.6583 51.2749 30.4574 51.078 31.3065C50.881 32.1555 50.8616 33.036 51.0209 33.8929L70.1932 144.516C70.5276 146.294 71.5193 147.882 72.971 148.962C74.4226 150.042 76.2278 150.536 78.0272 150.345L74.3622 150.785C72.5616 150.982 70.753 150.491 69.2998 149.409C67.8465 148.328 66.8564 146.737 66.5282 144.955L47.3655 34.3309C47.2055 33.4748 47.2243 32.5948 47.4204 31.7462C47.6166 30.8976 47.986 30.0988 48.5055 29.3997C49.025 28.7006 49.6833 28.1164 50.4392 27.6838C51.1951 27.2511 52.0323 26.9793 52.8982 26.8854V26.8854Z" fill="#263238"/>
<path opacity="0.3" d="M52.8982 26.8854L56.5631 26.4463C55.6966 26.5396 54.8587 26.811 54.1019 27.2434C53.3452 27.6758 52.686 28.2599 52.1656 28.9591C51.6452 29.6583 51.2749 30.4574 51.078 31.3065C50.881 32.1555 50.8616 33.036 51.0209 33.8929L70.1932 144.516C70.5276 146.294 71.5193 147.882 72.971 148.962C74.4226 150.042 76.2278 150.536 78.0272 150.345L74.3622 150.785C72.5616 150.982 70.753 150.491 69.2998 149.409C67.8465 148.328 66.8564 146.737 66.5282 144.955L47.3655 34.3309C47.2055 33.4748 47.2243 32.5948 47.4204 31.7462C47.6166 30.8976 47.986 30.0988 48.5055 29.3997C49.025 28.7006 49.6833 28.1164 50.4392 27.6838C51.1951 27.2511 52.0323 26.9793 52.8982 26.8854V26.8854Z" fill="white"/>
<path d="M76.4178 150.548L121.322 145.168C122.186 145.073 123.022 144.801 123.777 144.37C124.531 143.938 125.189 143.355 125.708 142.658C126.227 141.96 126.597 141.163 126.795 140.317C126.993 139.47 127.014 138.592 126.857 137.736L107.683 27.1038C107.349 25.3255 106.357 23.7384 104.905 22.6582C103.454 21.578 101.649 21.0839 99.8492 21.2744L54.9448 26.655C54.0805 26.7495 53.2449 27.0212 52.4903 27.4531C51.7357 27.885 51.0782 28.4678 50.5589 29.1651C50.0396 29.8624 49.6695 30.6593 49.4719 31.506C49.2743 32.3527 49.2534 33.231 49.4103 34.0862L68.5827 144.709C68.915 146.49 69.906 148.079 71.3581 149.161C72.8102 150.244 74.6168 150.739 76.4178 150.548V150.548Z" fill="#263238"/>
<path d="M124.566 138.112L105.393 27.4886C105.165 26.2485 104.476 25.1407 103.465 24.3869C102.454 23.6331 101.195 23.289 99.9415 23.4235L90.791 24.52L91.1865 26.8124C91.2394 27.0858 91.2349 27.3673 91.1731 27.6388C91.1113 27.9104 90.9936 28.1661 90.8276 28.3897C90.6616 28.6134 90.4509 28.8 90.2088 28.9377C89.9667 29.0754 89.6986 29.1612 89.4216 29.1896L67.7415 31.7874C67.1328 31.8614 66.519 31.6996 66.0258 31.3353C65.5327 30.9709 65.1977 30.4317 65.0895 29.8282L64.7119 27.6448L55.0419 28.8035C54.4689 28.8635 53.9147 29.0416 53.414 29.3265C52.9133 29.6114 52.477 29.9968 52.1327 30.4587C51.7884 30.9205 51.5434 31.4486 51.4133 32.0098C51.2832 32.571 51.2707 33.153 51.3767 33.7193L70.5412 144.358C70.7701 145.598 71.459 146.706 72.47 147.459C73.4809 148.213 74.7393 148.557 75.9931 148.423L120.902 143.042C121.477 142.983 122.033 142.805 122.536 142.52C123.038 142.235 123.476 141.848 123.82 141.384C124.165 140.92 124.409 140.39 124.537 139.826C124.666 139.263 124.675 138.679 124.566 138.112V138.112Z" fill="#3C9339"/>
<path opacity="0.1" d="M124.566 138.112L105.393 27.4886C105.165 26.2485 104.476 25.1407 103.465 24.3869C102.454 23.6331 101.195 23.289 99.9415 23.4235L90.791 24.52L91.1865 26.8124C91.2394 27.0858 91.2349 27.3673 91.1731 27.6388C91.1113 27.9104 90.9936 28.1661 90.8276 28.3897C90.6616 28.6134 90.4509 28.8 90.2088 28.9377C89.9667 29.0754 89.6986 29.1612 89.4216 29.1896L67.7415 31.7874C67.1328 31.8614 66.519 31.6996 66.0258 31.3353C65.5327 30.9709 65.1977 30.4317 65.0895 29.8282L64.7119 27.6448L55.0419 28.8035C54.4689 28.8635 53.9147 29.0416 53.414 29.3265C52.9133 29.6114 52.477 29.9968 52.1327 30.4587C51.7884 30.9205 51.5434 31.4486 51.4133 32.0098C51.2832 32.571 51.2707 33.153 51.3767 33.7193L70.5412 144.358C70.7701 145.598 71.459 146.706 72.47 147.459C73.4809 148.213 74.7393 148.557 75.9931 148.423L120.902 143.042C121.477 142.983 122.033 142.805 122.536 142.52C123.038 142.235 123.476 141.848 123.82 141.384C124.165 140.92 124.409 140.39 124.537 139.826C124.666 139.263 124.675 138.679 124.566 138.112V138.112Z" fill="black"/>
<path opacity="0.2" d="M74.2984 148.317C74.8557 148.454 75.4331 148.489 76.003 148.422L98.1645 145.767L108.904 47.7495L105.394 27.4888C105.165 26.2488 104.476 25.1409 103.465 24.3872C102.454 23.6334 101.196 23.2893 99.9418 23.4238L90.7913 24.5202L91.1868 26.8127C91.2398 27.0861 91.2352 27.3675 91.1734 27.6391C91.1116 27.9107 90.994 28.1664 90.828 28.39C90.662 28.6136 90.4512 28.8002 90.2091 28.9379C89.9671 29.0757 89.699 29.1615 89.4219 29.1899L87.3249 29.4412L74.2984 148.317Z" fill="white"/>
<path opacity="0.2" d="M103.84 145.087L112.335 67.5511L110.371 56.1986L100.585 145.477L103.84 145.087Z" fill="white"/>
<path d="M74.5773 23.2348H78.2685C77.397 23.2244 76.5327 23.3942 75.7299 23.7335C74.9271 24.0728 74.2031 24.5744 73.6032 25.2067C73.0034 25.839 72.5406 26.5884 72.2441 27.4079C71.9475 28.2275 71.8234 29.0995 71.8797 29.9692L77.7549 142.088C77.8753 143.893 78.6712 145.587 79.984 146.832C81.2968 148.077 83.0304 148.783 84.8397 148.808H81.1485C79.3372 148.789 77.5999 148.086 76.2856 146.84C74.9714 145.593 74.1776 143.895 74.0637 142.088L68.1981 29.9692C68.1412 29.1001 68.2644 28.2286 68.5602 27.4094C68.8559 26.5902 69.3178 25.841 69.9167 25.2087C70.5157 24.5763 71.2389 24.0746 72.0409 23.735C72.8428 23.3953 73.7064 23.225 74.5773 23.2348V23.2348Z" fill="#263238"/>
<path opacity="0.3" d="M74.5773 23.2348H78.2685C77.397 23.2244 76.5327 23.3942 75.7299 23.7335C74.9271 24.0728 74.2031 24.5744 73.6032 25.2067C73.0034 25.839 72.5406 26.5884 72.2441 27.4079C71.9475 28.2275 71.8234 29.0995 71.8797 29.9692L77.7549 142.088C77.8753 143.893 78.6712 145.587 79.984 146.832C81.2968 148.077 83.0304 148.783 84.8397 148.808H81.1485C79.3372 148.789 77.5999 148.086 76.2856 146.84C74.9714 145.593 74.1776 143.895 74.0637 142.088L68.1981 29.9692C68.1412 29.1001 68.2644 28.2286 68.5602 27.4094C68.8559 26.5902 69.3178 25.841 69.9167 25.2087C70.5157 24.5763 71.2389 24.0746 72.0409 23.735C72.8428 23.3953 73.7064 23.225 74.5773 23.2348V23.2348Z" fill="white"/>
<path d="M83.2174 148.817H128.443C129.312 148.826 130.174 148.656 130.975 148.317C131.776 147.978 132.498 147.477 133.096 146.847C133.695 146.216 134.157 145.469 134.454 144.652C134.751 143.835 134.876 142.965 134.822 142.097L128.947 29.9694C128.827 28.1639 128.031 26.47 126.718 25.2248C125.405 23.9796 123.671 23.2743 121.862 23.2494H76.6366C75.7672 23.2404 74.9053 23.4108 74.1046 23.7498C73.304 24.0888 72.5818 24.5893 71.9832 25.2198C71.3846 25.8504 70.9224 26.5976 70.6255 27.4148C70.3286 28.232 70.2033 29.1016 70.2574 29.9694L76.1326 142.088C76.2507 143.895 77.0456 145.591 78.3586 146.838C79.6717 148.086 81.4066 148.792 83.2174 148.817V148.817Z" fill="#263238"/>
<path d="M132.504 142.198L126.629 30.0798C126.549 28.8213 125.997 27.6394 125.082 26.7707C124.168 25.902 122.96 25.4106 121.699 25.395H112.483L112.603 27.7182C112.623 27.996 112.585 28.2749 112.491 28.5372C112.398 28.7995 112.25 29.0394 112.059 29.2416C111.868 29.4439 111.636 29.6041 111.379 29.7121C111.123 29.82 110.846 29.8733 110.568 29.8686H88.7325C88.1194 29.8696 87.5291 29.636 87.0829 29.2156C86.6366 28.7951 86.3681 28.2199 86.3325 27.6078L86.2173 25.395H76.4781C75.9021 25.3865 75.3306 25.4973 74.7996 25.7206C74.2685 25.9439 73.7895 26.2747 73.3927 26.6923C72.9959 27.1099 72.6898 27.6051 72.4939 28.1468C72.2979 28.6885 72.2163 29.265 72.2541 29.8398L78.1197 141.973C78.1995 143.231 78.7517 144.413 79.6658 145.282C80.5799 146.15 81.7884 146.642 83.0493 146.657H128.28C128.857 146.668 129.431 146.557 129.964 146.334C130.496 146.11 130.977 145.778 131.374 145.358C131.771 144.939 132.077 144.441 132.272 143.897C132.466 143.353 132.545 142.774 132.504 142.198V142.198Z" fill="#4BB747"/>
<path opacity="0.1" d="M132.504 142.198L126.629 30.0798C126.549 28.8213 125.997 27.6394 125.082 26.7707C124.168 25.902 122.96 25.4106 121.699 25.395H112.483L112.603 27.7182C112.623 27.996 112.585 28.2749 112.491 28.5372C112.398 28.7995 112.25 29.0394 112.059 29.2416C111.868 29.4439 111.636 29.6041 111.379 29.7121C111.123 29.82 110.846 29.8733 110.568 29.8686H88.7325C88.1194 29.8696 87.5291 29.636 87.0829 29.2156C86.6366 28.7951 86.3681 28.2199 86.3325 27.6078L86.2173 25.395H76.4781C75.9021 25.3865 75.3306 25.4973 74.7996 25.7206C74.2685 25.9439 73.7895 26.2747 73.3927 26.6923C72.9959 27.1099 72.6898 27.6051 72.4939 28.1468C72.2979 28.6885 72.2163 29.265 72.2541 29.8398L78.1197 141.973C78.1995 143.231 78.7517 144.413 79.6658 145.282C80.5799 146.15 81.7884 146.642 83.0493 146.657H128.28C128.857 146.668 129.431 146.557 129.964 146.334C130.496 146.11 130.977 145.778 131.374 145.358C131.771 144.939 132.077 144.441 132.272 143.897C132.466 143.353 132.545 142.774 132.504 142.198V142.198Z" fill="black"/>
<path opacity="0.2" d="M81.3789 146.35C81.916 146.552 82.485 146.656 83.0589 146.657H105.379L127.704 50.6137L126.629 30.0793C126.549 28.8208 125.997 27.6389 125.082 26.7702C124.168 25.9015 122.96 25.4102 121.699 25.3945H112.483L112.603 27.7177C112.623 27.9955 112.585 28.2744 112.491 28.5367C112.398 28.799 112.25 29.0389 112.059 29.2412C111.867 29.4435 111.636 29.6037 111.379 29.7116C111.123 29.8195 110.846 29.8729 110.568 29.8681H108.456L81.3789 146.35Z" fill="white"/>
<path opacity="0.2" d="M111.096 146.657L128.755 70.6824L128.155 59.1768L107.817 146.657H111.096Z" fill="white"/>
<path d="M72.7609 43.2478L73.116 43.2265C73.0701 42.5414 73.1659 41.8543 73.3975 41.208C73.6292 40.5617 73.9916 39.9701 74.4622 39.4702C74.9328 38.9703 75.5014 38.5728 76.1325 38.3026C76.7637 38.0323 77.4437 37.8952 78.1303 37.8996H84.5615V37.5197H78.1374C77.3997 37.5144 76.6688 37.6617 75.9908 37.9524C75.3127 38.243 74.7021 38.6707 74.1972 39.2086C73.6923 39.7465 73.3041 40.383 73.0569 41.0781C72.8097 41.7732 72.7089 42.5119 72.7609 43.2478Z" fill="#4BB747"/>
<path d="M73.2934 45.7524L73.498 49.127L73.1329 49.1491L72.9283 45.7745L73.2934 45.7524Z" fill="#4BB747"/>
<path opacity="0.2" d="M109.339 57.6057H118.671C118.995 57.6091 119.316 57.5452 119.613 57.4182C119.911 57.2911 120.179 57.1036 120.4 56.8676C120.621 56.6315 120.791 56.3521 120.899 56.047C121.007 55.7419 121.05 55.4177 121.026 55.095L120.546 47.3321C120.496 46.6567 120.195 46.0245 119.702 45.5599C119.209 45.0954 118.56 44.8319 117.883 44.8214H108.547C108.223 44.8186 107.903 44.8828 107.606 45.01C107.308 45.1373 107.041 45.3248 106.819 45.5607C106.598 45.7966 106.428 46.0758 106.32 46.3807C106.212 46.6856 106.169 47.0095 106.192 47.3321L106.672 55.095C106.723 55.7708 107.025 56.4029 107.518 56.8674C108.012 57.332 108.661 57.5953 109.339 57.6057Z" fill="black"/>
<path opacity="0.2" d="M106.629 122.852C106.247 122.847 105.881 122.698 105.605 122.435C105.329 122.171 105.163 121.813 105.141 121.432L104.15 105.426C104.137 105.246 104.161 105.065 104.222 104.894C104.282 104.724 104.377 104.567 104.501 104.436C104.625 104.304 104.775 104.199 104.941 104.128C105.107 104.057 105.287 104.022 105.468 104.024H129.314L130.472 122.845L106.629 122.852Z" fill="black"/>
<path d="M131.576 96.8253H138.87C139.132 96.8322 139.382 96.9352 139.573 97.1147C139.763 97.2941 139.881 97.5375 139.904 97.7983L140.412 106.03C140.421 106.155 140.404 106.281 140.362 106.399C140.321 106.517 140.255 106.626 140.169 106.717C140.083 106.809 139.979 106.881 139.864 106.93C139.749 106.98 139.624 107.004 139.499 107.003H132.205C131.942 107.001 131.689 106.9 131.497 106.719C131.306 106.539 131.189 106.293 131.171 106.03L130.663 97.7983C130.654 97.6731 130.67 97.5473 130.711 97.4288C130.753 97.3102 130.819 97.2017 130.905 97.1101C130.991 97.0185 131.095 96.9459 131.21 96.8968C131.326 96.8478 131.451 96.8234 131.576 96.8253V96.8253Z" fill="#4BB747"/>
<path opacity="0.4" d="M131.576 96.8253H138.87C139.132 96.8322 139.382 96.9352 139.573 97.1147C139.763 97.2941 139.881 97.5375 139.904 97.7983L140.412 106.03C140.421 106.155 140.404 106.281 140.362 106.399C140.321 106.517 140.255 106.626 140.169 106.717C140.083 106.809 139.979 106.881 139.864 106.93C139.749 106.98 139.624 107.004 139.499 107.003H132.205C131.942 107.001 131.689 106.9 131.497 106.719C131.306 106.539 131.189 106.293 131.171 106.03L130.663 97.7983C130.654 97.6731 130.67 97.5473 130.711 97.4288C130.753 97.3102 130.819 97.2017 130.905 97.1101C130.991 97.0185 131.095 96.9459 131.21 96.8968C131.326 96.8478 131.451 96.8234 131.576 96.8253V96.8253Z" fill="white"/>
<path d="M78.2293 40.6201C77.9028 40.6146 77.5787 40.6774 77.278 40.8047C76.9772 40.9319 76.7064 41.1206 76.483 41.3588C76.2596 41.5969 76.0884 41.8792 75.9806 42.1874C75.8728 42.4957 75.8307 42.8231 75.8571 43.1486L77.7321 73.5398C77.7508 73.8254 77.8762 74.0935 78.0834 74.2909C78.2907 74.4883 78.5646 74.6005 78.8507 74.6052H124.661C124.792 74.6071 124.921 74.5817 125.042 74.5307C125.162 74.4796 125.27 74.404 125.359 74.3087C125.448 74.2135 125.517 74.1006 125.56 73.9774C125.603 73.8541 125.62 73.7232 125.61 73.5931L123.734 43.2018C123.682 42.5092 123.373 41.8612 122.867 41.3853C122.36 40.9095 121.695 40.6403 121 40.6308H78.2293M78.2293 40.2756H121C121.787 40.286 122.542 40.5911 123.116 41.1309C123.689 41.6707 124.039 42.4059 124.097 43.1912L125.972 73.5825C125.986 73.762 125.962 73.9426 125.902 74.1125C125.842 74.2824 125.748 74.4379 125.624 74.5692C125.501 74.7006 125.352 74.8047 125.186 74.8751C125.02 74.9455 124.841 74.9806 124.661 74.9781H78.8507C78.4737 74.9729 78.1122 74.8268 77.8375 74.5685C77.5628 74.3102 77.3947 73.9585 77.3663 73.5825L75.4913 43.1912C75.4626 42.816 75.5125 42.439 75.6375 42.0841C75.7626 41.7293 75.9603 41.4044 76.2178 41.1301C76.4754 40.8558 76.7873 40.6382 77.1336 40.4911C77.4799 40.344 77.853 40.2706 78.2293 40.2756V40.2756Z" fill="white"/>
<path d="M101.146 78.5293H124.438C124.936 78.536 125.413 78.729 125.775 79.0702C126.137 79.4114 126.359 79.8761 126.395 80.3724L127.368 95.9516C127.386 96.1882 127.355 96.426 127.276 96.6499C127.198 96.8738 127.073 97.0788 126.911 97.2518C126.748 97.4249 126.552 97.5622 126.333 97.6551C126.115 97.7479 125.879 97.7942 125.642 97.7911H102.35C101.852 97.7853 101.375 97.5931 101.013 97.2524C100.651 96.9118 100.429 96.4475 100.393 95.9516L99.4306 80.3724C99.413 80.1366 99.4443 79.8998 99.5226 79.6767C99.6008 79.4536 99.7244 79.2491 99.8854 79.076C100.046 78.9029 100.242 78.765 100.459 78.671C100.675 78.5769 100.909 78.5286 101.146 78.5293V78.5293Z" fill="white"/>
<path d="M108.127 101.129H131.423C131.92 101.135 132.397 101.327 132.758 101.668C133.12 102.009 133.341 102.473 133.376 102.968L134.339 118.548C134.357 118.784 134.326 119.022 134.247 119.246C134.168 119.471 134.044 119.676 133.881 119.849C133.719 120.022 133.523 120.16 133.304 120.253C133.086 120.347 132.85 120.393 132.613 120.391H109.317C108.82 120.384 108.343 120.191 107.981 119.85C107.62 119.508 107.399 119.044 107.364 118.548L106.416 102.968C106.397 102.733 106.428 102.496 106.506 102.274C106.584 102.051 106.707 101.846 106.868 101.673C107.029 101.501 107.224 101.363 107.441 101.269C107.657 101.176 107.891 101.128 108.127 101.129V101.129Z" fill="white"/>
<path opacity="0.2" d="M89.5479 90.0771C89.9796 90.0823 90.3937 90.2493 90.7081 90.5453C91.0225 90.8413 91.2142 91.2445 91.2454 91.6752L92.0799 105.191C92.0952 105.396 92.0676 105.602 91.999 105.796C91.9304 105.99 91.8222 106.168 91.6812 106.318C91.5403 106.468 91.3698 106.587 91.1804 106.667C90.991 106.748 90.787 106.788 90.5813 106.786H77.9603L76.9411 90.0771H89.5479Z" fill="black"/>
<path d="M72.1324 87.1163H92.5981C93.0349 87.1223 93.4535 87.2921 93.7711 87.5919C94.0887 87.8918 94.2822 88.3 94.3133 88.7357L95.1585 102.422C95.1748 102.63 95.1476 102.839 95.0785 103.036C95.0094 103.233 94.9001 103.414 94.7574 103.566C94.6147 103.718 94.4419 103.839 94.2499 103.921C94.0578 104.003 93.8509 104.044 93.6421 104.041H73.1765C72.7394 104.035 72.3203 103.866 72.0021 103.566C71.6839 103.266 71.4897 102.858 71.4577 102.422L70.6125 88.7357C70.5967 88.5274 70.6245 88.3181 70.6939 88.1211C70.7634 87.9241 70.8731 87.7438 71.0161 87.5915C71.159 87.4392 71.3321 87.3183 71.5243 87.2365C71.7165 87.1547 71.9236 87.1138 72.1324 87.1163V87.1163Z" fill="#4BB747"/>
<path opacity="0.7" d="M72.1324 87.1163H92.5981C93.0349 87.1223 93.4535 87.2921 93.7711 87.5919C94.0887 87.8918 94.2822 88.3 94.3133 88.7357L95.1585 102.422C95.1748 102.63 95.1476 102.839 95.0785 103.036C95.0094 103.233 94.9001 103.414 94.7574 103.566C94.6147 103.718 94.4419 103.839 94.2499 103.921C94.0578 104.003 93.8509 104.044 93.6421 104.041H73.1765C72.7394 104.035 72.3203 103.866 72.0021 103.566C71.6839 103.266 71.4897 102.858 71.4577 102.422L70.6125 88.7357C70.5967 88.5274 70.6245 88.3181 70.6939 88.1211C70.7634 87.9241 70.8731 87.7438 71.0161 87.5915C71.159 87.4392 71.3321 87.3183 71.5243 87.2365C71.7165 87.1547 71.9236 87.1138 72.1324 87.1163V87.1163Z" fill="white"/>
<path d="M56.8407 65.0021H68.9681C69.4047 65.0079 69.8233 65.177 70.1414 65.4761C70.4595 65.7752 70.6541 66.1825 70.6869 66.6179L71.5321 80.3078C71.5474 80.5158 71.5193 80.7247 71.4495 80.9212C71.3798 81.1178 71.2701 81.2977 71.1272 81.4497C70.9843 81.6016 70.8114 81.7221 70.6194 81.8037C70.4275 81.8853 70.2207 81.9261 70.0122 81.9236H57.8848C57.4486 81.9177 57.0305 81.7484 56.7129 81.4493C56.3954 81.1502 56.2015 80.7429 56.1696 80.3078L55.3244 66.6179C55.3086 66.4101 55.3362 66.2012 55.4055 66.0047C55.4748 65.8081 55.5842 65.6281 55.7269 65.4762C55.8695 65.3242 56.0422 65.2036 56.2339 65.1219C56.4257 65.0403 56.6323 64.9995 56.8407 65.0021V65.0021Z" fill="#4BB747"/>
<path opacity="0.7" d="M56.8407 65.0021H68.9681C69.4047 65.0079 69.8233 65.177 70.1414 65.4761C70.4595 65.7752 70.6541 66.1825 70.6869 66.6179L71.5321 80.3078C71.5474 80.5158 71.5193 80.7247 71.4495 80.9212C71.3798 81.1178 71.2701 81.2977 71.1272 81.4497C70.9843 81.6016 70.8114 81.7221 70.6194 81.8037C70.4275 81.8853 70.2207 81.9261 70.0122 81.9236H57.8848C57.4486 81.9177 57.0305 81.7484 56.7129 81.4493C56.3954 81.1502 56.2015 80.7429 56.1696 80.3078L55.3244 66.6179C55.3086 66.4101 55.3362 66.2012 55.4055 66.0047C55.4748 65.8081 55.5842 65.6281 55.7269 65.4762C55.8695 65.3242 56.0422 65.2036 56.2339 65.1219C56.4257 65.0403 56.6323 64.9995 56.8407 65.0021V65.0021Z" fill="white"/>
<path d="M67.871 107.237H72.9173C73.0984 107.241 73.2715 107.313 73.4029 107.437C73.5342 107.562 73.6143 107.731 73.6275 107.912L73.9827 113.594C73.9891 113.681 73.9774 113.767 73.9484 113.849C73.9195 113.931 73.8738 114.006 73.8143 114.069C73.7549 114.132 73.683 114.182 73.6031 114.216C73.5233 114.25 73.4373 114.266 73.3505 114.265H68.3043C68.1225 114.265 67.9475 114.196 67.8154 114.071C67.6833 113.946 67.604 113.776 67.594 113.594L67.2389 107.912C67.232 107.825 67.2432 107.738 67.272 107.656C67.3007 107.574 67.3463 107.499 67.4058 107.435C67.4653 107.371 67.5374 107.321 67.6176 107.287C67.6977 107.253 67.784 107.236 67.871 107.237V107.237Z" fill="#4BB747"/>
<path opacity="0.4" d="M67.871 107.237H72.9173C73.0984 107.241 73.2715 107.313 73.4029 107.437C73.5342 107.562 73.6143 107.731 73.6275 107.912L73.9827 113.594C73.9891 113.681 73.9774 113.767 73.9484 113.849C73.9195 113.931 73.8738 114.006 73.8143 114.069C73.7549 114.132 73.683 114.182 73.6031 114.216C73.5233 114.25 73.4373 114.266 73.3505 114.265H68.3043C68.1225 114.265 67.9475 114.196 67.8154 114.071C67.6833 113.946 67.604 113.776 67.594 113.594L67.2389 107.912C67.232 107.825 67.2432 107.738 67.272 107.656C67.3007 107.574 67.3463 107.499 67.4058 107.435C67.4653 107.371 67.5374 107.321 67.6176 107.287C67.6977 107.253 67.784 107.236 67.871 107.237V107.237Z" fill="white"/>
<path d="M111.032 55.8968H120.382C120.706 55.8996 121.026 55.8354 121.324 55.7081C121.621 55.5809 121.889 55.3934 122.11 55.1575C122.331 54.9216 122.501 54.6423 122.609 54.3375C122.717 54.0326 122.761 53.7086 122.737 53.3861L122.258 45.6231C122.206 44.9474 121.904 44.3152 121.411 43.8507C120.917 43.3862 120.268 43.1229 119.591 43.1124H110.262C109.938 43.1091 109.617 43.1729 109.32 43.3C109.022 43.4271 108.754 43.6146 108.533 43.8506C108.311 44.0866 108.142 44.3661 108.034 44.6712C107.926 44.9763 107.883 45.3005 107.907 45.6231L108.383 53.3861C108.434 54.0588 108.733 54.6885 109.223 55.1526C109.713 55.6167 110.358 55.882 111.032 55.8968V55.8968Z" fill="white"/>
<path d="M80.7905 50.0274H103.064C103.201 50.0287 103.337 50.0016 103.463 49.9476C103.589 49.8937 103.703 49.8141 103.797 49.714C103.891 49.6138 103.963 49.4952 104.008 49.3658C104.054 49.2364 104.072 49.0989 104.062 48.962L103.98 47.6054C103.958 47.3186 103.829 47.0504 103.62 46.8533C103.41 46.6563 103.135 46.5445 102.847 46.5401H80.5739C80.4366 46.5388 80.3004 46.5659 80.174 46.6198C80.0477 46.6737 79.9339 46.7532 79.8398 46.8533C79.7457 46.9534 79.6734 47.072 79.6274 47.2014C79.5813 47.3308 79.5627 47.4684 79.5725 47.6054L79.6577 48.962C79.6798 49.2488 79.8082 49.5171 80.0178 49.7141C80.2273 49.9112 80.5029 50.0229 80.7905 50.0274V50.0274Z" fill="white"/>
<path d="M81.1521 55.8897H103.425C103.562 55.8905 103.698 55.863 103.824 55.8089C103.95 55.7547 104.063 55.6751 104.157 55.5751C104.251 55.4751 104.323 55.3567 104.369 55.2275C104.414 55.0983 104.433 54.961 104.423 54.8243L104.342 53.4678C104.319 53.1812 104.19 52.9135 103.981 52.7165C103.771 52.5196 103.496 52.4077 103.209 52.4024H80.9355C80.7981 52.4011 80.662 52.4282 80.5356 52.4821C80.4093 52.536 80.2955 52.6155 80.2014 52.7156C80.1073 52.8157 80.0349 52.9343 79.9889 53.0637C79.9429 53.1931 79.9243 53.3307 79.9341 53.4678L80.0193 54.8243C80.0406 55.1114 80.1688 55.3801 80.3785 55.5773C80.5882 55.7746 80.8643 55.886 81.1521 55.8897V55.8897Z" fill="white"/>
<path d="M73.7734 92.4743H91.6182C91.7096 92.4756 91.8003 92.4578 91.8844 92.4219C91.9685 92.386 92.0441 92.3328 92.1063 92.2659C92.1686 92.199 92.2161 92.1197 92.2458 92.0333C92.2755 91.9468 92.2867 91.8551 92.2788 91.764L92.2468 91.2562C92.2343 91.0652 92.1502 90.886 92.0113 90.7543C91.8724 90.6226 91.6889 90.5482 91.4975 90.546H73.6527C73.5613 90.5446 73.4706 90.5625 73.3865 90.5984C73.3025 90.6343 73.2268 90.6874 73.1646 90.7543C73.1023 90.8213 73.0548 90.9005 73.0251 90.987C72.9954 91.0734 72.9842 91.1651 72.9921 91.2562L73.0241 91.764C73.0366 91.955 73.1207 92.1343 73.2596 92.2659C73.3985 92.3976 73.582 92.472 73.7734 92.4743Z" fill="white"/>
<path d="M74.0211 96.5371H91.8552C91.9468 96.5384 92.0376 96.5206 92.1218 96.4847C92.2061 96.4489 92.2819 96.3958 92.3444 96.3289C92.4069 96.262 92.4548 96.1828 92.4849 96.0964C92.515 96.0099 92.5267 95.9181 92.5193 95.8269L92.4874 95.3226C92.4748 95.1316 92.3907 94.9524 92.2518 94.8207C92.1129 94.6891 91.9294 94.6146 91.7381 94.6124H73.8932C73.8018 94.611 73.7111 94.6289 73.6271 94.6648C73.543 94.7007 73.4674 94.7538 73.4051 94.8207C73.3429 94.8877 73.2954 94.9669 73.2657 95.0534C73.236 95.1398 73.2247 95.2316 73.2327 95.3226L73.2611 95.8269C73.2746 96.0194 73.3604 96.1997 73.5014 96.3315C73.6424 96.4632 73.8281 96.5367 74.0211 96.5371V96.5371Z" fill="white"/>
<path d="M74.2734 100.6H92.1182C92.2096 100.602 92.3003 100.584 92.3844 100.548C92.4685 100.512 92.5441 100.459 92.6063 100.392C92.6686 100.325 92.7161 100.246 92.7458 100.159C92.7755 100.073 92.7867 99.9811 92.7788 99.89L92.7468 99.3822C92.7352 99.1915 92.6518 99.0123 92.5135 98.8805C92.3751 98.7488 92.1921 98.6743 92.0011 98.6719H74.1562C74.0647 98.6706 73.9739 98.6885 73.8896 98.7244C73.8054 98.7602 73.7296 98.8133 73.6671 98.8801C73.6045 98.947 73.5567 99.0262 73.5265 99.1127C73.4964 99.1991 73.4847 99.2909 73.4921 99.3822L73.5241 99.89C73.5366 100.081 73.6207 100.26 73.7596 100.392C73.8985 100.524 74.082 100.598 74.2734 100.6V100.6Z" fill="white"/>
<path d="M84.5763 126.38C83.8765 125.701 83.8261 124.618 84.4638 123.961C85.1014 123.303 86.1856 123.32 86.8853 123.999C87.5851 124.677 87.6354 125.761 86.9978 126.418C86.3602 127.076 85.276 127.059 84.5763 126.38Z" fill="white"/>
<path d="M83.6414 119.134C83.6759 119.595 83.8817 120.026 84.2182 120.343C84.5546 120.659 84.9975 120.839 85.4596 120.845C85.6803 120.848 85.8991 120.805 86.1021 120.718C86.3051 120.632 86.4879 120.504 86.6389 120.343C86.7899 120.182 86.9057 119.991 86.979 119.783C87.0523 119.575 87.0815 119.354 87.0647 119.134C87.0318 118.673 86.8271 118.241 86.491 117.924C86.1549 117.607 85.712 117.428 85.2501 117.422C85.0291 117.419 84.8099 117.462 84.6065 117.548C84.403 117.634 84.2198 117.762 84.0684 117.923C83.9171 118.084 83.8009 118.275 83.7274 118.484C83.6539 118.692 83.6246 118.913 83.6414 119.134V119.134Z" fill="white"/>
<path d="M83.2693 113.072C83.3031 113.533 83.5086 113.965 83.8452 114.282C84.1819 114.599 84.6252 114.778 85.0875 114.784C85.3082 114.786 85.527 114.743 85.73 114.657C85.9331 114.57 86.1159 114.442 86.2668 114.281C86.4178 114.12 86.5336 113.93 86.6069 113.721C86.6802 113.513 86.7094 113.292 86.6927 113.072C86.6589 112.611 86.4534 112.179 86.1167 111.862C85.7801 111.545 85.3368 111.366 84.8744 111.36C84.6538 111.358 84.435 111.401 84.2319 111.488C84.0289 111.574 83.8461 111.702 83.6952 111.863C83.5442 112.024 83.4284 112.215 83.3551 112.423C83.2817 112.631 83.2525 112.852 83.2693 113.072V113.072Z" fill="white"/>
<path d="M89.7413 126.38C89.0415 125.701 88.9912 124.618 89.6288 123.961C90.2664 123.303 91.3506 123.32 92.0504 123.999C92.7501 124.677 92.8005 125.761 92.1629 126.418C91.5252 127.076 90.4411 127.059 89.7413 126.38Z" fill="white"/>
<path d="M88.8093 119.134C88.8439 119.595 89.0496 120.026 89.3861 120.343C89.7226 120.659 90.1655 120.839 90.6276 120.845C90.8482 120.848 91.067 120.805 91.2701 120.718C91.4731 120.632 91.6559 120.504 91.8069 120.343C91.9578 120.182 92.0736 119.991 92.147 119.783C92.2203 119.575 92.2495 119.354 92.2327 119.134C92.1998 118.673 91.995 118.241 91.659 117.924C91.3229 117.607 90.88 117.428 90.418 117.422C90.1971 117.419 89.9779 117.462 89.7744 117.548C89.571 117.634 89.3877 117.762 89.2364 117.923C89.085 118.084 88.9689 118.275 88.8954 118.484C88.8218 118.692 88.7926 118.913 88.8093 119.134V119.134Z" fill="white"/>
<path d="M88.4363 113.072C88.47 113.533 88.6756 113.965 89.0122 114.282C89.3489 114.599 89.7922 114.778 90.2545 114.784C90.4752 114.786 90.694 114.743 90.897 114.657C91.1 114.57 91.2829 114.442 91.4338 114.281C91.5848 114.12 91.7006 113.93 91.7739 113.721C91.8472 113.513 91.8764 113.292 91.8597 113.072C91.8259 112.611 91.6204 112.179 91.2837 111.862C90.9471 111.545 90.5038 111.366 90.0414 111.36C89.8208 111.358 89.6019 111.401 89.3989 111.488C89.1959 111.574 89.0131 111.702 88.8621 111.863C88.7112 112.024 88.5954 112.215 88.522 112.423C88.4487 112.631 88.4195 112.852 88.4363 113.072V113.072Z" fill="white"/>
<path d="M229.175 183.661L214.137 179.989V119.744H210.148V179.989L195.105 183.661C194.881 183.71 194.685 183.846 194.562 184.039C194.438 184.232 194.396 184.466 194.445 184.691C194.494 184.915 194.63 185.11 194.823 185.234C195.016 185.358 195.25 185.4 195.474 185.351L212.14 182.187L228.806 185.36C229.03 185.409 229.264 185.366 229.456 185.242C229.649 185.117 229.784 184.922 229.833 184.698C229.881 184.474 229.839 184.24 229.714 184.047C229.59 183.854 229.394 183.719 229.17 183.671L229.175 183.661Z" fill="#263238"/>
<g opacity="0.2">
<path d="M229.175 183.661L214.137 179.989V119.744H210.148V179.989L195.105 183.661C194.881 183.71 194.685 183.846 194.562 184.039C194.438 184.232 194.396 184.466 194.445 184.691C194.494 184.915 194.63 185.11 194.823 185.234C195.016 185.358 195.25 185.4 195.474 185.351L212.14 182.187L228.806 185.36C229.03 185.409 229.264 185.366 229.456 185.242C229.649 185.117 229.784 184.922 229.833 184.698C229.881 184.474 229.839 184.24 229.714 184.047C229.59 183.854 229.394 183.719 229.17 183.671L229.175 183.661Z" fill="white"/>
</g>
<path d="M219.887 122.716C219.887 122.716 214.089 123.537 212.14 123.537C210.191 123.537 204.398 122.716 204.398 122.716C204.032 122.677 203.694 122.504 203.448 122.232C203.202 121.959 203.065 121.605 203.063 121.237H221.217C221.216 121.604 221.079 121.957 220.834 122.23C220.589 122.503 220.252 122.676 219.887 122.716V122.716Z" fill="#263238"/>
<path opacity="0.3" d="M219.887 122.716C219.887 122.716 214.089 123.537 212.14 123.537C210.191 123.537 204.398 122.716 204.398 122.716C204.032 122.677 203.694 122.504 203.448 122.232C203.202 121.959 203.065 121.605 203.063 121.237H221.217C221.216 121.604 221.079 121.957 220.834 122.23C220.589 122.503 220.252 122.676 219.887 122.716V122.716Z" fill="white"/>
<path d="M232.036 121.328H192.244C191.824 121.328 191.421 121.161 191.124 120.864C190.827 120.567 190.66 120.164 190.66 119.744C190.66 119.324 190.827 118.921 191.124 118.624C191.421 118.327 191.824 118.16 192.244 118.16H232.036C232.244 118.16 232.45 118.201 232.642 118.281C232.835 118.36 233.009 118.477 233.156 118.624C233.303 118.771 233.42 118.946 233.5 119.138C233.579 119.33 233.62 119.536 233.62 119.744V119.744C233.62 119.952 233.579 120.158 233.5 120.35C233.42 120.543 233.303 120.717 233.156 120.864C233.009 121.011 232.835 121.128 232.642 121.208C232.45 121.287 232.244 121.328 232.036 121.328V121.328Z" fill="#4BB747"/>
<path opacity="0.4" d="M232.036 121.328H192.244C191.824 121.328 191.421 121.161 191.124 120.864C190.827 120.567 190.66 120.164 190.66 119.744C190.66 119.324 190.827 118.921 191.124 118.624C191.421 118.327 191.824 118.16 192.244 118.16H232.036C232.244 118.16 232.45 118.201 232.642 118.281C232.835 118.36 233.009 118.477 233.156 118.624C233.303 118.771 233.42 118.946 233.5 119.138C233.579 119.33 233.62 119.536 233.62 119.744V119.744C233.62 119.952 233.579 120.158 233.5 120.35C233.42 120.543 233.303 120.717 233.156 120.864C233.009 121.011 232.835 121.128 232.642 121.208C232.45 121.287 232.244 121.328 232.036 121.328V121.328Z" fill="white"/>
<path d="M215.217 117.983H209.293L208.813 103.257H215.697L215.217 117.983Z" fill="#4BB747"/>
<path opacity="0.7" d="M215.217 117.983H209.293L208.813 103.257H215.697L215.217 117.983Z" fill="white"/>
<path d="M216.336 103.78H208.176L208.656 102.383H215.856L216.336 103.78Z" fill="#4BB747"/>
<path d="M215.414 112.843L215.539 108.638H208.973L209.097 112.843H215.414Z" fill="#4BB747"/>
<path opacity="0.8" d="M213.614 110.739C213.614 111.008 213.535 111.271 213.385 111.494C213.236 111.717 213.024 111.891 212.776 111.994C212.527 112.097 212.254 112.124 211.991 112.072C211.727 112.019 211.485 111.89 211.295 111.7C211.105 111.51 210.976 111.268 210.924 111.004C210.871 110.741 210.898 110.468 211.001 110.219C211.104 109.971 211.278 109.759 211.501 109.61C211.725 109.461 211.987 109.381 212.256 109.381C212.616 109.381 212.962 109.524 213.216 109.779C213.471 110.033 213.614 110.379 213.614 110.739V110.739Z" fill="white"/>
<path d="M183.287 99.5545L184.002 101.681C184.103 101.979 183.551 104.129 183.762 104.647L185.044 107.335C185.216 107.637 185.498 107.862 185.831 107.964V107.964C186.364 108.04 186.908 107.942 187.381 107.686L188.068 107.326C188.238 107.24 188.379 107.106 188.473 106.941C188.567 106.775 188.61 106.585 188.596 106.395C188.533 105.463 188.596 103.692 188.384 103.035C188.337 102.868 188.246 102.717 188.12 102.598L187.112 101.638C186.968 101.477 186.865 101.285 186.81 101.076L186.167 98.6761C186.114 98.4816 186.019 98.301 185.889 98.1473C185.759 97.9936 185.596 97.8704 185.413 97.7866C185.23 97.7027 185.03 97.6602 184.829 97.6622C184.627 97.6641 184.428 97.7104 184.247 97.7977L183.997 97.9225C183.704 98.0651 183.471 98.3079 183.34 98.6072C183.21 98.9065 183.191 99.2425 183.287 99.5545V99.5545Z" fill="#FF8B7B"/>
<path d="M140.75 90.963L137.39 91.6542C137.335 91.7012 137.27 91.734 137.199 91.7499C137.129 91.7658 137.056 91.7643 136.986 91.7454L132.666 90.5406C132.573 90.5073 132.471 90.5073 132.378 90.5406L128.778 92.091C128.679 92.1336 128.6 92.2123 128.556 92.3111C128.512 92.41 128.508 92.5217 128.543 92.6238V92.6238C128.579 92.7273 128.654 92.8131 128.751 92.8639C128.848 92.9148 128.961 92.9267 129.066 92.8974L130.886 92.3838C130.973 92.3567 131.067 92.3584 131.153 92.3886C131.24 92.4189 131.314 92.4761 131.366 92.5518L132.969 94.8702C133.004 94.9203 133.05 94.9625 133.103 94.9939C133.156 95.0253 133.215 95.0453 133.276 95.0526L135.105 95.2494C135.161 95.2639 135.221 95.2639 135.278 95.2494L138.59 94.1982C138.638 94.1837 138.683 94.1609 138.724 94.131L141.882 93.7662C141.928 93.7303 141.966 93.6856 141.994 93.6347C142.022 93.5837 142.039 93.5277 142.045 93.4699C142.051 93.4121 142.045 93.3537 142.028 93.2982C142.011 93.2427 141.982 93.1913 141.945 93.147L141.354 90.9822C141.316 90.9412 141.27 90.9081 141.219 90.8849C141.167 90.8617 141.112 90.8489 141.056 90.8471C141 90.8453 140.944 90.8546 140.891 90.8745C140.839 90.8944 140.791 90.9245 140.75 90.963V90.963Z" fill="#FF8B7B"/>
<path d="M154.991 90.5457C154.737 93.4689 139.19 94.6929 139.19 94.6929L138.465 90.9201L150.028 87.4065C147.47 71.2209 153.114 70.5537 153.114 70.5537C153.114 70.5537 155.817 80.9121 154.991 90.5457Z" fill="#4BB747"/>
<g opacity="0.6">
<path d="M154.991 90.5457C154.737 93.4689 139.19 94.6929 139.19 94.6929L138.465 90.9201L150.028 87.4065C147.47 71.2209 153.114 70.5537 153.114 70.5537C153.114 70.5537 155.817 80.9121 154.991 90.5457Z" fill="white"/>
</g>
<path d="M157.766 173.744L158.135 182.609L161.798 182.456L162.302 173.552L157.766 173.744Z" fill="#FF8B7B"/>
<path opacity="0.2" d="M157.953 178.28L162.047 178.107L162.302 173.552L157.761 173.744L157.953 178.28Z" fill="#263238"/>
<path d="M154.041 100.755L157.286 177.488L162.566 177.262C162.566 177.262 165.388 159.92 164.755 148.227C164.687 147.017 164.275 143.984 164.366 142.947C164.541 141.42 164.83 139.909 165.23 138.425C166.511 133.045 167.707 123.742 166.982 116.773C166.982 116.773 173.879 109.4 172.041 99.9727L154.041 100.755Z" fill="#4BB747"/>
<path opacity="0.2" d="M167.572 116.067L165.82 112.227L164.485 112.846C164.485 112.846 164.341 118.745 166.669 129.847C167.22 125.514 167.32 121.136 166.967 116.782C166.967 116.782 167.202 116.532 167.572 116.067Z" fill="black"/>
<path d="M155.975 181.29C155.428 181.29 154.852 181.213 154.664 180.983C154.618 180.916 154.593 180.836 154.593 180.754C154.593 180.673 154.618 180.593 154.664 180.526C154.699 180.465 154.745 180.411 154.8 180.367C154.855 180.323 154.918 180.291 154.986 180.272C155.72 180.051 157.29 180.896 157.357 180.934C157.377 180.944 157.392 180.959 157.402 180.978C157.411 180.997 157.414 181.019 157.41 181.04C157.408 181.062 157.398 181.082 157.384 181.099C157.369 181.115 157.35 181.126 157.328 181.131C156.883 181.222 156.43 181.275 155.975 181.29V181.29ZM155.25 180.445C155.183 180.445 155.117 180.454 155.053 180.474C155.009 180.481 154.967 180.499 154.932 180.526C154.896 180.552 154.867 180.587 154.847 180.627C154.775 180.757 154.804 180.819 154.847 180.853C155.058 181.136 156.176 181.117 156.997 180.997C156.456 180.702 155.863 180.515 155.25 180.445V180.445Z" fill="#4BB747"/>
<path d="M157.309 181.126H157.285C156.752 180.9 155.663 179.969 155.749 179.465C155.749 179.345 155.84 179.196 156.128 179.163C156.233 179.149 156.338 179.157 156.44 179.185C156.541 179.213 156.636 179.261 156.719 179.326C157.295 179.777 157.439 180.972 157.448 181.025C157.451 181.044 157.447 181.063 157.439 181.08C157.43 181.098 157.417 181.112 157.4 181.121C157.387 181.13 157.371 181.135 157.355 181.136C157.339 181.137 157.323 181.133 157.309 181.126V181.126ZM156.186 179.359H156.123C155.936 179.383 155.927 179.455 155.917 179.484C155.917 179.787 156.613 180.521 157.17 180.833C157.108 180.332 156.891 179.862 156.551 179.489C156.449 179.403 156.319 179.358 156.186 179.364V179.359Z" fill="#4BB747"/>
<path d="M157.766 180.497L162.599 180.382C162.688 180.38 162.775 180.409 162.845 180.463C162.916 180.517 162.966 180.593 162.988 180.679L163.948 184.591C163.988 184.76 163.961 184.937 163.871 185.084C163.781 185.232 163.636 185.338 163.468 185.379H163.334C161.591 185.379 160.036 185.331 157.866 185.379C155.308 185.441 155.946 185.734 152.956 185.859C151.142 185.926 150.762 183.871 151.516 183.751C155.025 183.223 155.356 182.153 156.695 180.871C156.992 180.616 157.374 180.483 157.766 180.497V180.497Z" fill="#263238"/>
<path d="M184.3 173.326L186.853 181.827L190.367 180.771L188.653 172.016L184.3 173.326Z" fill="#FF8B7B"/>
<path opacity="0.2" d="M185.38 176.912L189.441 176.052L188.653 172.016L184.3 173.326L185.38 176.912Z" fill="#263238"/>
<path d="M161.265 103.933C166.012 121.87 184.612 176.336 184.612 176.336L189.729 175.16C189.729 175.16 187.141 156.229 183.426 145.52C182.831 143.816 181.986 142.419 181.569 141.142C181.055 139.52 181.252 138.301 180.724 134.422C180.114 129.949 179.221 124.083 178.194 119.489C177.921 118.256 177.738 117.2 177.609 116.173C177.455 114.968 177.412 114.075 177.301 111.277C177.143 107.437 175.674 102.185 174.138 98.8398L160.353 99.4206C160.353 99.4206 160.967 102.8 161.265 103.933Z" fill="#4BB747"/>
<path d="M184.026 180.315C183.593 180.477 183.115 180.477 182.682 180.315C182.62 180.261 182.576 180.189 182.557 180.108C182.539 180.028 182.545 179.944 182.576 179.868C182.619 179.733 182.711 179.62 182.836 179.552C183.503 179.172 185.236 179.648 185.293 179.672C185.314 179.677 185.333 179.688 185.347 179.705C185.36 179.721 185.369 179.741 185.37 179.763C185.37 179.784 185.364 179.806 185.353 179.824C185.342 179.843 185.327 179.858 185.308 179.868C184.894 180.053 184.465 180.203 184.026 180.315ZM183.133 179.648C183.067 179.666 183.002 179.692 182.941 179.724C182.902 179.742 182.866 179.769 182.838 179.802C182.81 179.835 182.789 179.874 182.778 179.916C182.735 180.06 182.778 180.118 182.816 180.142C183.085 180.372 184.17 180.108 184.943 179.806C184.355 179.638 183.741 179.585 183.133 179.648V179.648Z" fill="#4BB747"/>
<path d="M185.293 179.864C185.279 179.869 185.264 179.869 185.25 179.864C184.679 179.768 183.412 179.096 183.378 178.587C183.378 178.467 183.412 178.304 183.685 178.208C183.784 178.172 183.888 178.156 183.993 178.161C184.098 178.166 184.2 178.192 184.295 178.237C184.957 178.549 185.365 179.677 185.384 179.73C185.39 179.748 185.391 179.767 185.387 179.786C185.383 179.804 185.373 179.822 185.36 179.835C185.342 179.852 185.318 179.862 185.293 179.864V179.864ZM183.805 178.386H183.743C183.565 178.448 183.57 178.525 183.57 178.554C183.618 178.851 184.477 179.408 185.092 179.591C184.917 179.117 184.602 178.709 184.189 178.419C184.071 178.358 183.934 178.342 183.805 178.376V178.386Z" fill="#4BB747"/>
<path d="M185.605 179.148L190.295 177.963C190.38 177.941 190.471 177.95 190.551 177.986C190.631 178.023 190.697 178.086 190.736 178.164L192.546 181.764C192.585 181.84 192.609 181.923 192.616 182.008C192.623 182.092 192.614 182.178 192.588 182.259C192.562 182.34 192.52 182.415 192.466 182.48C192.411 182.545 192.343 182.599 192.268 182.638C192.226 182.658 192.183 182.674 192.138 182.686C190.439 183.084 188.912 183.372 186.81 183.905C184.328 184.534 185.034 184.668 182.125 185.451C180.368 185.931 179.543 184.011 180.263 183.713C183.57 182.422 183.666 181.313 184.674 179.744C184.9 179.437 185.232 179.224 185.605 179.148Z" fill="#263238"/>
<g opacity="0.2">
<path d="M169.837 104.191L169.401 102.415C167.716 102.756 166.146 103.005 164.711 103.178L164.903 105.002C166.405 104.82 168.061 104.556 169.837 104.191Z" fill="black"/>
<path d="M158.37 103.514C157.085 103.496 155.803 103.397 154.53 103.217L154.693 105.094C155.967 105.256 157.249 105.344 158.533 105.358L158.37 103.514Z" fill="black"/>
<path d="M174 101.312C172.79 101.632 171.63 101.92 170.52 102.176L171.043 103.932C172.142 103.683 173.284 103.4 174.475 103.068L174 101.312Z" fill="black"/>
<path d="M163.285 103.327C161.816 103.462 160.496 103.519 159.33 103.524L159.527 105.362C160.007 105.362 160.487 105.362 160.967 105.329C161.754 105.295 162.594 105.238 163.487 105.151L163.285 103.327Z" fill="black"/>
</g>
<path d="M175.458 69.5838L168.369 69.8814C166.804 71.6094 159.911 71.5278 160.233 70.227L153.076 70.5294C152.745 70.5341 152.424 70.6414 152.156 70.8366C151.889 71.0318 151.689 71.3052 151.583 71.619C149.375 79.1262 153.753 99.5838 153.753 99.5838C151.132 103.601 160.098 102.661 169.593 101.422C179.087 100.184 174.686 97.4814 174.686 97.4814C174.066 87.7326 175.862 74.5614 176.375 70.6014C176.394 70.472 176.385 70.3399 176.347 70.2146C176.309 70.0893 176.244 69.9739 176.157 69.8766C176.069 69.7794 175.961 69.7027 175.84 69.6521C175.72 69.6015 175.589 69.5782 175.458 69.5838Z" fill="#4BB747"/>
<g opacity="0.7">
<path d="M175.458 69.5838L168.369 69.8814C166.804 71.6094 159.911 71.5278 160.233 70.227L153.076 70.5294C152.745 70.5341 152.424 70.6414 152.156 70.8366C151.889 71.0318 151.689 71.3052 151.583 71.619C149.375 79.1262 153.753 99.5838 153.753 99.5838C151.132 103.601 160.098 102.661 169.593 101.422C179.087 100.184 174.686 97.4814 174.686 97.4814C174.066 87.7326 175.862 74.5614 176.375 70.6014C176.394 70.472 176.385 70.3399 176.347 70.2146C176.309 70.0893 176.244 69.9739 176.157 69.8766C176.069 69.7794 175.961 69.7027 175.84 69.6521C175.72 69.6015 175.589 69.5782 175.458 69.5838Z" fill="white"/>
</g>
<path d="M161.635 51.9727C161.635 51.9727 157.358 52.3423 157.718 54.3007C158.078 56.2591 161.663 54.4879 161.663 54.4879L161.635 51.9727Z" fill="#263238"/>
<path d="M167.505 61.7266C166.78 64.1266 166.118 67.9666 167.111 70.3282C167.351 70.8946 166.914 71.917 166.415 72.277C164.668 73.6498 162.647 74.9266 160.425 74.7826C157.574 74.5954 157.358 72.4594 158.025 71.3266C158.207 71.0242 158.678 70.3666 159.023 70.2754C161.793 69.685 162.042 67.813 161.74 65.7106L167.505 61.7266Z" fill="#FF8B7B"/>
<path opacity="0.2" d="M165.163 63.3633L161.75 65.7009C161.814 66.2167 161.835 66.7368 161.812 67.2561C163.012 67.2081 164.64 66.3681 165.235 65.1153C165.614 64.3521 165.446 63.4881 165.163 63.3633Z" fill="black"/>
<path d="M168.959 57.8241C168.09 61.5153 167.764 63.7137 165.556 65.3025C162.229 67.7025 157.924 65.1825 157.679 61.3233C157.458 57.8193 158.917 52.3953 162.82 51.5409C164.156 51.2417 165.556 51.4851 166.712 52.2178C167.869 52.9504 168.687 54.1123 168.988 55.4481C169.161 56.2318 169.151 57.0448 168.959 57.8241Z" fill="#FF8B7B"/>
<path d="M163.271 57.5359C163.117 57.8191 162.839 57.9775 162.652 57.8719C162.464 57.7663 162.436 57.4543 162.594 57.1663C162.752 56.8783 163.026 56.7247 163.213 56.8303C163.4 56.9359 163.429 57.2527 163.271 57.5359Z" fill="#263238"/>
<path d="M159.824 56.5369C159.666 56.8249 159.388 56.9785 159.2 56.8777C159.013 56.7769 158.984 56.4553 159.143 56.1673C159.301 55.8793 159.575 55.7257 159.762 55.8313C159.949 55.9369 159.978 56.2393 159.824 56.5369Z" fill="#263238"/>
<path d="M164.936 56.9552C164.903 56.9441 164.873 56.9239 164.85 56.8967C164.827 56.8696 164.812 56.8367 164.807 56.8016C164.778 56.5624 164.692 56.3335 164.557 56.134C164.422 55.9345 164.241 55.7701 164.029 55.6544C164.006 55.6445 163.985 55.63 163.967 55.6118C163.949 55.5936 163.935 55.572 163.926 55.5483C163.916 55.5247 163.912 55.4994 163.912 55.4739C163.913 55.4484 163.918 55.4233 163.928 55.4V55.4C163.938 55.3772 163.953 55.3565 163.971 55.3393C163.989 55.322 164.01 55.3085 164.033 55.2996C164.056 55.2906 164.081 55.2864 164.106 55.2872C164.131 55.288 164.155 55.2937 164.178 55.304C164.447 55.4476 164.678 55.6531 164.851 55.9035C165.025 56.1539 165.136 56.442 165.176 56.744C165.181 56.7689 165.18 56.7944 165.174 56.819C165.168 56.8436 165.158 56.8668 165.143 56.8873C165.128 56.9078 165.11 56.9252 165.088 56.9385C165.067 56.9518 165.043 56.9607 165.018 56.9648L164.936 56.9552Z" fill="#263238"/>
<path d="M159.1 54.5885C159.076 54.5804 159.054 54.5676 159.035 54.5509C159.016 54.5342 159 54.5138 158.989 54.4911C158.978 54.4683 158.972 54.4436 158.97 54.4183C158.969 54.393 158.972 54.3676 158.98 54.3437C158.994 54.3053 159.019 54.2718 159.052 54.2477C159.294 54.0619 159.576 53.9363 159.876 53.8813C160.175 53.8262 160.484 53.8432 160.776 53.9309C160.823 53.9482 160.862 53.9837 160.884 54.0295C160.905 54.0754 160.908 54.1279 160.891 54.1757C160.871 54.222 160.834 54.2591 160.787 54.2795C160.741 54.3 160.689 54.3023 160.641 54.2861C160.41 54.2172 160.166 54.2039 159.93 54.2472C159.693 54.2906 159.469 54.3895 159.278 54.5357C159.255 54.558 159.226 54.5745 159.196 54.5837C159.165 54.5929 159.132 54.5945 159.1 54.5885V54.5885Z" fill="#263238"/>
<path d="M160.468 57.1562C159.805 57.7944 159.057 58.3387 158.246 58.7738C158.364 58.9778 158.524 59.1538 158.716 59.2897C158.909 59.4256 159.128 59.5182 159.36 59.561L160.468 57.1562Z" fill="#DE5753"/>
<path d="M159.35 60.7324C159.35 60.7324 160.723 60.5452 164.491 60.7996C163.953 61.7932 163.051 62.566 161.131 62.4268C159.211 62.2876 159.35 60.7324 159.35 60.7324Z" fill="#263238"/>
<path d="M162.086 61.6833C161.349 61.591 160.601 61.7127 159.931 62.0337C160.277 62.2731 160.686 62.4081 161.107 62.4225C161.843 62.5143 162.59 62.3909 163.257 62.0673C162.913 61.8275 162.505 61.694 162.086 61.6833V61.6833Z" fill="#DE5753"/>
<path d="M159.527 60.7177C159.556 60.8503 159.622 60.972 159.717 61.0688C159.812 61.1656 159.933 61.2336 160.065 61.2649C161.184 61.3377 162.307 61.3264 163.425 61.2313C163.599 61.2334 163.772 61.194 163.928 61.1164C164.084 61.0387 164.219 60.9251 164.323 60.7849C162.728 60.6521 161.125 60.6296 159.527 60.7177V60.7177Z" fill="white"/>
<path d="M167.846 60.3581C167.319 59.0534 167.124 57.6383 167.28 56.2397C167.28 56.2397 165.868 54.4973 166.041 53.0045C166.041 53.0045 158.491 53.4845 158.433 50.1629C158.376 46.8413 163.084 50.1293 163.084 50.1293C163.084 50.1293 163.118 45.4829 166.444 49.4285C166.444 49.4285 170.409 50.0333 170.985 53.3309C170.985 53.3309 172.622 53.0861 172.305 56.0093C171.614 57.7849 170.593 59.4136 169.296 60.8093L167.846 60.3581Z" fill="#263238"/>
<path d="M170.178 61.6158C169.54 62.3201 168.651 62.7458 167.702 62.8014C166.439 62.8542 166.089 61.659 166.679 60.6174C167.207 59.6574 168.498 58.5198 169.65 58.9566C170.802 59.3934 170.956 60.7374 170.178 61.6158Z" fill="#FF8B7B"/>
<path d="M171.647 56.6188C171.647 56.6188 172.924 54.6172 173.39 55.294C173.855 55.9708 171.647 56.6188 171.647 56.6188Z" fill="#263238"/>
<path d="M159.57 70.2457C159.34 71.2057 159.004 73.4233 160.386 74.6041C160.386 74.6041 165.297 72.0313 167.03 69.6889C167.072 69.6284 167.126 69.5771 167.189 69.5379C167.252 69.4988 167.321 69.4726 167.394 69.461C167.467 69.4494 167.542 69.4525 167.614 69.4702C167.685 69.4879 167.753 69.5198 167.812 69.5641L168.234 69.8905C168.234 69.8905 168.618 72.3577 165.066 76.4761C165.03 76.5213 164.982 76.5558 164.927 76.5758C164.873 76.5958 164.814 76.6007 164.756 76.5898C164.699 76.579 164.646 76.5529 164.603 76.5143C164.559 76.4756 164.527 76.4259 164.51 76.3705C164.236 75.5065 163.324 74.1337 160.353 75.2041C160.353 75.2041 158.346 74.5417 157.338 75.6505C157.294 75.7003 157.235 75.7352 157.171 75.7502C157.106 75.7653 157.038 75.7598 156.976 75.7344C156.914 75.7091 156.862 75.6653 156.826 75.609C156.791 75.5527 156.773 75.4867 156.777 75.4201C156.849 73.5697 157.432 71.7754 158.462 70.2361L159.23 69.9481C159.273 69.9308 159.32 69.9259 159.366 69.9338C159.413 69.9417 159.456 69.9622 159.491 69.9929C159.526 70.0237 159.552 70.0635 159.566 70.1081C159.58 70.1527 159.582 70.2003 159.57 70.2457V70.2457Z" fill="#4BB747"/>
<path opacity="0.1" d="M155.395 99.6169C155.395 99.6169 162.479 100.529 168.167 98.8057L155.395 99.6169Z" fill="black"/>
<path opacity="0.1" d="M173.605 75.6992C173.605 75.6992 172.947 79.5392 174.848 84.968C175.045 82.1504 175.304 79.4528 175.563 77.1104L173.605 75.6992Z" fill="black"/>
<path d="M176.279 69.9586C176.279 69.9586 171.719 73.0306 173.836 78.5266C175.953 84.0226 183.354 100.88 183.354 100.88L187.118 99.9202L182.548 84.5938L176.279 69.9346" fill="#4BB747"/>
<path opacity="0.7" d="M176.279 69.9586C176.279 69.9586 171.719 73.0306 173.836 78.5266C175.953 84.0226 183.354 100.88 183.354 100.88L187.118 99.9202L182.548 84.5938L176.279 69.9346" fill="white"/>
<rect y="143" width="48" height="48" rx="24" fill="#4BB747"/>
<path d="M17.608 175C17.432 175 17.28 174.944 17.152 174.832C17.04 174.72 16.984 174.576 16.984 174.4V172.696C16.984 172.584 17.016 172.416 17.08 172.192C17.144 171.952 17.312 171.728 17.584 171.52L20.08 169.072C21.36 168.096 22.408 167.272 23.224 166.6C24.056 165.912 24.672 165.304 25.072 164.776C25.472 164.248 25.672 163.752 25.672 163.288C25.672 162.744 25.528 162.296 25.24 161.944C24.968 161.576 24.488 161.392 23.8 161.392C23.336 161.392 22.944 161.496 22.624 161.704C22.32 161.896 22.088 162.152 21.928 162.472C21.768 162.792 21.656 163.12 21.592 163.456C21.528 163.664 21.416 163.808 21.256 163.888C21.112 163.968 20.952 164.008 20.776 164.008H17.776C17.632 164.008 17.512 163.96 17.416 163.864C17.32 163.768 17.272 163.648 17.272 163.504C17.288 162.736 17.448 162.016 17.752 161.344C18.072 160.672 18.512 160.08 19.072 159.568C19.648 159.04 20.328 158.632 21.112 158.344C21.912 158.056 22.808 157.912 23.8 157.912C25.16 157.912 26.312 158.128 27.256 158.56C28.216 158.992 28.944 159.6 29.44 160.384C29.936 161.152 30.184 162.056 30.184 163.096C30.184 163.88 30.008 164.616 29.656 165.304C29.32 165.976 28.832 166.624 28.192 167.248C27.568 167.856 26.824 168.488 25.96 169.144L23.752 171.376H29.92C30.096 171.376 30.24 171.432 30.352 171.544C30.48 171.656 30.544 171.8 30.544 171.976V174.4C30.544 174.576 30.48 174.72 30.352 174.832C30.24 174.944 30.096 175 29.92 175H17.608Z" fill="white"/>
</svg>
