<svg width="11" height="12" viewBox="0 0 11 12" fill="none" xmlns="http://www.w3.org/2000/svg">
<path fill-rule="evenodd" clip-rule="evenodd" d="M2.82198 6.05307C2.82198 4.53717 4.05084 3.30831 5.56675 3.30831C7.08263 3.30831 8.31149 4.53717 8.31149 6.05307C8.31149 7.56896 7.08263 8.79782 5.56675 8.79782C4.05084 8.79782 2.82198 7.56896 2.82198 6.05307ZM5.56674 7.83475C4.58273 7.83475 3.78505 7.03707 3.78505 6.05307C3.78505 5.06906 4.58273 4.27138 5.56674 4.27138C6.55074 4.27138 7.34842 5.06906 7.34842 6.05307C7.34842 7.03707 6.55074 7.83475 5.56674 7.83475Z" fill="#1A1A1A"/>
<path fill-rule="evenodd" clip-rule="evenodd" d="M2.82198 6.05307C2.82198 4.53717 4.05084 3.30831 5.56675 3.30831C7.08263 3.30831 8.31149 4.53717 8.31149 6.05307C8.31149 7.56896 7.08263 8.79782 5.56675 8.79782C4.05084 8.79782 2.82198 7.56896 2.82198 6.05307ZM5.56674 7.83475C4.58273 7.83475 3.78505 7.03707 3.78505 6.05307C3.78505 5.06906 4.58273 4.27138 5.56674 4.27138C6.55074 4.27138 7.34842 5.06906 7.34842 6.05307C7.34842 7.03707 6.55074 7.83475 5.56674 7.83475Z" fill="#1A1A1A"/>
<path d="M8.41993 3.84126C8.77417 3.84126 9.06135 3.55411 9.06135 3.19987C9.06135 2.84562 8.77417 2.55845 8.41993 2.55845C8.06571 2.55845 7.77854 2.84562 7.77854 3.19987C7.77854 3.55411 8.06571 3.84126 8.41993 3.84126Z" fill="#1A1A1A"/>
<path d="M8.41993 3.84126C8.77417 3.84126 9.06135 3.55411 9.06135 3.19987C9.06135 2.84562 8.77417 2.55845 8.41993 2.55845C8.06571 2.55845 7.77854 2.84562 7.77854 3.19987C7.77854 3.55411 8.06571 3.84126 8.41993 3.84126Z" fill="#1A1A1A"/>
<path fill-rule="evenodd" clip-rule="evenodd" d="M5.56675 0.708008C4.11511 0.708008 3.93308 0.714161 3.36298 0.740173C2.79406 0.766122 2.40551 0.856486 2.06552 0.988627C1.71404 1.1252 1.41596 1.30797 1.11879 1.60511C0.821639 1.90228 0.638874 2.20036 0.502299 2.55185C0.370158 2.89183 0.279794 3.28038 0.253845 3.8493C0.227833 4.41941 0.22168 4.60143 0.22168 6.05307C0.22168 7.50469 0.227833 7.68672 0.253845 8.25682C0.279794 8.82574 0.370158 9.21429 0.502299 9.55428C0.638874 9.90576 0.821639 10.2038 1.11879 10.501C1.41596 10.7982 1.71404 10.9809 2.06552 11.1175C2.40551 11.2496 2.79406 11.34 3.36298 11.366C3.93308 11.392 4.11511 11.3981 5.56675 11.3981C7.01836 11.3981 7.20039 11.392 7.77049 11.366C8.33941 11.34 8.72796 11.2496 9.06795 11.1175C9.41943 10.9809 9.71751 10.7982 10.0147 10.501C10.3118 10.2038 10.4946 9.90576 10.6312 9.55428C10.7633 9.21429 10.8537 8.82574 10.8796 8.25682C10.9056 7.68672 10.9118 7.50469 10.9118 6.05307C10.9118 4.60143 10.9056 4.41941 10.8796 3.8493C10.8537 3.28038 10.7633 2.89183 10.6312 2.55185C10.4946 2.20036 10.3118 1.90228 10.0147 1.60511C9.71751 1.30797 9.41943 1.1252 9.06795 0.988627C8.72796 0.856486 8.33941 0.766122 7.77049 0.740173C7.20039 0.714161 7.01836 0.708008 5.56675 0.708008ZM5.56675 1.67108C6.99392 1.67108 7.16298 1.67653 7.7266 1.70225C8.24773 1.72601 8.53075 1.81309 8.7191 1.88629C8.96859 1.98325 9.14664 2.09907 9.33367 2.28612C9.52073 2.47315 9.63655 2.65121 9.73351 2.9007C9.80671 3.08905 9.89379 3.37206 9.91755 3.8932C9.94327 4.45682 9.94872 4.62588 9.94872 6.05307C9.94872 7.48025 9.94327 7.64931 9.91755 8.21292C9.89379 8.73406 9.80671 9.01708 9.73351 9.20542C9.63655 9.45492 9.52073 9.63297 9.33367 9.82C9.14664 10.0071 8.96859 10.1229 8.7191 10.2198C8.53075 10.293 8.24773 10.3801 7.7266 10.4039C7.16307 10.4296 6.99403 10.435 5.56675 10.435C4.13944 10.435 3.97043 10.4296 3.40688 10.4039C2.88574 10.3801 2.60272 10.293 2.41438 10.2198C2.16488 10.1229 1.98683 10.0071 1.7998 9.82C1.61277 9.63297 1.49692 9.45492 1.39996 9.20542C1.32676 9.01708 1.23968 8.73406 1.21592 8.21292C1.1902 7.64931 1.18475 7.48025 1.18475 6.05307C1.18475 4.62588 1.1902 4.45682 1.21592 3.8932C1.23968 3.37206 1.32676 3.08905 1.39996 2.9007C1.49692 2.65121 1.61275 2.47315 1.7998 2.28612C1.98683 2.09907 2.16488 1.98325 2.41438 1.88629C2.60272 1.81309 2.88574 1.72601 3.40688 1.70225C3.97049 1.67653 4.13955 1.67108 5.56675 1.67108Z" fill="#1A1A1A"/>
<path fill-rule="evenodd" clip-rule="evenodd" d="M5.56675 0.708008C4.11511 0.708008 3.93308 0.714161 3.36298 0.740173C2.79406 0.766122 2.40551 0.856486 2.06552 0.988627C1.71404 1.1252 1.41596 1.30797 1.11879 1.60511C0.821639 1.90228 0.638874 2.20036 0.502299 2.55185C0.370158 2.89183 0.279794 3.28038 0.253845 3.8493C0.227833 4.41941 0.22168 4.60143 0.22168 6.05307C0.22168 7.50469 0.227833 7.68672 0.253845 8.25682C0.279794 8.82574 0.370158 9.21429 0.502299 9.55428C0.638874 9.90576 0.821639 10.2038 1.11879 10.501C1.41596 10.7982 1.71404 10.9809 2.06552 11.1175C2.40551 11.2496 2.79406 11.34 3.36298 11.366C3.93308 11.392 4.11511 11.3981 5.56675 11.3981C7.01836 11.3981 7.20039 11.392 7.77049 11.366C8.33941 11.34 8.72796 11.2496 9.06795 11.1175C9.41943 10.9809 9.71751 10.7982 10.0147 10.501C10.3118 10.2038 10.4946 9.90576 10.6312 9.55428C10.7633 9.21429 10.8537 8.82574 10.8796 8.25682C10.9056 7.68672 10.9118 7.50469 10.9118 6.05307C10.9118 4.60143 10.9056 4.41941 10.8796 3.8493C10.8537 3.28038 10.7633 2.89183 10.6312 2.55185C10.4946 2.20036 10.3118 1.90228 10.0147 1.60511C9.71751 1.30797 9.41943 1.1252 9.06795 0.988627C8.72796 0.856486 8.33941 0.766122 7.77049 0.740173C7.20039 0.714161 7.01836 0.708008 5.56675 0.708008ZM5.56675 1.67108C6.99392 1.67108 7.16298 1.67653 7.7266 1.70225C8.24773 1.72601 8.53075 1.81309 8.7191 1.88629C8.96859 1.98325 9.14664 2.09907 9.33367 2.28612C9.52073 2.47315 9.63655 2.65121 9.73351 2.9007C9.80671 3.08905 9.89379 3.37206 9.91755 3.8932C9.94327 4.45682 9.94872 4.62588 9.94872 6.05307C9.94872 7.48025 9.94327 7.64931 9.91755 8.21292C9.89379 8.73406 9.80671 9.01708 9.73351 9.20542C9.63655 9.45492 9.52073 9.63297 9.33367 9.82C9.14664 10.0071 8.96859 10.1229 8.7191 10.2198C8.53075 10.293 8.24773 10.3801 7.7266 10.4039C7.16307 10.4296 6.99403 10.435 5.56675 10.435C4.13944 10.435 3.97043 10.4296 3.40688 10.4039C2.88574 10.3801 2.60272 10.293 2.41438 10.2198C2.16488 10.1229 1.98683 10.0071 1.7998 9.82C1.61277 9.63297 1.49692 9.45492 1.39996 9.20542C1.32676 9.01708 1.23968 8.73406 1.21592 8.21292C1.1902 7.64931 1.18475 7.48025 1.18475 6.05307C1.18475 4.62588 1.1902 4.45682 1.21592 3.8932C1.23968 3.37206 1.32676 3.08905 1.39996 2.9007C1.49692 2.65121 1.61275 2.47315 1.7998 2.28612C1.98683 2.09907 2.16488 1.98325 2.41438 1.88629C2.60272 1.81309 2.88574 1.72601 3.40688 1.70225C3.97049 1.67653 4.13955 1.67108 5.56675 1.67108Z" fill="#1A1A1A"/>
</svg>
