<svg width="144" height="32" viewBox="0 0 144 32" fill="none" xmlns="http://www.w3.org/2000/svg">
<g clip-path="url(#clip0_484_6855)">
<path d="M32 16C32 7.16344 24.8366 0 16 0C7.16344 0 0 7.16344 0 16C0 23.9861 5.85097 30.6053 13.5 31.8056V20.625H9.4375V16H13.5V12.475C13.5 8.465 15.8887 6.25 19.5434 6.25C21.294 6.25 23.125 6.5625 23.125 6.5625V10.5H21.1074C19.1198 10.5 18.5 11.7333 18.5 12.9987V16H22.9375L22.2281 20.625H18.5V31.8056C26.149 30.6053 32 23.9861 32 16Z" fill="#1A1A1A"/>
<path d="M22.2281 20.625L22.9375 16H18.5V12.9987C18.5 11.7333 19.1198 10.5 21.1074 10.5H23.125V6.5625C23.125 6.5625 21.294 6.25 19.5434 6.25C15.8887 6.25 13.5 8.465 13.5 12.475V16H9.4375V20.625H13.5V31.8056C14.3146 31.9334 15.1495 32 16 32C16.8505 32 17.6854 31.9334 18.5 31.8056V20.625H22.2281Z" fill="white"/>
</g>
<path d="M84.7239 9.32602C84.7435 9.61533 84.7435 9.90464 84.7435 10.1966C84.7435 19.0933 78.1393 29.3538 66.0635 29.3538V29.3485C62.4962 29.3538 59.003 28.3059 56 26.3301C56.5187 26.3941 57.04 26.4261 57.5626 26.4274C60.5189 26.4301 63.3906 25.4128 65.7164 23.5396C62.907 23.485 60.4435 21.6064 59.5829 18.864C60.567 19.0586 61.581 19.0186 62.5469 18.748C59.4841 18.1134 57.2805 15.3536 57.2805 12.1485C57.2805 12.1191 57.2805 12.0911 57.2805 12.0631C58.1931 12.5844 59.215 12.8737 60.2602 12.9057C57.3754 10.9286 56.4862 6.99286 58.2282 3.91576C61.5615 8.12211 66.4795 10.6792 71.7588 10.9499C71.2297 8.6114 71.9525 6.16092 73.6582 4.51705C76.3024 1.9679 80.4612 2.09856 82.9468 4.80902C84.4171 4.51171 85.8264 3.95842 87.116 3.17448C86.6259 4.73303 85.6002 6.05693 84.2299 6.8982C85.5313 6.74088 86.8027 6.38357 88 5.83828C87.1186 7.19284 86.0084 8.37276 84.7239 9.32602Z" fill="#1A1A1A"/>
<path fill-rule="evenodd" clip-rule="evenodd" d="M119.784 16C119.784 11.4623 123.462 7.78379 128 7.78379C132.538 7.78379 136.216 11.4623 136.216 16C136.216 20.5377 132.538 24.2162 128 24.2162C123.462 24.2162 119.784 20.5377 119.784 16ZM128 21.3333C125.054 21.3333 122.667 18.9455 122.667 16C122.667 13.0545 125.054 10.6667 128 10.6667C130.946 10.6667 133.333 13.0545 133.333 16C133.333 18.9455 130.946 21.3333 128 21.3333Z" fill="#1A1A1A"/>
<path fill-rule="evenodd" clip-rule="evenodd" d="M119.784 16C119.784 11.4623 123.462 7.78379 128 7.78379C132.538 7.78379 136.216 11.4623 136.216 16C136.216 20.5377 132.538 24.2162 128 24.2162C123.462 24.2162 119.784 20.5377 119.784 16ZM128 21.3333C125.054 21.3333 122.667 18.9455 122.667 16C122.667 13.0545 125.054 10.6667 128 10.6667C130.946 10.6667 133.333 13.0545 133.333 16C133.333 18.9455 130.946 21.3333 128 21.3333Z" fill="#1A1A1A"/>
<path d="M136.541 9.37915C137.601 9.37915 138.461 8.51958 138.461 7.45918C138.461 6.39878 137.601 5.53914 136.541 5.53914C135.48 5.53914 134.621 6.39878 134.621 7.45918C134.621 8.51958 135.48 9.37915 136.541 9.37915Z" fill="#1A1A1A"/>
<path d="M136.541 9.37915C137.601 9.37915 138.461 8.51958 138.461 7.45918C138.461 6.39878 137.601 5.53914 136.541 5.53914C135.48 5.53914 134.621 6.39878 134.621 7.45918C134.621 8.51958 135.48 9.37915 136.541 9.37915Z" fill="#1A1A1A"/>
<path fill-rule="evenodd" clip-rule="evenodd" d="M128 0C123.655 0 123.11 0.0184185 121.403 0.0962843C119.7 0.17396 118.537 0.444458 117.519 0.840011C116.467 1.24884 115.575 1.79593 114.685 2.68542C113.796 3.57497 113.249 4.46725 112.84 5.51939C112.444 6.53711 112.174 7.70021 112.096 9.40322C112.018 11.1098 112 11.6547 112 16C112 20.3453 112.018 20.8902 112.096 22.5968C112.174 24.2998 112.444 25.4629 112.84 26.4806C113.249 27.5327 113.796 28.425 114.685 29.3146C115.575 30.2041 116.467 30.7512 117.519 31.1601C118.537 31.5555 119.7 31.826 121.403 31.9037C123.11 31.9816 123.655 32 128 32C132.345 32 132.89 31.9816 134.597 31.9037C136.3 31.826 137.463 31.5555 138.481 31.1601C139.533 30.7512 140.425 30.2041 141.315 29.3146C142.204 28.425 142.751 27.5327 143.16 26.4806C143.556 25.4629 143.826 24.2998 143.904 22.5968C143.982 20.8902 144 20.3453 144 16C144 11.6547 143.982 11.1098 143.904 9.40322C143.826 7.70021 143.556 6.53711 143.16 5.51939C142.751 4.46725 142.204 3.57497 141.315 2.68542C140.425 1.79593 139.533 1.24884 138.481 0.840011C137.463 0.444458 136.3 0.17396 134.597 0.0962843C132.89 0.0184185 132.345 0 128 0ZM128 2.88288C132.272 2.88288 132.778 2.8992 134.465 2.97618C136.025 3.04731 136.873 3.30796 137.436 3.52708C138.183 3.81733 138.716 4.16404 139.276 4.72397C139.836 5.28383 140.183 5.81682 140.473 6.56366C140.692 7.12746 140.953 7.97464 141.024 9.53463C141.101 11.2218 141.117 11.7278 141.117 16C141.117 20.2722 141.101 20.7782 141.024 22.4654C140.953 24.0254 140.692 24.8725 140.473 25.4363C140.183 26.1832 139.836 26.7162 139.276 27.276C138.716 27.836 138.183 28.1827 137.436 28.4729C136.873 28.692 136.025 28.9527 134.465 29.0238C132.778 29.1008 132.272 29.1171 128 29.1171C123.728 29.1171 123.222 29.1008 121.535 29.0238C119.975 28.9527 119.127 28.692 118.564 28.4729C117.817 28.1827 117.284 27.836 116.724 27.276C116.164 26.7162 115.817 26.1832 115.527 25.4363C115.308 24.8725 115.047 24.0254 114.976 22.4654C114.899 20.7782 114.883 20.2722 114.883 16C114.883 11.7278 114.899 11.2218 114.976 9.53463C115.047 7.97464 115.308 7.12746 115.527 6.56366C115.817 5.81682 116.164 5.28383 116.724 4.72397C117.284 4.16404 117.817 3.81733 118.564 3.52708C119.127 3.30796 119.975 3.04731 121.535 2.97618C123.222 2.8992 123.728 2.88288 128 2.88288Z" fill="#1A1A1A"/>
<path fill-rule="evenodd" clip-rule="evenodd" d="M128 0C123.655 0 123.11 0.0184185 121.403 0.0962843C119.7 0.17396 118.537 0.444458 117.519 0.840011C116.467 1.24884 115.575 1.79593 114.685 2.68542C113.796 3.57497 113.249 4.46725 112.84 5.51939C112.444 6.53711 112.174 7.70021 112.096 9.40322C112.018 11.1098 112 11.6547 112 16C112 20.3453 112.018 20.8902 112.096 22.5968C112.174 24.2998 112.444 25.4629 112.84 26.4806C113.249 27.5327 113.796 28.425 114.685 29.3146C115.575 30.2041 116.467 30.7512 117.519 31.1601C118.537 31.5555 119.7 31.826 121.403 31.9037C123.11 31.9816 123.655 32 128 32C132.345 32 132.89 31.9816 134.597 31.9037C136.3 31.826 137.463 31.5555 138.481 31.1601C139.533 30.7512 140.425 30.2041 141.315 29.3146C142.204 28.425 142.751 27.5327 143.16 26.4806C143.556 25.4629 143.826 24.2998 143.904 22.5968C143.982 20.8902 144 20.3453 144 16C144 11.6547 143.982 11.1098 143.904 9.40322C143.826 7.70021 143.556 6.53711 143.16 5.51939C142.751 4.46725 142.204 3.57497 141.315 2.68542C140.425 1.79593 139.533 1.24884 138.481 0.840011C137.463 0.444458 136.3 0.17396 134.597 0.0962843C132.89 0.0184185 132.345 0 128 0ZM128 2.88288C132.272 2.88288 132.778 2.8992 134.465 2.97618C136.025 3.04731 136.873 3.30796 137.436 3.52708C138.183 3.81733 138.716 4.16404 139.276 4.72397C139.836 5.28383 140.183 5.81682 140.473 6.56366C140.692 7.12746 140.953 7.97464 141.024 9.53463C141.101 11.2218 141.117 11.7278 141.117 16C141.117 20.2722 141.101 20.7782 141.024 22.4654C140.953 24.0254 140.692 24.8725 140.473 25.4363C140.183 26.1832 139.836 26.7162 139.276 27.276C138.716 27.836 138.183 28.1827 137.436 28.4729C136.873 28.692 136.025 28.9527 134.465 29.0238C132.778 29.1008 132.272 29.1171 128 29.1171C123.728 29.1171 123.222 29.1008 121.535 29.0238C119.975 28.9527 119.127 28.692 118.564 28.4729C117.817 28.1827 117.284 27.836 116.724 27.276C116.164 26.7162 115.817 26.1832 115.527 25.4363C115.308 24.8725 115.047 24.0254 114.976 22.4654C114.899 20.7782 114.883 20.2722 114.883 16C114.883 11.7278 114.899 11.2218 114.976 9.53463C115.047 7.97464 115.308 7.12746 115.527 6.56366C115.817 5.81682 116.164 5.28383 116.724 4.72397C117.284 4.16404 117.817 3.81733 118.564 3.52708C119.127 3.30796 119.975 3.04731 121.535 2.97618C123.222 2.8992 123.728 2.88288 128 2.88288Z" fill="#1A1A1A"/>
<defs>
<clipPath id="clip0_484_6855">
<rect width="32" height="32" fill="white"/>
</clipPath>
</defs>
</svg>
