<svg width="12" height="12" viewBox="0 0 12 12" fill="none" xmlns="http://www.w3.org/2000/svg">
<path d="M10.1103 3.82317C10.1169 3.91982 10.1169 4.01647 10.1169 4.11401C10.1169 7.08608 7.91065 10.5138 3.87651 10.5138V10.512C2.68481 10.5138 1.51786 10.1637 0.514648 9.50365C0.687931 9.52502 0.862082 9.53571 1.03667 9.53616C2.02425 9.53705 2.9836 9.19722 3.76055 8.57145C2.82204 8.55319 1.99906 7.92564 1.71156 7.00948C2.04032 7.0745 2.37907 7.06114 2.70175 6.97073C1.67855 6.75872 0.942427 5.83677 0.942427 4.76606C0.942427 4.75626 0.942427 4.74691 0.942427 4.73755C1.2473 4.9117 1.58865 5.00835 1.93783 5.01904C0.97413 4.35853 0.677074 3.04374 1.25903 2.01579C2.37255 3.42099 4.01548 4.27524 5.77914 4.36565C5.60239 3.58444 5.84385 2.76582 6.41364 2.21666C7.29699 1.36508 8.6863 1.40872 9.51666 2.3142C10.0078 2.21488 10.4786 2.03004 10.9094 1.76815C10.7457 2.28881 10.4031 2.73108 9.94531 3.01212C10.38 2.95956 10.8048 2.8402 11.2048 2.65804C10.9103 3.11055 10.5394 3.50472 10.1103 3.82317Z" fill="#1A1A1A"/>
</svg>
