<svg width="51" height="50" viewBox="0 0 51 50" fill="none" xmlns="http://www.w3.org/2000/svg">
<ellipse cx="25.3967" cy="25" rx="24.3967" ry="24" fill="#8A44D3" stroke="#6833A1" stroke-width="2"/>
<path d="M17.4912 36V14.7H27.0912C28.0912 14.7 29.0112 14.91 29.8512 15.33C30.7112 15.73 31.4512 16.28 32.0712 16.98C32.6912 17.66 33.1712 18.43 33.5112 19.29C33.8712 20.15 34.0512 21.02 34.0512 21.9C34.0512 22.78 33.9112 23.62 33.6312 24.42C33.3512 25.2 32.9512 25.91 32.4312 26.55C31.9112 27.17 31.2912 27.68 30.5712 28.08L35.2512 36H29.8212L25.7412 29.13H22.4112V36H17.4912ZM22.4112 24.84H26.9112C27.3112 24.84 27.6612 24.72 27.9612 24.48C28.2812 24.22 28.5412 23.87 28.7412 23.43C28.9412 22.99 29.0412 22.48 29.0412 21.9C29.0412 21.32 28.9212 20.82 28.6812 20.4C28.4612 19.96 28.1812 19.62 27.8412 19.38C27.5012 19.14 27.1412 19.02 26.7612 19.02H22.4112V24.84Z" fill="white"/>
</svg>
