<svg width="16" height="20" viewBox="0 0 16 20" fill="none" xmlns="http://www.w3.org/2000/svg">
<path d="M0.931245 9.79282C1.50955 4.94952 5.72034 4.91338 7.43718 5.72662C8.25042 6.17842 9.10086 6.17842 9.69618 5.81698C12.2263 4.28086 14.5154 5.9977 15.3889 7.08202C11.9913 10.7687 14.2744 13.6783 15.8407 14.6723C15.6961 16.1903 13.913 18.1963 13.0395 19.0096C12.4973 19.5143 11.1419 19.5517 10.6901 19.2806C10.2383 19.0096 9.29206 18.595 8.9733 18.5578C8.48975 18.5012 8.0697 18.5578 7.43718 18.8288C6.08177 19.5517 5.62997 19.371 4.90709 19.1903C3.73241 18.7385 0.35294 14.6361 0.931245 9.79282Z" fill="url(#paint0_linear_289_2255)"/>
<path d="M8.5215 5.00374C8.5215 3.67845 9.20824 0.991744 11.9552 0.847168C12.0455 2.10949 11.4853 4.70805 8.5215 5.00374Z" fill="url(#paint1_linear_289_2255)"/>
<defs>
<linearGradient id="paint0_linear_289_2255" x1="8.27477" y1="1.84113" x2="11.8892" y2="22.3529" gradientUnits="userSpaceOnUse">
<stop offset="0.9999"/>
<stop offset="1" stop-color="#AAA8A9"/>
</linearGradient>
<linearGradient id="paint1_linear_289_2255" x1="8.27477" y1="1.84113" x2="11.8892" y2="22.3529" gradientUnits="userSpaceOnUse">
<stop offset="0.9999"/>
<stop offset="1" stop-color="#AAA8A9"/>
</linearGradient>
</defs>
</svg>
