<svg width="24" height="24" viewBox="0 0 24 24" fill="none" xmlns="http://www.w3.org/2000/svg">
<path d="M8.45977 11.2895L14.1198 5.63955C14.2127 5.54582 14.3233 5.47143 14.4452 5.42066C14.5671 5.36989 14.6978 5.34375 14.8298 5.34375C14.9618 5.34375 15.0925 5.36989 15.2144 5.42066C15.3362 5.47143 15.4468 5.54582 15.5398 5.63955C15.726 5.82691 15.8306 6.08036 15.8306 6.34455C15.8306 6.60873 15.726 6.86219 15.5398 7.04955L10.5898 12.0495L15.5398 16.9995C15.726 17.1869 15.8306 17.4404 15.8306 17.7045C15.8306 17.9687 15.726 18.2222 15.5398 18.4095C15.4472 18.504 15.3367 18.5792 15.2148 18.6307C15.093 18.6822 14.9621 18.709 14.8298 18.7095C14.6975 18.709 14.5666 18.6822 14.4447 18.6307C14.3228 18.5792 14.2124 18.504 14.1198 18.4095L8.45977 12.7595C8.35827 12.6659 8.27726 12.5523 8.22185 12.4258C8.16645 12.2993 8.13784 12.1627 8.13784 12.0245C8.13784 11.8864 8.16645 11.7498 8.22185 11.6233C8.27726 11.4968 8.35827 11.3832 8.45977 11.2895Z" fill="#1A1A1A"/>
</svg>
