<svg width="11" height="11" viewBox="0 0 11 11" fill="none" xmlns="http://www.w3.org/2000/svg">
<path d="M6.77834 4.95991L4.35765 2.5435C4.3179 2.50341 4.27059 2.4716 4.21848 2.44988C4.16636 2.42817 4.11046 2.41699 4.054 2.41699C3.99754 2.41699 3.94164 2.42817 3.88952 2.44988C3.8374 2.4716 3.7901 2.50341 3.75034 2.5435C3.67069 2.62363 3.62598 2.73203 3.62598 2.84502C3.62598 2.958 3.67069 3.0664 3.75034 3.14653L5.86738 5.28495L3.75034 7.40198C3.67069 7.48211 3.62598 7.59051 3.62598 7.7035C3.62598 7.81649 3.67069 7.92488 3.75034 8.00501C3.78995 8.04543 3.83719 8.07757 3.88931 8.0996C3.94144 8.12162 3.99741 8.13308 4.054 8.13332C4.11058 8.13308 4.16656 8.12162 4.21868 8.0996C4.27081 8.07757 4.31804 8.04543 4.35765 8.00501L6.77834 5.5886C6.82175 5.54856 6.8564 5.49995 6.8801 5.44585C6.90379 5.39175 6.91603 5.33332 6.91603 5.27426C6.91603 5.21519 6.90379 5.15677 6.8801 5.10267C6.8564 5.04857 6.82175 4.99996 6.77834 4.95991V4.95991Z" fill="#1A1A1A"/>
</svg>
