
<svg width="53" height="56" viewBox="0 0 53 56" fill="none" xmlns="http://www.w3.org/2000/svg">
<path d="M26.604 55.5302C23.404 55.5302 20.3736 54.9411 17.513 53.7629C14.6523 52.5848 12.0584 50.9712 9.73108 48.9222L4.05828 54.9155L1.0037 51.6883L6.67649 45.695C4.73708 43.2362 3.20979 40.4956 2.09462 37.4733C0.979457 34.4511 0.421875 31.2495 0.421875 27.8686C0.421875 20.1848 2.97948 13.6536 8.09469 8.27499C13.2099 2.89635 19.3797 0.207031 26.604 0.207031H52.7861V27.8686C52.7861 35.5012 50.2406 42.0196 45.1497 47.4238C40.0587 52.8281 33.8768 55.5302 26.604 55.5302ZM26.604 50.9199C32.6647 50.9199 37.8163 48.6788 42.0587 44.1966C46.3012 39.7144 48.4224 34.2718 48.4224 27.8686V4.8173H26.604C20.5433 4.8173 15.3917 7.0584 11.1493 11.5406C6.9068 16.0228 4.78556 21.4655 4.78556 27.8686C4.78556 34.2718 6.9068 39.7144 11.1493 44.1966C15.3917 48.6788 20.5433 50.9199 26.604 50.9199ZM22.7494 42.852L37.8041 28.637C38.289 28.176 38.4344 27.6253 38.2405 26.985C38.0466 26.3447 37.6102 25.9733 36.9314 25.8708L25.1494 24.6414L32.2041 14.422C32.398 14.1659 32.4829 13.897 32.4586 13.6152C32.4344 13.3335 32.3253 13.0645 32.1313 12.8084C31.8889 12.5523 31.6101 12.4242 31.295 12.4242C30.9798 12.4242 30.701 12.5523 30.4586 12.8084L15.4766 27.0234C14.9917 27.4844 14.8463 28.0351 15.0402 28.6754C15.2342 29.3157 15.6705 29.6871 16.3493 29.7896L28.1313 31.019L21.0039 41.2384C20.8585 41.4945 20.7858 41.7634 20.7858 42.0452C20.7858 42.3269 20.907 42.5959 21.1494 42.852C21.3918 43.1081 21.6585 43.2362 21.9494 43.2362C22.2403 43.2362 22.507 43.1081 22.7494 42.852Z" fill="#4BB747"/>
</svg>