<svg width="27" height="27" viewBox="0 0 27 27" fill="none" xmlns="http://www.w3.org/2000/svg">
<path d="M13.5 27C11.85 27 10.2875 26.7125 8.8125 26.1375C7.3375 25.5625 6 24.775 4.8 23.775L1.875 26.7L0.3 25.125L3.225 22.2C2.225 21 1.4375 19.6625 0.8625 18.1875C0.2875 16.7125 0 15.15 0 13.5C0 9.75 1.31875 6.5625 3.95625 3.9375C6.59375 1.3125 9.775 0 13.5 0H27V13.5C27 17.225 25.6875 20.4062 23.0625 23.0437C20.4375 25.6812 17.25 27 13.5 27ZM11.5125 20.8125L19.275 13.875C19.525 13.65 19.6 13.3812 19.5 13.0687C19.4 12.7562 19.175 12.575 18.825 12.525L12.75 11.925L16.3875 6.9375C16.4875 6.8125 16.5312 6.68125 16.5187 6.54375C16.5062 6.40625 16.45 6.275 16.35 6.15C16.225 6.025 16.0813 5.9625 15.9188 5.9625C15.7563 5.9625 15.6125 6.025 15.4875 6.15L7.7625 13.0875C7.5125 13.3125 7.4375 13.5812 7.5375 13.8937C7.6375 14.2062 7.8625 14.3875 8.2125 14.4375L14.2875 15.0375L10.6125 20.025C10.5375 20.15 10.5 20.2812 10.5 20.4187C10.5 20.5562 10.5625 20.6875 10.6875 20.8125C10.8125 20.9375 10.95 21 11.1 21C11.25 21 11.3875 20.9375 11.5125 20.8125Z" fill="#8A44D3"/>
</svg>
