<svg width="72" height="72" viewBox="0 0 72 72" fill="none" xmlns="http://www.w3.org/2000/svg">
<path d="M36 72C31.6 72 27.4333 71.2333 23.5 69.7C19.5667 68.1667 16 66.0667 12.8 63.4L5 71.2L0.8 67L8.6 59.2C5.93333 56 3.83333 52.4333 2.3 48.5C0.766667 44.5667 0 40.4 0 36C0 26 3.51667 17.5 10.55 10.5C17.5833 3.5 26.0667 0 36 0H72V36C72 45.9333 68.5 54.4167 61.5 61.45C54.5 68.4833 46 72 36 72ZM36 66C44.3333 66 51.4167 63.0833 57.25 57.25C63.0833 51.4167 66 44.3333 66 36V6H36C27.6667 6 20.5833 8.91667 14.75 14.75C8.91667 20.5833 6 27.6667 6 36C6 44.3333 8.91667 51.4167 14.75 57.25C20.5833 63.0833 27.6667 66 36 66ZM30.7 55.5L51.4 37C52.0667 36.4 52.2667 35.6833 52 34.85C51.7333 34.0167 51.1333 33.5333 50.2 33.4L34 31.8L43.7 18.5C43.9667 18.1667 44.0833 17.8167 44.05 17.45C44.0167 17.0833 43.8667 16.7333 43.6 16.4C43.2667 16.0667 42.8833 15.9 42.45 15.9C42.0167 15.9 41.6333 16.0667 41.3 16.4L20.7 34.9C20.0333 35.5 19.8333 36.2167 20.1 37.05C20.3667 37.8833 20.9667 38.3667 21.9 38.5L38.1 40.1L28.3 53.4C28.1 53.7333 28 54.0833 28 54.45C28 54.8167 28.1667 55.1667 28.5 55.5C28.8333 55.8333 29.2 56 29.6 56C30 56 30.3667 55.8333 30.7 55.5Z" fill="#894AE0"/>
</svg>
