<svg width="29" height="28" viewBox="0 0 29 28" fill="none" xmlns="http://www.w3.org/2000/svg">
<path d="M14.5849 27.2569C12.8701 27.2569 11.2462 26.9728 9.71327 26.4046C8.18035 25.8364 6.79032 25.0583 5.54319 24.0701L2.50332 26.9604L0.866469 25.4041L3.90634 22.5138C2.86707 21.3281 2.04864 20.0064 1.45106 18.5489C0.853478 17.0914 0.554688 15.5474 0.554688 13.917C0.554688 10.2115 1.92523 7.06181 4.66631 4.46794C7.40739 1.87408 10.7136 0.577148 14.5849 0.577148H28.615V13.917C28.615 17.5978 27.251 20.7413 24.5229 23.3476C21.7948 25.9538 18.4821 27.2569 14.5849 27.2569ZM14.5849 25.0336C17.8326 25.0336 20.5932 23.9528 22.8666 21.7912C25.14 19.6297 26.2767 17.005 26.2767 13.917V2.80046H14.5849C11.3371 2.80046 8.57657 3.88124 6.30316 6.04279C4.02975 8.20434 2.89305 10.8291 2.89305 13.917C2.89305 17.005 4.02975 19.6297 6.30316 21.7912C8.57657 23.9528 11.3371 25.0336 14.5849 25.0336ZM12.5193 21.1428L20.5867 14.2876C20.8465 14.0652 20.9244 13.7997 20.8205 13.4909C20.7166 13.1821 20.4827 13.003 20.119 12.9536L13.8054 12.3607L17.5858 7.43236C17.6897 7.30884 17.7352 7.17915 17.7222 7.04328C17.7092 6.90741 17.6507 6.77772 17.5468 6.6542C17.4169 6.53068 17.2675 6.46892 17.0986 6.46892C16.9297 6.46892 16.7803 6.53068 16.6504 6.6542L8.62204 13.5094C8.36222 13.7317 8.28427 13.9973 8.3882 14.3061C8.49213 14.6149 8.72597 14.794 9.08971 14.8434L15.4033 15.4363L11.584 20.3646C11.506 20.4881 11.467 20.6178 11.467 20.7537C11.467 20.8896 11.532 21.0193 11.6619 21.1428C11.7918 21.2663 11.9347 21.3281 12.0906 21.3281C12.2465 21.3281 12.3894 21.2663 12.5193 21.1428Z" fill="#8A44D3"/>
</svg>
