<svg width="11" height="11" viewBox="0 0 11 11" fill="none" xmlns="http://www.w3.org/2000/svg">
<g clip-path="url(#clip0_181_1827)">
<path d="M10.6032 5.37238C10.6032 2.70031 8.43702 0.53418 5.76496 0.53418C3.09289 0.53418 0.926758 2.70031 0.926758 5.37238C0.926758 7.78726 2.69602 9.78884 5.00899 10.1518V6.77092H3.78054V5.37238H5.00899V4.30646C5.00899 3.09389 5.7313 2.4241 6.83645 2.4241C7.36578 2.4241 7.91946 2.5186 7.91946 2.5186V3.70925H7.30938C6.70836 3.70925 6.52092 4.08219 6.52092 4.46481V5.37238H7.86277L7.64826 6.77092H6.52092V10.1518C8.83389 9.78884 10.6032 7.78726 10.6032 5.37238Z" fill="#8A44D3"/>
<path d="M7.64897 6.77162L7.86348 5.37308H6.52163V4.46551C6.52163 4.0829 6.70907 3.70995 7.31009 3.70995H7.92018V2.5193C7.92018 2.5193 7.3665 2.4248 6.83716 2.4248C5.73201 2.4248 5.0097 3.09459 5.0097 4.30717V5.37308H3.78125V6.77162H5.0097V10.1525C5.25602 10.1912 5.50849 10.2113 5.76567 10.2113C6.02285 10.2113 6.27531 10.1912 6.52163 10.1525V6.77162H7.64897Z" fill="white"/>
</g>
<defs>
<clipPath id="clip0_181_1827">
<rect width="9.67639" height="9.67639" fill="white" transform="translate(0.927734 0.535645)"/>
</clipPath>
</defs>
</svg>
