<svg width="12" height="12" viewBox="0 0 12 12" fill="none" xmlns="http://www.w3.org/2000/svg">
<g clip-path="url(#clip0_18_1394)">
<path d="M11.4968 6.0516C11.4968 3.0996 9.10369 0.706543 6.1517 0.706543C3.1997 0.706543 0.806641 3.0996 0.806641 6.0516C0.806641 8.71947 2.76125 10.9307 5.31653 11.3317V7.59665H3.95939V6.0516H5.31653V4.87402C5.31653 3.53441 6.11451 2.79446 7.33544 2.79446C7.92023 2.79446 8.53192 2.89885 8.53192 2.89885V4.21424H7.85792C7.19393 4.21424 6.98686 4.62625 6.98686 5.04895V6.0516H8.46928L8.2323 7.59665H6.98686V11.3317C9.54214 10.9307 11.4968 8.71947 11.4968 6.0516Z" fill="#1A1A1A"/>
<path d="M8.2319 7.59614L8.46887 6.05109H6.98646V5.04844C6.98646 4.62574 7.19353 4.21373 7.85751 4.21373H8.53151V2.89834C8.53151 2.89834 7.91983 2.79395 7.33503 2.79395C6.11411 2.79395 5.31613 3.5339 5.31613 4.87351V6.05109H3.95898V7.59614H5.31613V11.3312C5.58826 11.3739 5.86717 11.3961 6.15129 11.3961C6.43541 11.3961 6.71433 11.3739 6.98646 11.3312V7.59614H8.2319Z" fill="white"/>
</g>
<defs>
<clipPath id="clip0_18_1394">
<rect width="10.6901" height="10.6901" fill="white" transform="translate(0.806641 0.70752)"/>
</clipPath>
</defs>
</svg>
