<svg width="28" height="28" viewBox="0 0 28 28" fill="none" xmlns="http://www.w3.org/2000/svg">
<path d="M23.1736 12.6117C23.1736 10.1793 22.2073 7.84658 20.4874 6.12663C18.7674 4.40669 16.4347 3.44043 14.0023 3.44043C11.5699 3.44043 9.2372 4.40669 7.51725 6.12663C5.79731 7.84658 4.83105 10.1793 4.83105 12.6117" stroke="#222222" stroke-width="1.65083" stroke-linecap="round" stroke-linejoin="round"/>
<path d="M2.53906 17.6986V15.548C2.53914 15.0367 2.71011 14.5401 3.0248 14.1371C3.33949 13.7341 3.77984 13.4479 4.27587 13.3239L6.27062 12.8241C6.37198 12.7989 6.47776 12.797 6.57993 12.8188C6.6821 12.8405 6.77799 12.8852 6.8603 12.9495C6.94262 13.0138 7.00921 13.096 7.05502 13.1899C7.10083 13.2838 7.12465 13.3869 7.12469 13.4913V19.7541C7.12487 19.8588 7.10116 19.9622 7.05536 20.0563C7.00956 20.1504 6.94288 20.2328 6.8604 20.2973C6.77792 20.3618 6.68182 20.4065 6.57941 20.4282C6.47701 20.4499 6.371 20.448 6.26947 20.4225L4.27472 19.9238C3.77891 19.7996 3.33882 19.5133 3.02435 19.1103C2.70988 18.7074 2.53908 18.2109 2.53906 17.6998V17.6986Z" stroke="#222222" stroke-width="1.65083"/>
<path d="M25.4675 17.6986V15.548C25.4674 15.0367 25.2964 14.5401 24.9817 14.1371C24.667 13.7341 24.2267 13.4479 23.7307 13.3239L21.7359 12.8241C21.6346 12.7989 21.5288 12.797 21.4266 12.8188C21.3244 12.8405 21.2285 12.8852 21.1462 12.9495C21.0639 13.0138 20.9973 13.096 20.9515 13.1899C20.9057 13.2838 20.8819 13.3869 20.8818 13.4913V19.7541C20.8817 19.8587 20.9054 19.9619 20.9511 20.0559C20.9969 20.1499 21.0634 20.2323 21.1458 20.2967C21.2281 20.3612 21.3241 20.406 21.4263 20.4278C21.5286 20.4496 21.6345 20.4478 21.7359 20.4225L23.7307 19.9238C24.2267 19.7998 24.667 19.5136 24.9817 19.1106C25.2964 18.7076 25.4674 18.2111 25.4675 17.6998V17.6986Z" stroke="#222222" stroke-width="1.65083"/>
<path d="M23.1763 20.6348V21.208C23.1763 21.8161 22.9348 22.3992 22.5048 22.8292C22.0748 23.2592 21.4916 23.5008 20.8835 23.5008H16.8711" stroke="#222222" stroke-width="1.65083"/>
<path d="M15.7252 25.2205H12.286C11.8299 25.2205 11.3926 25.0393 11.0701 24.7168C10.7476 24.3943 10.5664 23.9569 10.5664 23.5009C10.5664 23.0448 10.7476 22.6074 11.0701 22.2849C11.3926 21.9624 11.8299 21.7812 12.286 21.7812H15.7252C16.1813 21.7812 16.6187 21.9624 16.9412 22.2849C17.2637 22.6074 17.4448 23.0448 17.4448 23.5009C17.4448 23.9569 17.2637 24.3943 16.9412 24.7168C16.6187 25.0393 16.1813 25.2205 15.7252 25.2205Z" stroke="#222222" stroke-width="1.65083"/>
</svg>
