<svg width="26" height="25" viewBox="0 0 26 25" fill="none" xmlns="http://www.w3.org/2000/svg">
<path d="M24.4831 10.3004L13.8114 0.48249C13.4645 0.163315 13.0076 -0.00941789 12.5363 0.000396442C12.065 0.0102108 11.6157 0.201812 11.2824 0.535153L1.46755 10.35L0.963867 10.8537V25.3229H10.4217V16.2949H15.5806V25.3229H25.0384V10.8114L24.4831 10.3004ZM12.5733 1.71964C12.5884 1.71964 12.5791 1.72292 12.5726 1.72932C12.5659 1.72292 12.5581 1.71964 12.5733 1.71964ZM23.3188 23.6033H17.3002V16.2949C17.3002 15.8388 17.119 15.4014 16.7965 15.079C16.474 14.7565 16.0366 14.5753 15.5806 14.5753H10.4217C9.96566 14.5753 9.52827 14.7565 9.20578 15.079C8.88329 15.4014 8.70212 15.8388 8.70212 16.2949V23.6033H2.68348V11.566L12.5733 1.75108C12.574 1.75043 12.574 1.74984 12.5746 1.7492L23.3188 11.566V23.6033Z" fill="#222222"/>
</svg>
