<svg width="11" height="11" viewBox="0 0 11 11" fill="none" xmlns="http://www.w3.org/2000/svg">
<path fill-rule="evenodd" clip-rule="evenodd" d="M3.14864 5.37385C3.14864 4.00169 4.26097 2.88936 5.63313 2.88936C7.00527 2.88936 8.1176 4.00169 8.1176 5.37385C8.1176 6.74599 7.00527 7.85832 5.63313 7.85832C4.26097 7.85832 3.14864 6.74599 3.14864 5.37385ZM5.63313 6.98657C4.74243 6.98657 4.02039 6.26453 4.02039 5.37385C4.02039 4.48315 4.74243 3.76111 5.63313 3.76111C6.52381 3.76111 7.24585 4.48315 7.24585 5.37385C7.24585 6.26453 6.52381 6.98657 5.63313 6.98657Z" fill="#8A44D3"/>
<path fill-rule="evenodd" clip-rule="evenodd" d="M3.14864 5.37385C3.14864 4.00169 4.26097 2.88936 5.63313 2.88936C7.00527 2.88936 8.1176 4.00169 8.1176 5.37385C8.1176 6.74599 7.00527 7.85832 5.63313 7.85832C4.26097 7.85832 3.14864 6.74599 3.14864 5.37385ZM5.63313 6.98657C4.74243 6.98657 4.02039 6.26453 4.02039 5.37385C4.02039 4.48315 4.74243 3.76111 5.63313 3.76111C6.52381 3.76111 7.24585 4.48315 7.24585 5.37385C7.24585 6.26453 6.52381 6.98657 5.63313 6.98657Z" fill="#8A44D3"/>
<path d="M8.21575 3.37178C8.53641 3.37178 8.79635 3.11186 8.79635 2.79121C8.79635 2.47055 8.53641 2.21061 8.21575 2.21061C7.89512 2.21061 7.63518 2.47055 7.63518 2.79121C7.63518 3.11186 7.89512 3.37178 8.21575 3.37178Z" fill="#8A44D3"/>
<path d="M8.21575 3.37178C8.53641 3.37178 8.79635 3.11186 8.79635 2.79121C8.79635 2.47055 8.53641 2.21061 8.21575 2.21061C7.89512 2.21061 7.63518 2.47055 7.63518 2.79121C7.63518 3.11186 7.89512 3.37178 8.21575 3.37178Z" fill="#8A44D3"/>
<path fill-rule="evenodd" clip-rule="evenodd" d="M5.63313 0.535645C4.31914 0.535645 4.15438 0.541214 3.63834 0.56476C3.12337 0.588248 2.77166 0.670043 2.46392 0.789653C2.14576 0.913277 1.87595 1.07871 1.60696 1.34768C1.33799 1.61667 1.17255 1.88648 1.04893 2.20464C0.92932 2.51238 0.847525 2.86409 0.824037 3.37906C0.800491 3.8951 0.794922 4.05987 0.794922 5.37385C0.794922 6.68782 0.800491 6.85258 0.824037 7.36862C0.847525 7.88359 0.92932 8.2353 1.04893 8.54304C1.17255 8.8612 1.33799 9.13101 1.60696 9.4C1.87595 9.66897 2.14576 9.83441 2.46392 9.95805C2.77166 10.0776 3.12337 10.1594 3.63834 10.1829C4.15438 10.2065 4.31914 10.212 5.63313 10.212C6.94709 10.212 7.11186 10.2065 7.6279 10.1829C8.14287 10.1594 8.49458 10.0776 8.80232 9.95805C9.12048 9.83441 9.39029 9.66897 9.65928 9.4C9.92825 9.13101 10.0937 8.8612 10.2173 8.54304C10.3369 8.2353 10.4187 7.88359 10.4422 7.36862C10.4657 6.85258 10.4713 6.68782 10.4713 5.37385C10.4713 4.05987 10.4657 3.8951 10.4422 3.37906C10.4187 2.86409 10.3369 2.51238 10.2173 2.20464C10.0937 1.88648 9.92825 1.61667 9.65928 1.34768C9.39029 1.07871 9.12048 0.913277 8.80232 0.789653C8.49458 0.670043 8.14287 0.588248 7.6279 0.56476C7.11186 0.541214 6.94709 0.535645 5.63313 0.535645ZM5.63313 1.40739C6.92497 1.40739 7.078 1.41233 7.58817 1.4356C8.05989 1.45711 8.31606 1.53593 8.48655 1.60219C8.71239 1.68996 8.87356 1.7948 9.04285 1.96411C9.21216 2.13341 9.31701 2.29458 9.40477 2.52041C9.47103 2.6909 9.54985 2.94708 9.57136 3.41879C9.59464 3.92896 9.59957 4.08199 9.59957 5.37385C9.59957 6.66569 9.59464 6.81872 9.57136 7.32889C9.54985 7.80061 9.47103 8.05679 9.40477 8.22727C9.31701 8.45311 9.21216 8.61428 9.04285 8.78357C8.87356 8.95288 8.71239 9.05773 8.48655 9.14549C8.31606 9.21175 8.05989 9.29057 7.58817 9.31208C7.07808 9.33536 6.92507 9.34029 5.63313 9.34029C4.34117 9.34029 4.18818 9.33536 3.67807 9.31208C3.20635 9.29057 2.95017 9.21175 2.77969 9.14549C2.55386 9.05773 2.39268 8.95288 2.22339 8.78357C2.0541 8.61428 1.94924 8.45311 1.86147 8.22727C1.79521 8.05679 1.71639 7.80061 1.69488 7.32889C1.6716 6.81872 1.66667 6.66569 1.66667 5.37385C1.66667 4.08199 1.6716 3.92896 1.69488 3.41879C1.71639 2.94708 1.79521 2.6909 1.86147 2.52041C1.94924 2.29458 2.05408 2.13341 2.22339 1.96411C2.39268 1.7948 2.55386 1.68996 2.77969 1.60219C2.95017 1.53593 3.20635 1.45711 3.67807 1.4356C4.18824 1.41233 4.34127 1.40739 5.63313 1.40739Z" fill="#8A44D3"/>
<path fill-rule="evenodd" clip-rule="evenodd" d="M5.63313 0.535645C4.31914 0.535645 4.15438 0.541214 3.63834 0.56476C3.12337 0.588248 2.77166 0.670043 2.46392 0.789653C2.14576 0.913277 1.87595 1.07871 1.60696 1.34768C1.33799 1.61667 1.17255 1.88648 1.04893 2.20464C0.92932 2.51238 0.847525 2.86409 0.824037 3.37906C0.800491 3.8951 0.794922 4.05987 0.794922 5.37385C0.794922 6.68782 0.800491 6.85258 0.824037 7.36862C0.847525 7.88359 0.92932 8.2353 1.04893 8.54304C1.17255 8.8612 1.33799 9.13101 1.60696 9.4C1.87595 9.66897 2.14576 9.83441 2.46392 9.95805C2.77166 10.0776 3.12337 10.1594 3.63834 10.1829C4.15438 10.2065 4.31914 10.212 5.63313 10.212C6.94709 10.212 7.11186 10.2065 7.6279 10.1829C8.14287 10.1594 8.49458 10.0776 8.80232 9.95805C9.12048 9.83441 9.39029 9.66897 9.65928 9.4C9.92825 9.13101 10.0937 8.8612 10.2173 8.54304C10.3369 8.2353 10.4187 7.88359 10.4422 7.36862C10.4657 6.85258 10.4713 6.68782 10.4713 5.37385C10.4713 4.05987 10.4657 3.8951 10.4422 3.37906C10.4187 2.86409 10.3369 2.51238 10.2173 2.20464C10.0937 1.88648 9.92825 1.61667 9.65928 1.34768C9.39029 1.07871 9.12048 0.913277 8.80232 0.789653C8.49458 0.670043 8.14287 0.588248 7.6279 0.56476C7.11186 0.541214 6.94709 0.535645 5.63313 0.535645ZM5.63313 1.40739C6.92497 1.40739 7.078 1.41233 7.58817 1.4356C8.05989 1.45711 8.31606 1.53593 8.48655 1.60219C8.71239 1.68996 8.87356 1.7948 9.04285 1.96411C9.21216 2.13341 9.31701 2.29458 9.40477 2.52041C9.47103 2.6909 9.54985 2.94708 9.57136 3.41879C9.59464 3.92896 9.59957 4.08199 9.59957 5.37385C9.59957 6.66569 9.59464 6.81872 9.57136 7.32889C9.54985 7.80061 9.47103 8.05679 9.40477 8.22727C9.31701 8.45311 9.21216 8.61428 9.04285 8.78357C8.87356 8.95288 8.71239 9.05773 8.48655 9.14549C8.31606 9.21175 8.05989 9.29057 7.58817 9.31208C7.07808 9.33536 6.92507 9.34029 5.63313 9.34029C4.34117 9.34029 4.18818 9.33536 3.67807 9.31208C3.20635 9.29057 2.95017 9.21175 2.77969 9.14549C2.55386 9.05773 2.39268 8.95288 2.22339 8.78357C2.0541 8.61428 1.94924 8.45311 1.86147 8.22727C1.79521 8.05679 1.71639 7.80061 1.69488 7.32889C1.6716 6.81872 1.66667 6.66569 1.66667 5.37385C1.66667 4.08199 1.6716 3.92896 1.69488 3.41879C1.71639 2.94708 1.79521 2.6909 1.86147 2.52041C1.94924 2.29458 2.05408 2.13341 2.22339 1.96411C2.39268 1.7948 2.55386 1.68996 2.77969 1.60219C2.95017 1.53593 3.20635 1.45711 3.67807 1.4356C4.18824 1.41233 4.34127 1.40739 5.63313 1.40739Z" fill="#8A44D3"/>
</svg>
