<svg width="54" height="54" viewBox="0 0 54 54" fill="none" xmlns="http://www.w3.org/2000/svg">
<path d="M31.9719 52.2C31.1895 53 30.2442 53.4 29.1358 53.4C28.0274 53.4 27.0821 53 26.2997 52.2L1.85055 27.2C1.4159 26.7556 1.12251 26.2889 0.97038 25.8C0.818252 25.3111 0.742188 24.8 0.742188 24.2667V4C0.742188 2.84444 1.11164 1.88889 1.85055 1.13333C2.58946 0.377778 3.52396 0 4.65405 0H24.4742C24.9957 0 25.5173 0.077778 26.0389 0.233334C26.5605 0.388889 27.0386 0.688889 27.4733 1.13333L51.792 26C52.6179 26.8444 53.0308 27.8333 53.0308 28.9667C53.0308 30.1 52.6179 31.0889 51.792 31.9333L31.9719 52.2ZM29.2988 49.4667L49.1189 29.2L24.4742 4H4.65405V24.2667L29.2988 49.4667ZM11.4998 14.4C12.4126 14.4 13.2058 14.0556 13.8795 13.3667C14.5532 12.6778 14.8901 11.8667 14.8901 10.9333C14.8901 10 14.5532 9.18889 13.8795 8.5C13.2058 7.81111 12.4126 7.46667 11.4998 7.46667C10.587 7.46667 9.79381 7.81111 9.1201 8.5C8.44639 9.18889 8.10953 10 8.10953 10.9333C8.10953 11.8667 8.44639 12.6778 9.1201 13.3667C9.79381 14.0556 10.587 14.4 11.4998 14.4Z" fill="#4BB747"/>
</svg>
