
<svg width="38" height="38" viewBox="0 0 38 38" fill="none" xmlns="http://www.w3.org/2000/svg">
<circle cx="19" cy="19" r="19" fill="white"/>
<path d="M19 7.28369C16.1143 7.28369 13.775 9.623 13.775 12.5087C13.775 15.3944 16.1143 17.7337 19 17.7337C21.8857 17.7337 24.225 15.3944 24.225 12.5087C24.225 9.623 21.8857 7.28369 19 7.28369Z" fill="#4BB747"/>
<path d="M14.25 19.6337C11.6266 19.6337 9.5 21.7603 9.5 24.3837V27.2337C9.5 27.7584 9.92533 28.1837 10.45 28.1837H27.55C28.0747 28.1837 28.5 27.7584 28.5 27.2337V24.3837C28.5 21.7603 26.3734 19.6337 23.75 19.6337H14.25Z" fill="#4BB747"/>
</svg>