<svg width="42" height="42" viewBox="0 0 42 42" fill="none" xmlns="http://www.w3.org/2000/svg">
<circle cx="20.924" cy="20.924" r="20.924" fill="white"/>
<path d="M20.9229 8.02075C17.745 8.02075 15.1688 10.597 15.1688 13.7749C15.1688 16.9528 17.745 19.529 20.9229 19.529C24.1008 19.529 26.677 16.9528 26.677 13.7749C26.677 10.597 24.1008 8.02075 20.9229 8.02075Z" fill="#894AE0"/>
<path d="M15.6919 21.6214C12.8029 21.6214 10.4609 23.9634 10.4609 26.8524V29.9909C10.4609 30.5688 10.9293 31.0371 11.5071 31.0371H30.3387C30.9165 31.0371 31.3849 30.5688 31.3849 29.9909V26.8524C31.3849 23.9634 29.0429 21.6214 26.1539 21.6214H15.6919Z" fill="#894AE0"/>
</svg>
