<svg width="75" height="75" viewBox="0 0 75 75" fill="none" xmlns="http://www.w3.org/2000/svg">
<path d="M44.7943 73.3146C43.6721 74.4382 42.3161 75 40.7263 75C39.1365 75 37.7805 74.4382 36.6584 73.3146L1.58978 38.2022C0.966334 37.578 0.545512 36.9226 0.327307 36.236C0.109103 35.5493 0 34.8315 0 34.0824V5.61798C0 3.99501 0.529925 2.65293 1.58978 1.59176C2.64963 0.530587 3.99002 0 5.61097 0H34.0399C34.788 0 35.5362 0.109239 36.2843 0.327716C37.0324 0.546193 37.7182 0.96754 38.3416 1.59176L73.2232 36.5169C74.4077 37.7029 75 39.0918 75 40.6835C75 42.2753 74.4077 43.6642 73.2232 44.8502L44.7943 73.3146ZM40.9601 69.4757L69.389 41.0112L34.0399 5.61798H5.61097V34.0824L40.9601 69.4757ZM15.4302 20.2247C16.7394 20.2247 17.8772 19.7409 18.8435 18.7734C19.8098 17.8059 20.293 16.6667 20.293 15.3558C20.293 14.0449 19.8098 12.9057 18.8435 11.9382C17.8772 10.9707 16.7394 10.4869 15.4302 10.4869C14.1209 10.4869 12.9832 10.9707 12.0168 11.9382C11.0505 12.9057 10.5673 14.0449 10.5673 15.3558C10.5673 16.6667 11.0505 17.8059 12.0168 18.7734C12.9832 19.7409 14.1209 20.2247 15.4302 20.2247Z" fill="#894AE0"/>
</svg>
