<svg width="27" height="27" viewBox="0 0 27 27" fill="none" xmlns="http://www.w3.org/2000/svg">
<path d="M16.0571 25.6324C15.657 26.0128 15.1735 26.203 14.6067 26.203C14.0399 26.203 13.5564 26.0128 13.1563 25.6324L0.652763 13.7441C0.430479 13.5327 0.280437 13.3108 0.202637 13.0783C0.124837 12.8458 0.0859375 12.6028 0.0859375 12.3492V2.7117C0.0859375 2.1622 0.274879 1.7078 0.652763 1.34851C1.03065 0.989216 1.50856 0.80957 2.0865 0.80957H12.2227C12.4894 0.80957 12.7562 0.846556 13.0229 0.920528C13.2896 0.9945 13.5342 1.13716 13.7564 1.34851L26.1933 13.1734C26.6156 13.575 26.8268 14.0452 26.8268 14.5842C26.8268 15.1231 26.6156 15.5934 26.1933 15.9949L16.0571 25.6324ZM14.69 24.3326L24.8262 14.6951L12.2227 2.7117H2.0865V12.3492L14.69 24.3326ZM5.58748 7.65725C6.05428 7.65725 6.45995 7.49345 6.80449 7.16586C7.14903 6.83827 7.32131 6.45256 7.32131 6.00873C7.32131 5.5649 7.14903 5.17919 6.80449 4.8516C6.45995 4.52401 6.05428 4.36022 5.58748 4.36022C5.12069 4.36022 4.71502 4.52401 4.37048 4.8516C4.02593 5.17919 3.85366 5.5649 3.85366 6.00873C3.85366 6.45256 4.02593 6.83827 4.37048 7.16586C4.71502 7.49345 5.12069 7.65725 5.58748 7.65725V7.65725Z" fill="#8A44D3"/>
</svg>
