<svg width="24" height="10" viewBox="0 0 24 10" fill="none" xmlns="http://www.w3.org/2000/svg">
<path d="M5.02603 9.61566C5.31584 9.90548 5.78572 9.90548 6.07554 9.61566L10.7983 4.89287C11.0881 4.60306 11.0881 4.13318 10.7983 3.84336C10.5085 3.55355 10.0386 3.55355 9.74882 3.84336L5.55078 8.0414L1.35274 3.84336C1.06293 3.55355 0.59305 3.55355 0.303236 3.84336C0.0134215 4.13318 0.0134215 4.60306 0.303236 4.89287L5.02603 9.61566ZM4.80867 0L4.80867 9.09091H6.2929L6.2929 0L4.80867 0Z" fill="white"/>
<path d="M18.8495 0.384336C18.5596 0.0945225 18.0898 0.0945225 17.8 0.384336L13.0772 5.10713C12.7873 5.39694 12.7873 5.86682 13.0772 6.15664C13.367 6.44645 13.8369 6.44645 14.1267 6.15664L18.3247 1.9586L22.5227 6.15664C22.8126 6.44645 23.2824 6.44645 23.5723 6.15664C23.8621 5.86682 23.8621 5.39694 23.5723 5.10713L18.8495 0.384336ZM19.0668 10L19.0668 0.909091L17.5826 0.909091L17.5826 10L19.0668 10Z" fill="white"/>
</svg>
