<svg width="23" height="24" viewBox="0 0 23 24" fill="none" xmlns="http://www.w3.org/2000/svg">
<path fill-rule="evenodd" clip-rule="evenodd" d="M10.5111 4.33396C6.81696 4.33396 3.82224 7.32868 3.82224 11.0229C3.82224 14.717 6.81696 17.7117 10.5111 17.7117C14.2053 17.7117 17.2 14.717 17.2 11.0229C17.2 7.32868 14.2053 4.33396 10.5111 4.33396ZM1.91113 11.0229C1.91113 6.2732 5.76148 2.42285 10.5111 2.42285C15.2608 2.42285 19.1111 6.2732 19.1111 11.0229C19.1111 15.7725 15.2608 19.6229 10.5111 19.6229C5.76148 19.6229 1.91113 15.7725 1.91113 11.0229Z" fill="white"/>
<path fill-rule="evenodd" clip-rule="evenodd" d="M15.235 15.7467C15.6081 15.3735 16.2131 15.3735 16.5863 15.7467L20.743 19.9033C21.1161 20.2765 21.1161 20.8815 20.743 21.2547C20.3698 21.6279 19.7648 21.6279 19.3916 21.2547L15.235 17.098C14.8618 16.7249 14.8618 16.1198 15.235 15.7467Z" fill="white"/>
</svg>
