<svg width="16" height="17" viewBox="0 0 16 17" fill="none" xmlns="http://www.w3.org/2000/svg">
<g clip-path="url(#clip0_243_1192)">
<path d="M12.021 11.1844C11.5255 11.1844 11.0821 11.3806 10.7431 11.6881L6.09444 8.97353C6.12703 8.82309 6.15311 8.67264 6.15311 8.51566C6.15311 8.35867 6.12703 8.20823 6.09444 8.05779L10.6909 5.36941C11.043 5.69647 11.5059 5.89924 12.021 5.89924C13.1033 5.89924 13.9769 5.02274 13.9769 3.93692C13.9769 2.85111 13.1033 1.97461 12.021 1.97461C10.9387 1.97461 10.065 2.85111 10.065 3.93692C10.065 4.09391 10.0911 4.24435 10.1237 4.3948L5.52721 7.08317C5.17514 6.75612 4.71223 6.55334 4.19716 6.55334C3.11487 6.55334 2.24121 7.42985 2.24121 8.51566C2.24121 9.60147 3.11487 10.478 4.19716 10.478C4.71223 10.478 5.17514 10.2752 5.52721 9.94815L10.1693 12.6692C10.1367 12.8066 10.1172 12.9505 10.1172 13.0944C10.1172 14.1475 10.9713 15.0044 12.021 15.0044C13.0707 15.0044 13.9248 14.1475 13.9248 13.0944C13.9248 12.0413 13.0707 11.1844 12.021 11.1844ZM12.021 3.28282C12.3796 3.28282 12.673 3.57717 12.673 3.93692C12.673 4.29668 12.3796 4.59103 12.021 4.59103C11.6624 4.59103 11.369 4.29668 11.369 3.93692C11.369 3.57717 11.6624 3.28282 12.021 3.28282ZM4.19716 9.16976C3.83857 9.16976 3.54518 8.87542 3.54518 8.51566C3.54518 8.1559 3.83857 7.86155 4.19716 7.86155C4.55575 7.86155 4.84915 8.1559 4.84915 8.51566C4.84915 8.87542 4.55575 9.16976 4.19716 9.16976ZM12.021 13.7616C11.6624 13.7616 11.369 13.4672 11.369 13.1075C11.369 12.7477 11.6624 12.4534 12.021 12.4534C12.3796 12.4534 12.673 12.7477 12.673 13.1075C12.673 13.4672 12.3796 13.7616 12.021 13.7616Z" fill="#894ae0"/>
</g>
<defs>
<clipPath id="clip0_243_1192">
<rect width="15.6476" height="15.6985" fill="white" transform="translate(0.285156 0.666016)"/>
</clipPath>
</defs>
</svg>
