<svg width="43" height="54" viewBox="0 0 43 54" fill="none" xmlns="http://www.w3.org/2000/svg">
<path d="M21.3037 36.2C25.1721 32.6 27.6605 30.0778 28.7688 28.6333C29.8772 27.1889 30.4314 25.7333 30.4314 24.2667C30.4314 22.8444 29.9424 21.6333 28.9644 20.6333C27.9865 19.6333 26.802 19.1333 25.4112 19.1333C24.5853 19.1333 23.8138 19.3 23.0966 19.6333C22.3795 19.9667 21.7818 20.4222 21.3037 21C20.8256 20.4222 20.2279 19.9667 19.5108 19.6333C18.7936 19.3 18.0221 19.1333 17.1962 19.1333C15.8054 19.1333 14.6209 19.6333 13.643 20.6333C12.665 21.6333 12.176 22.8444 12.176 24.2667C12.176 24.9778 12.2738 25.6556 12.4694 26.3C12.665 26.9444 13.0888 27.6889 13.7408 28.5333C14.3927 29.3778 15.3164 30.4 16.5117 31.6C17.707 32.8 19.3043 34.3333 21.3037 36.2ZM21.3037 53.3333C15.2186 51.7778 10.2201 48.1667 6.30823 42.5C2.39636 36.8333 0.44043 30.6222 0.44043 23.8667V8L21.3037 0L42.167 8V23.8667C42.167 30.6222 40.2111 36.8333 36.2992 42.5C32.3873 48.1667 27.3888 51.7778 21.3037 53.3333ZM21.3037 49.2C26.3022 47.5111 30.3771 44.3222 33.5283 39.6333C36.6795 34.9444 38.2551 29.6889 38.2551 23.8667V10.8L21.3037 4.26667L4.35229 10.8V23.8667C4.35229 29.6889 5.92791 34.9444 9.07913 39.6333C12.2304 44.3222 16.3052 47.5111 21.3037 49.2Z" fill="#4BB747"/>
</svg>
