<svg width="59" height="75" viewBox="0 0 59 75" fill="none" xmlns="http://www.w3.org/2000/svg">
<path d="M29.339 50.9062C34.7789 45.8438 38.2782 42.2969 39.8368 40.2656C41.3955 38.2344 42.1748 36.1875 42.1748 34.125C42.1748 32.125 41.4872 30.4219 40.1119 29.0156C38.7366 27.6094 37.071 26.9062 35.1151 26.9062C33.9538 26.9062 32.8688 27.1406 31.8603 27.6094C30.8518 28.0781 30.0113 28.7188 29.339 29.5313C28.6666 28.7188 27.8262 28.0781 26.8177 27.6094C25.8091 27.1406 24.7242 26.9062 23.5629 26.9062C21.6069 26.9062 19.9413 27.6094 18.5661 29.0156C17.1908 30.4219 16.5032 32.125 16.5032 34.125C16.5032 35.125 16.6407 36.0781 16.9158 36.9844C17.1908 37.8906 17.7868 38.9375 18.7036 40.125C19.6204 41.3125 20.9193 42.75 22.6002 44.4375C24.2811 46.125 26.5273 48.2812 29.339 50.9062ZM29.339 75C20.7818 72.8125 13.7526 67.7344 8.25159 59.7656C2.75053 51.7969 0 43.0625 0 33.5625V11.25L29.339 0L58.678 11.25V33.5625C58.678 43.0625 55.9274 51.7969 50.4264 59.7656C44.9253 67.7344 37.8962 72.8125 29.339 75ZM29.339 69.1875C36.3681 66.8125 42.0984 62.3281 46.5298 55.7344C50.9612 49.1406 53.1769 41.75 53.1769 33.5625V15.1875L29.339 6L5.50106 15.1875V33.5625C5.50106 41.75 7.71676 49.1406 12.1482 55.7344C16.5796 62.3281 22.3099 66.8125 29.339 69.1875Z" fill="#894AE0"/>
</svg>
