<svg width="40" height="39" viewBox="0 0 40 39" fill="none" xmlns="http://www.w3.org/2000/svg">
<path d="M19.9222 25.0939C22.2837 22.9446 23.8028 21.4387 24.4795 20.5764C25.1561 19.714 25.4944 18.845 25.4944 17.9693C25.4944 17.1202 25.1959 16.3972 24.5989 15.8001C24.0019 15.2031 23.2788 14.9046 22.4297 14.9046C21.9255 14.9046 21.4545 15.0041 21.0167 15.2031C20.5789 15.4021 20.214 15.6741 19.9222 16.019C19.6303 15.6741 19.2654 15.4021 18.8276 15.2031C18.3898 15.0041 17.9188 14.9046 17.4146 14.9046C16.5655 14.9046 15.8425 15.2031 15.2454 15.8001C14.6484 16.3972 14.3499 17.1202 14.3499 17.9693C14.3499 18.3939 14.4096 18.7985 14.529 19.1833C14.6484 19.568 14.9071 20.0125 15.3051 20.5167C15.7032 21.0208 16.267 21.6311 16.9967 22.3475C17.7264 23.064 18.7016 23.9794 19.9222 25.0939ZM19.9222 35.323C16.2073 34.3943 13.1558 32.2383 10.7677 28.8552C8.3796 25.472 7.18555 21.7638 7.18555 17.7305V8.25767L19.9222 3.48145L32.6588 8.25767V17.7305C32.6588 21.7638 31.4647 25.472 29.0766 28.8552C26.6885 32.2383 23.637 34.3943 19.9222 35.323ZM19.9222 32.8553C22.9736 31.8469 25.4613 29.9431 27.385 27.1437C29.3088 24.3443 30.2707 21.2066 30.2707 17.7305V9.92936L19.9222 6.02877L9.57366 9.92936V17.7305C9.57366 21.2066 10.5355 24.3443 12.4593 27.1437C14.3831 29.9431 16.8707 31.8469 19.9222 32.8553Z" fill="#8A44D3"/>
</svg>
