<svg width="28" height="28" viewBox="0 0 28 28" fill="none" xmlns="http://www.w3.org/2000/svg">
<g clip-path="url(#clip0_289_2267)">
<path d="M21.8428 10.8513L23.2569 7.74032L26.3679 6.32623L23.2569 4.91214L21.8428 1.80115L20.4288 4.91214L17.3178 6.32623L20.4288 7.74032L21.8428 10.8513ZM13.3583 11.4169L10.5301 5.19496L7.70197 11.4169L1.47998 14.2451L7.70197 17.0733L10.5301 23.2953L13.3583 17.0733L19.5803 14.2451L13.3583 11.4169ZM21.8428 17.6389L20.4288 20.7499L17.3178 22.164L20.4288 23.5781L21.8428 26.6891L23.2569 23.5781L26.3679 22.164L23.2569 20.7499L21.8428 17.6389Z" fill="#9FA4A6"/>
</g>
<defs>
<clipPath id="clip0_289_2267">
<rect width="27.1505" height="27.1505" fill="white" transform="translate(0.348633 0.669922)"/>
</clipPath>
</defs>
</svg>
