<svg width="11" height="11" viewBox="0 0 11 11" fill="none" xmlns="http://www.w3.org/2000/svg">
<path d="M9.54611 3.35604C9.55201 3.44352 9.55201 3.531 9.55201 3.61929C9.55201 6.30953 7.55501 9.4122 3.90341 9.4122V9.41058C2.82472 9.4122 1.76843 9.09532 0.860352 8.49785C1.0172 8.5172 1.17484 8.52687 1.33287 8.52728C2.2268 8.52808 3.09518 8.22048 3.79845 7.65405C2.94894 7.63752 2.204 7.06948 1.94376 6.24019C2.24135 6.29905 2.54797 6.28696 2.84005 6.20512C1.91389 6.01322 1.24756 5.17869 1.24756 4.20951C1.24756 4.20064 1.24756 4.19217 1.24756 4.18371C1.52353 4.34134 1.83251 4.42883 2.14857 4.4385C1.27626 3.84063 1.00737 2.65052 1.53414 1.72004C2.54207 2.99199 4.02921 3.76524 5.62563 3.84708C5.46563 3.13995 5.6842 2.39895 6.19996 1.90186C6.99955 1.13104 8.2571 1.17055 9.00873 1.99015C9.45334 1.90025 9.87947 1.73294 10.2694 1.49589C10.1212 1.96717 9.81107 2.36751 9.39673 2.6219C9.79023 2.57432 10.1747 2.46628 10.5367 2.30139C10.2702 2.71099 9.9345 3.06778 9.54611 3.35604Z" fill="#894AE0"/>
</svg>
