<svg width="75" height="75" viewBox="0 0 75 75" fill="none" xmlns="http://www.w3.org/2000/svg">
<path d="M26.0795 75L19.6023 63.3929L6.73295 60.625L8.18182 47.5L0 37.5L8.18182 27.5893L6.73295 14.4643L19.6023 11.6964L26.0795 0L37.5 5.53571L48.9205 0L55.483 11.6964L68.267 14.4643L66.8182 27.5893L75 37.5L66.8182 47.5L68.267 60.625L55.483 63.3929L48.9205 75L37.5 69.4643L26.0795 75ZM28.3807 67.9464L37.5 63.9286L46.875 67.9464L52.5852 59.0179L62.5568 56.3393L61.5341 45.7143L68.4375 37.5L61.5341 29.1071L62.5568 18.4821L52.5852 15.9821L46.7045 7.05357L37.5 11.0714L28.125 7.05357L22.4148 15.9821L12.4432 18.4821L13.4659 29.1071L6.5625 37.5L13.4659 45.7143L12.4432 56.5179L22.4148 59.0179L28.3807 67.9464ZM33.8352 49.375L53.1818 29.2857L49.3466 25.625L33.8352 41.6964L25.7386 32.8571L21.8182 36.875L33.8352 49.375Z" fill="#894AE0"/>
</svg>
