<svg width="33" height="33" viewBox="0 0 33 33" fill="none" xmlns="http://www.w3.org/2000/svg">
<path d="M11.7449 30.2911L9.21082 25.9565L4.17607 24.9229L4.7429 20.0215L1.54199 16.2872L4.7429 12.5861L4.17607 7.68473L9.21082 6.6511L11.7449 2.2832L16.2128 4.35045L20.6807 2.2832L23.2481 6.6511L28.2495 7.68473L27.6827 12.5861L30.8836 16.2872L27.6827 20.0215L28.2495 24.9229L23.2481 25.9565L20.6807 30.2911L16.2128 28.2239L11.7449 30.2911ZM12.6451 27.657L16.2128 26.1566L19.8805 27.657L22.1145 24.3228L26.0156 23.3225L25.6154 19.3547L28.3162 16.2872L25.6154 13.1529L26.0156 9.18515L22.1145 8.25155L19.8138 4.91728L16.2128 6.4177L12.5451 4.91728L10.3111 8.25155L6.41003 9.18515L6.81014 13.1529L4.10938 16.2872L6.81014 19.3547L6.41003 23.3892L10.3111 24.3228L12.6451 27.657ZM14.7791 20.7217L22.3479 13.2196L20.8474 11.8526L14.7791 17.8543L11.6115 14.5533L10.0777 16.0538L14.7791 20.7217Z" fill="#8A44D3"/>
</svg>
