<svg width="48" height="48" viewBox="0 0 48 48" fill="none" xmlns="http://www.w3.org/2000/svg">
<path d="M24 42C21.8 42 19.7167 41.6167 17.75 40.85C15.7833 40.0833 14 39.0333 12.4 37.7L8.5 41.6L6.4 39.5L10.3 35.6C8.96667 34 7.91667 32.2167 7.15 30.25C6.38333 28.2833 6 26.2 6 24C6 19 7.75833 14.75 11.275 11.25C14.7917 7.75 19.0333 6 24 6H42V24C42 28.9667 40.25 33.2083 36.75 36.725C33.25 40.2417 29 42 24 42ZM21.35 33.75L31.7 24.5C32.0333 24.2 32.1333 23.8417 32 23.425C31.8667 23.0083 31.5667 22.7667 31.1 22.7L23 21.9L27.85 15.25C27.9833 15.0833 28.0417 14.9083 28.025 14.725C28.0083 14.5417 27.9333 14.3667 27.8 14.2C27.6333 14.0333 27.4417 13.95 27.225 13.95C27.0083 13.95 26.8167 14.0333 26.65 14.2L16.35 23.45C16.0167 23.75 15.9167 24.1083 16.05 24.525C16.1833 24.9417 16.4833 25.1833 16.95 25.25L25.05 26.05L20.15 32.7C20.05 32.8667 20 33.0417 20 33.225C20 33.4083 20.0833 33.5833 20.25 33.75C20.4167 33.9167 20.6 34 20.8 34C21 34 21.1833 33.9167 21.35 33.75Z" fill="#4BB747"/>
</svg>
