<svg width="282" height="200" viewBox="0 0 282 200" fill="none" xmlns="http://www.w3.org/2000/svg">
<path d="M261 169.152H21V169.272H261V169.152Z" fill="#EBEBEB"/>
<path d="M56.3615 173.722H46.1807V173.842H56.3615V173.722Z" fill="#EBEBEB"/>
<path d="M143.933 172.421H103.147V172.541H143.933V172.421Z" fill="#EBEBEB"/>
<path d="M71.7742 178.181H53.4814V178.301H71.7742V178.181Z" fill="#EBEBEB"/>
<path d="M236.952 177.374H216.221V177.494H236.952V177.374Z" fill="#EBEBEB"/>
<path d="M214.651 177.374H208.906V177.494H214.651V177.374Z" fill="#EBEBEB"/>
<path d="M199.027 175.349H187.987V175.469H199.027V175.349Z" fill="#EBEBEB"/>
<path d="M182.438 175.349H159.187V175.469H182.438V175.349Z" fill="#EBEBEB"/>
<path d="M134.76 147.744H42.0768C41.3507 147.743 40.6548 147.453 40.1419 146.94C39.6289 146.426 39.3408 145.729 39.3408 145.003V14.7168C39.3471 13.9949 39.638 13.3046 40.1503 12.7959C40.6626 12.2873 41.3549 12.0012 42.0768 12H134.76C135.487 12 136.184 12.2888 136.698 12.8028C137.212 13.3168 137.501 14.0139 137.501 14.7408V145.003C137.501 145.73 137.212 146.427 136.698 146.941C136.184 147.455 135.487 147.744 134.76 147.744V147.744ZM42.0768 12.096C41.3826 12.0973 40.7172 12.374 40.2267 12.8653C39.7363 13.3567 39.4608 14.0226 39.4608 14.7168V145.003C39.4608 145.697 39.7363 146.363 40.2267 146.855C40.7172 147.346 41.3826 147.623 42.0768 147.624H134.76C135.455 147.623 136.121 147.346 136.612 146.855C137.103 146.364 137.38 145.698 137.381 145.003V14.7168C137.38 14.0221 137.103 13.3562 136.612 12.865C136.121 12.3738 135.455 12.0973 134.76 12.096H42.0768Z" fill="#EBEBEB"/>
<path d="M238.589 147.744H145.901C145.174 147.743 144.478 147.454 143.964 146.94C143.451 146.426 143.161 145.73 143.16 145.003V14.7168C143.168 13.9945 143.46 13.3042 143.973 12.7956C144.486 12.2871 145.179 12.0012 145.901 12H238.589C239.31 12.0025 240.001 12.2891 240.512 12.7976C241.024 13.3062 241.314 13.9957 241.32 14.7168V145.003C241.32 145.728 241.033 146.424 240.521 146.938C240.009 147.452 239.314 147.741 238.589 147.744V147.744ZM145.901 12.096C145.206 12.0973 144.54 12.3738 144.049 12.865C143.558 13.3562 143.281 14.0221 143.28 14.7168V145.003C143.281 145.698 143.558 146.364 144.049 146.855C144.54 147.346 145.206 147.623 145.901 147.624H238.589C239.284 147.623 239.95 147.346 240.441 146.855C240.932 146.364 241.208 145.698 241.21 145.003V14.7168C241.208 14.0221 240.932 13.3562 240.441 12.865C239.95 12.3738 239.284 12.0973 238.589 12.096H145.901Z" fill="#EBEBEB"/>
<g opacity="0.6">
<path d="M190.109 89.0539L193.666 85.4971C196.66 88.4946 198.583 92.3959 199.136 96.5968C199.689 100.798 198.842 105.064 196.725 108.734C194.608 112.405 191.34 115.275 187.427 116.9C183.514 118.525 179.174 118.815 175.08 117.724L176.381 112.867C179.408 113.68 182.619 113.471 185.515 112.273C188.411 111.075 190.831 108.954 192.399 106.24C193.966 103.525 194.594 100.37 194.184 97.262C193.774 94.1545 192.35 91.2692 190.133 89.0539H190.109Z" fill="#EBEBEB"/>
<path d="M166.44 85.498C170.055 81.8892 174.954 79.8623 180.062 79.8623C185.17 79.8623 190.07 81.8892 193.685 85.498L190.128 89.0548C187.458 86.3857 183.838 84.8863 180.062 84.8863C176.287 84.8863 172.667 86.3857 169.997 89.0548L166.44 85.498Z" fill="#F5F5F5"/>
<path d="M166.44 85.4971L169.997 89.0539C168.675 90.3755 167.626 91.9447 166.91 93.6718C166.195 95.3989 165.826 97.25 165.826 99.1195C165.826 100.989 166.195 102.84 166.91 104.567C167.626 106.294 168.675 107.863 169.997 109.185C171.759 110.957 173.96 112.228 176.376 112.867L175.08 117.724C171.814 116.849 168.837 115.129 166.446 112.738C164.055 110.347 162.336 107.37 161.46 104.104C160.585 100.838 160.584 97.3996 161.458 94.1336C162.332 90.8675 164.05 87.8889 166.44 85.4971V85.4971Z" fill="#E0E0E0"/>
<path d="M205.925 71.2556V78.8012C199.557 78.8018 193.367 76.701 188.315 72.8248C183.262 68.9485 179.631 63.5134 177.983 57.3625C176.335 51.2116 176.762 44.6888 179.2 38.8058C181.637 32.9228 185.947 28.0085 191.462 24.8252L195.24 31.3628C191.161 33.7136 187.973 37.3451 186.17 41.6935C184.367 46.0419 184.049 50.864 185.267 55.4112C186.485 59.9583 189.17 63.9763 192.905 66.8413C196.641 69.7062 201.217 71.258 205.925 71.2556V71.2556Z" fill="#EBEBEB"/>
<path d="M234.85 49.877C234.847 57.5475 231.799 64.9032 226.375 70.3271C220.951 75.751 213.595 78.7992 205.925 78.8017V71.2561C211.595 71.2549 217.032 69.002 221.041 64.9929C225.05 60.9838 227.303 55.5467 227.304 49.877H234.85Z" fill="#F5F5F5"/>
<path d="M234.85 49.8767H227.304C227.305 46.1242 226.318 42.4375 224.442 39.1875C222.566 35.9374 219.867 33.2385 216.617 31.3621C213.368 29.4857 209.681 28.4979 205.929 28.4981C202.176 28.4983 198.49 29.4864 195.24 31.3631L191.467 24.8255C195.864 22.288 200.852 20.9524 205.929 20.9531C211.006 20.9538 215.993 22.2907 220.389 24.8294C224.786 27.3681 228.436 31.0193 230.975 35.416C233.513 39.8126 234.849 44.7999 234.85 49.8767Z" fill="#E0E0E0"/>
</g>
<g opacity="0.5">
<path d="M155.847 169.146H168.672V142.05H155.847V169.146Z" fill="#F5F5F5"/>
<path d="M140.405 169.151H153.23V150.23H140.405V169.151Z" fill="#E6E6E6"/>
<path d="M124.963 169.146H137.789V157.19H124.963V169.146Z" fill="#F0F0F0"/>
<path d="M203.962 169.151H216.788V150.23H203.962V169.151Z" fill="#F5F5F5"/>
<path d="M188.525 169.151H201.351V154.415H188.525V169.151Z" fill="#E6E6E6"/>
<path d="M173.079 169.151H185.904V137.409H173.079V169.151Z" fill="#F0F0F0"/>
<path d="M107.732 169.151H120.557V139.535H107.732V169.151Z" fill="#F5F5F5"/>
<path d="M92.2896 169.151H105.115V150.23H92.2896V169.151Z" fill="#E6E6E6"/>
<path d="M76.8482 169.151H89.6738V144.249H76.8482V169.151Z" fill="#F0F0F0"/>
</g>
<g opacity="0.6">
<path d="M47.9326 23.7405C47.9364 22.8747 48.282 22.0455 48.8942 21.4333C49.5064 20.8211 50.3356 20.4755 51.2014 20.4717H153.086C153.953 20.4742 154.783 20.8193 155.397 21.4316C156.01 22.0439 156.356 22.8739 156.36 23.7405V34.2717H47.9326V23.7405Z" fill="#F0F0F0"/>
<path d="M74.376 30.0859C73.839 30.0859 73.3142 29.9268 72.8676 29.6287C72.421 29.3306 72.0728 28.9069 71.8669 28.411C71.661 27.9152 71.6066 27.3694 71.7107 26.8426C71.8147 26.3159 72.0725 25.8318 72.4515 25.4515C72.8305 25.0711 73.3137 24.8116 73.8401 24.7057C74.3665 24.5998 74.9124 24.6522 75.409 24.8564C75.9056 25.0606 76.3306 25.4073 76.6302 25.8528C76.9299 26.2983 77.0909 26.8226 77.0928 27.3595C77.0934 27.7169 77.0236 28.071 76.8874 28.4014C76.7512 28.7319 76.5513 29.0322 76.299 29.2854C76.0467 29.5386 75.7471 29.7396 75.4171 29.8769C75.0872 30.0143 74.7334 30.0853 74.376 30.0859V30.0859ZM74.376 25.1371C73.933 25.1372 73.4999 25.2687 73.1318 25.5151C72.7636 25.7616 72.477 26.1118 72.3081 26.5213C72.1392 26.9309 72.0958 27.3814 72.1833 27.8156C72.2707 28.2499 72.4852 28.6485 72.7995 28.9607C73.1137 29.2729 73.5136 29.4848 73.9485 29.5695C74.3833 29.6542 74.8335 29.6078 75.242 29.4363C75.6504 29.2648 75.9988 28.9759 76.2428 28.6061C76.4869 28.2364 76.6156 27.8025 76.6128 27.3595C76.609 26.7688 76.3716 26.2036 75.9526 25.7872C75.5335 25.3708 74.9667 25.1371 74.376 25.1371V25.1371Z" fill="white"/>
<path d="M65.6401 30.0858C65.102 30.0915 64.5743 29.9373 64.124 29.6426C63.6736 29.348 63.321 28.9263 63.1106 28.431C62.9003 27.9356 62.8418 27.389 62.9426 26.8604C63.0434 26.3317 63.2989 25.845 63.6767 25.4618C64.0545 25.0785 64.5376 24.8162 65.0648 24.7079C65.5919 24.5996 66.1393 24.6504 66.6376 24.8536C67.1359 25.0569 67.5625 25.4036 67.8635 25.8497C68.1645 26.2958 68.3262 26.8213 68.3281 27.3594C68.3307 28.0766 68.0495 28.7658 67.546 29.2765C67.0424 29.7873 66.3573 30.0782 65.6401 30.0858V30.0858ZM65.6401 25.137C65.1959 25.1313 64.7601 25.258 64.3882 25.5009C64.0162 25.7438 63.7251 26.092 63.5518 26.501C63.3785 26.91 63.3309 27.3614 63.4151 27.7976C63.4993 28.2338 63.7115 28.635 64.0246 28.9501C64.3377 29.2652 64.7375 29.48 65.1731 29.5671C65.6087 29.6541 66.0604 29.6094 66.4706 29.4388C66.8807 29.2682 67.2308 28.9793 67.4761 28.6089C67.7214 28.2386 67.8509 27.8036 67.8481 27.3594C67.8456 26.7732 67.6127 26.2116 67.1995 25.7957C66.7864 25.3799 66.2262 25.1433 65.6401 25.137V25.137Z" fill="white"/>
<path d="M56.851 30.0859C56.3139 30.0869 55.7885 29.9286 55.3413 29.6311C54.8941 29.3335 54.5451 28.9101 54.3385 28.4143C54.1319 27.9186 54.0768 27.3726 54.1803 26.8456C54.2838 26.3185 54.5412 25.834 54.92 25.4532C55.2988 25.0724 55.782 24.8124 56.3085 24.7061C56.835 24.5998 57.3812 24.6519 57.8781 24.8559C58.375 25.06 58.8002 25.4067 59.1001 25.8523C59.4 26.2979 59.5611 26.8224 59.563 27.3595C59.5643 28.0805 59.2794 28.7726 58.7709 29.2837C58.2625 29.7949 57.572 30.0834 56.851 30.0859V30.0859ZM56.851 25.1371C56.4078 25.1362 55.9743 25.2669 55.6055 25.5128C55.2367 25.7586 54.9493 26.1085 54.7797 26.518C54.6101 26.9275 54.5659 27.3781 54.6529 27.8127C54.7398 28.2473 54.9539 28.6463 55.268 28.959C55.5821 29.2717 55.982 29.4841 56.4169 29.5692C56.8519 29.6542 57.3023 29.6081 57.7111 29.4368C58.1198 29.2654 58.4684 28.9765 58.7127 28.6066C58.957 28.2368 59.0858 27.8027 59.083 27.3595C59.0792 26.7696 58.8425 26.2051 58.4245 25.7889C58.0064 25.3726 57.4409 25.1384 56.851 25.1371V25.1371Z" fill="white"/>
<path d="M153.086 105.177H51.2014C50.3356 105.173 49.5064 104.828 48.8942 104.215C48.282 103.603 47.9364 102.774 47.9326 101.908V34.2715H156.36V101.908C156.356 102.775 156.01 103.605 155.397 104.217C154.783 104.83 153.953 105.175 153.086 105.177V105.177Z" fill="#E0E0E0"/>
<path d="M64.478 49.1037C64.4793 48.2367 64.8239 47.4055 65.4365 46.792C66.0492 46.1785 66.8798 45.8326 67.7468 45.8301H169.632C170.498 45.8339 171.328 46.1801 171.941 46.7934C172.553 47.4066 172.898 48.2371 172.9 49.1037V59.6301H64.478V49.1037Z" fill="#F5F5F5"/>
<path d="M90.9213 55.4443C90.3836 55.4453 89.8576 55.2866 89.4101 54.9885C88.9626 54.6903 88.6137 54.2661 88.4074 53.7694C88.2012 53.2728 88.147 52.7262 88.2517 52.1987C88.3564 51.6712 88.6152 51.1867 88.9954 50.8065C89.3757 50.4262 89.8602 50.1674 90.3877 50.0627C90.9151 49.958 91.4618 50.0122 91.9584 50.2185C92.455 50.4247 92.8793 50.7737 93.1774 51.2212C93.4756 51.6687 93.6343 52.1946 93.6333 52.7323C93.632 53.4512 93.3459 54.1403 92.8376 54.6486C92.3293 55.1569 91.6402 55.4431 90.9213 55.4443V55.4443ZM90.9213 50.4955C90.4787 50.4946 90.0458 50.625 89.6773 50.8702C89.3088 51.1154 89.0214 51.4644 88.8514 51.873C88.6813 52.2817 88.6363 52.7316 88.7221 53.1658C88.8079 53.6 89.0205 53.999 89.3331 54.3123C89.6458 54.6256 90.0443 54.8391 90.4784 54.9258C90.9124 55.0125 91.3624 54.9685 91.7714 54.7993C92.1804 54.6302 92.53 54.3435 92.776 53.9755C93.022 53.6076 93.1533 53.1749 93.1533 52.7323C93.1533 52.1399 92.9183 51.5717 92.4999 51.1524C92.0814 50.733 91.5137 50.4968 90.9213 50.4955V50.4955Z" fill="#E6E6E6"/>
<path d="M82.1567 55.4443C81.6189 55.4453 81.093 55.2866 80.6455 54.9885C80.198 54.6903 79.849 54.2661 79.6428 53.7694C79.4366 53.2728 79.3824 52.7262 79.487 52.1987C79.5917 51.6712 79.8506 51.1867 80.2308 50.8065C80.611 50.4262 81.0956 50.1674 81.623 50.0627C82.1505 49.958 82.6971 50.0122 83.1938 50.2185C83.6904 50.4247 84.1146 50.7737 84.4128 51.2212C84.711 51.6687 84.8696 52.1946 84.8687 52.7323C84.8674 53.4512 84.5813 54.1403 84.0729 54.6486C83.5646 55.1569 82.8755 55.4431 82.1567 55.4443V55.4443ZM82.1567 50.4955C81.7141 50.4946 81.2811 50.625 80.9127 50.8702C80.5442 51.1154 80.2567 51.4644 80.0867 51.873C79.9167 52.2817 79.8717 52.7316 79.9575 53.1658C80.0432 53.6 80.2559 53.999 80.5685 54.3123C80.8811 54.6256 81.2797 54.8391 81.7137 54.9258C82.1477 55.0125 82.5977 54.9685 83.0067 54.7993C83.4157 54.6302 83.7654 54.3435 84.0113 53.9755C84.2573 53.6076 84.3887 53.1749 84.3887 52.7323C84.3887 52.1399 84.1537 51.5717 83.7352 51.1524C83.3168 50.733 82.7491 50.4968 82.1567 50.4955V50.4955Z" fill="#E6E6E6"/>
<path d="M73.3964 55.4443C72.8587 55.4453 72.3327 55.2866 71.8852 54.9885C71.4377 54.6903 71.0888 54.2661 70.8825 53.7694C70.6763 53.2728 70.6221 52.7262 70.7268 52.1987C70.8314 51.6712 71.0903 51.1867 71.4705 50.8065C71.8508 50.4262 72.3353 50.1674 72.8628 50.0627C73.3902 49.958 73.9369 50.0122 74.4335 50.2185C74.9301 50.4247 75.3544 50.7737 75.6525 51.2212C75.9507 51.6687 76.1094 52.1946 76.1084 52.7323C76.1059 53.4508 75.8193 54.1392 75.3113 54.6472C74.8032 55.1553 74.1149 55.4418 73.3964 55.4443ZM73.3964 50.4955C72.9538 50.4946 72.5209 50.625 72.1524 50.8702C71.7839 51.1154 71.4965 51.4644 71.3264 51.873C71.1564 52.2817 71.1114 52.7316 71.1972 53.1658C71.283 53.6 71.4956 53.999 71.8082 54.3123C72.1209 54.6256 72.5194 54.8391 72.9535 54.9258C73.3875 55.0125 73.8375 54.9685 74.2465 54.7993C74.6555 54.6302 75.0051 54.3435 75.2511 53.9755C75.4971 53.6076 75.6284 53.1749 75.6284 52.7323C75.6284 52.1399 75.3934 51.5717 74.975 51.1524C74.5565 50.733 73.9888 50.4968 73.3964 50.4955V50.4955Z" fill="#E6E6E6"/>
<path d="M169.632 130.559H67.7468C66.8803 130.558 66.0496 130.213 65.4368 129.601C64.8241 128.988 64.4793 128.157 64.478 127.291V59.6299H172.9V127.267C172.902 127.698 172.819 128.125 172.656 128.523C172.493 128.922 172.252 129.285 171.949 129.591C171.645 129.897 171.284 130.14 170.887 130.306C170.489 130.472 170.063 130.558 169.632 130.559Z" fill="#E6E6E6"/>
</g>
<path d="M141 190.829C192.399 190.829 234.067 188.396 234.067 185.396C234.067 182.395 192.399 179.962 141 179.962C89.6002 179.962 47.9326 182.395 47.9326 185.396C47.9326 188.396 89.6002 190.829 141 190.829Z" fill="#F5F5F5"/>
<path d="M148.929 64.0127C149.09 64.0143 149.25 63.9828 149.398 63.9201C149.547 63.8574 149.681 63.7649 149.792 63.6484C149.903 63.5318 149.989 63.3937 150.045 63.2425C150.1 63.0913 150.124 62.9303 150.115 62.7695L149.76 55.6799C149.74 55.3453 149.595 55.0305 149.353 54.7989C149.11 54.5674 148.789 54.4362 148.454 54.4319H147.494L146.625 36.7919C146.513 34.9099 145.694 33.1397 144.332 31.8358C142.971 30.5319 141.167 29.7905 139.281 29.7599H84.0382C83.131 29.7538 82.2321 29.9338 81.3972 30.2889C80.5623 30.644 79.8092 31.1666 79.1843 31.8243C78.5594 32.482 78.076 33.261 77.7642 34.1129C77.4523 34.9649 77.3185 35.8718 77.371 36.7775L78.2446 54.4991C77.9936 54.5905 77.7787 54.7603 77.6317 54.9833C77.4847 55.2064 77.4135 55.4708 77.4286 55.7375L78.2686 72.7439C78.2877 73.0223 78.3892 73.2887 78.5602 73.5092C78.7311 73.7297 78.9638 73.8944 79.2286 73.9823L82.9198 149.03C83.0359 150.913 83.8591 152.682 85.2246 153.984C86.59 155.285 88.3969 156.022 90.283 156.048H145.521C146.429 156.054 147.327 155.874 148.162 155.519C148.997 155.164 149.75 154.641 150.375 153.984C151 153.326 151.484 152.547 151.795 151.695C152.107 150.843 152.241 149.936 152.189 149.03L148.613 76.6943H149.573C149.734 76.6959 149.893 76.6644 150.042 76.6017C150.19 76.539 150.324 76.4465 150.435 76.33C150.546 76.2134 150.632 76.0753 150.688 75.9241C150.743 75.7729 150.767 75.6119 150.758 75.4511L150.408 68.3471C150.386 68.0138 150.24 67.7008 149.998 67.4704C149.756 67.2401 149.436 67.1092 149.102 67.1039H148.142L147.989 64.0127H148.929Z" fill="#4BB747"/>
<path d="M91.4497 156.048H146.688C147.596 156.054 148.495 155.874 149.33 155.519C150.165 155.164 150.918 154.641 151.544 153.984C152.169 153.326 152.653 152.547 152.965 151.695C153.278 150.843 153.412 149.936 153.36 149.03L147.811 36.7823C147.698 34.8992 146.876 33.1287 145.511 31.8262C144.146 30.5237 142.339 29.7856 140.453 29.7599H85.2097C84.3023 29.7538 83.4032 29.9339 82.5681 30.2889C81.733 30.6439 80.9795 31.1664 80.3542 31.8241C79.729 32.4817 79.2452 33.2606 78.9327 34.1126C78.6203 34.9646 78.4858 35.8715 78.5377 36.7775L84.0865 149.026C84.2014 150.909 85.0241 152.68 86.3897 153.982C87.7553 155.284 89.5628 156.022 91.4497 156.048Z" fill="#4BB747"/>
<path opacity="0.4" d="M91.4497 156.048H146.688C147.596 156.054 148.495 155.874 149.33 155.519C150.165 155.164 150.918 154.641 151.544 153.984C152.169 153.326 152.653 152.547 152.965 151.695C153.278 150.843 153.412 149.936 153.36 149.03L147.811 36.7823C147.698 34.8992 146.876 33.1287 145.511 31.8262C144.146 30.5237 142.339 29.7856 140.453 29.7599H85.2097C84.3023 29.7538 83.4032 29.9339 82.5681 30.2889C81.733 30.6439 80.9795 31.1664 80.3542 31.8241C79.729 32.4817 79.2452 33.2606 78.9327 34.1126C78.6203 34.9646 78.4858 35.8715 78.5377 36.7775L84.0865 149.026C84.2014 150.909 85.0241 152.68 86.3897 153.982C87.7553 155.284 89.5628 156.022 91.4497 156.048Z" fill="#FAFAFA"/>
<path d="M86.9134 146.261H150.273C150.415 146.262 150.555 146.235 150.685 146.18C150.815 146.125 150.933 146.044 151.031 145.942C151.128 145.84 151.204 145.719 151.253 145.586C151.302 145.454 151.323 145.312 151.315 145.171L146.141 40.8817C146.122 40.5887 145.994 40.3135 145.781 40.1113C145.568 39.9092 145.287 39.7951 144.993 39.7921H81.6334C81.4923 39.7905 81.3524 39.818 81.2224 39.8729C81.0924 39.9278 80.9751 40.0089 80.8778 40.1111C80.7805 40.2133 80.7053 40.3345 80.657 40.4671C80.6086 40.5997 80.588 40.7408 80.5966 40.8817L85.747 145.171C85.7654 145.468 85.8965 145.745 86.1134 145.948C86.3304 146.151 86.6166 146.263 86.9134 146.261V146.261Z" fill="white"/>
<path opacity="0.7" d="M119.65 33.0098H106.33C106.218 33.0089 106.107 33.031 106.004 33.0747C105.901 33.1184 105.809 33.1827 105.732 33.2637C105.655 33.3448 105.595 33.4407 105.557 33.5456C105.519 33.6506 105.502 33.7623 105.509 33.8738C105.522 34.1065 105.623 34.3255 105.791 34.4867C105.96 34.6479 106.183 34.7393 106.416 34.7426H119.736C119.848 34.7435 119.959 34.7213 120.062 34.6773C120.166 34.6333 120.259 34.5685 120.336 34.487C120.413 34.4055 120.472 34.3089 120.51 34.2034C120.548 34.0979 120.564 33.9857 120.557 33.8738V33.8738C120.542 33.642 120.441 33.4241 120.273 33.2639C120.104 33.1037 119.882 33.013 119.65 33.0098V33.0098Z" fill="#4BB747"/>
<path opacity="0.6" d="M168.37 124.555H112.987L109.018 44.2227H164.4L168.37 124.555Z" fill="#4BB747"/>
<path d="M161.832 102.59C161.806 102.595 161.78 102.595 161.755 102.59C161.731 102.581 161.709 102.567 161.692 102.547C161.674 102.529 161.659 102.508 161.649 102.484C161.645 102.459 161.645 102.433 161.649 102.408C161.649 102.354 161.671 102.303 161.708 102.265C161.746 102.227 161.797 102.206 161.851 102.206C161.904 102.206 161.956 102.227 161.993 102.265C162.031 102.303 162.052 102.354 162.052 102.408C162.057 102.433 162.057 102.459 162.052 102.484C162.043 102.508 162.028 102.529 162.009 102.547C161.993 102.567 161.971 102.581 161.947 102.59C161.909 102.602 161.869 102.602 161.832 102.59V102.59Z" fill="white"/>
<path d="M162.384 117.6C162.383 117.574 162.387 117.548 162.395 117.523C162.404 117.499 162.417 117.477 162.435 117.458C162.452 117.438 162.473 117.423 162.497 117.412C162.52 117.401 162.545 117.394 162.571 117.393V117.393C162.624 117.39 162.676 117.409 162.715 117.444C162.755 117.479 162.779 117.528 162.782 117.58V117.58C162.784 117.607 162.78 117.633 162.771 117.658C162.762 117.683 162.748 117.706 162.73 117.726C162.712 117.745 162.691 117.761 162.667 117.773C162.643 117.784 162.617 117.79 162.59 117.792C162.538 117.793 162.487 117.773 162.448 117.738C162.41 117.702 162.387 117.652 162.384 117.6V117.6ZM162.307 116.083C162.306 116.056 162.31 116.03 162.319 116.005C162.328 115.98 162.342 115.957 162.359 115.937C162.377 115.918 162.399 115.902 162.423 115.89C162.447 115.879 162.473 115.873 162.499 115.872V115.872C162.526 115.87 162.552 115.874 162.576 115.883C162.601 115.892 162.624 115.906 162.643 115.924C162.662 115.942 162.678 115.963 162.688 115.987C162.699 116.011 162.705 116.037 162.706 116.064V116.064C162.707 116.089 162.703 116.115 162.694 116.14C162.686 116.164 162.672 116.186 162.655 116.206C162.637 116.225 162.616 116.24 162.593 116.251C162.57 116.262 162.544 116.269 162.518 116.27V116.27C162.466 116.273 162.414 116.254 162.375 116.219C162.335 116.184 162.311 116.135 162.307 116.083V116.083ZM162.235 114.561C162.234 114.535 162.238 114.509 162.247 114.485C162.255 114.461 162.269 114.438 162.286 114.419C162.303 114.4 162.324 114.384 162.348 114.373C162.371 114.362 162.397 114.356 162.422 114.355C162.448 114.353 162.475 114.356 162.499 114.365C162.524 114.373 162.547 114.386 162.566 114.404C162.585 114.421 162.601 114.443 162.612 114.466C162.622 114.49 162.628 114.516 162.629 114.542C162.631 114.568 162.627 114.595 162.619 114.619C162.611 114.644 162.597 114.667 162.58 114.687C162.562 114.707 162.541 114.723 162.517 114.734C162.494 114.745 162.468 114.752 162.442 114.753V114.753C162.389 114.754 162.338 114.735 162.299 114.699C162.261 114.663 162.238 114.614 162.235 114.561V114.561ZM162.158 113.04C162.157 112.988 162.176 112.937 162.211 112.899C162.246 112.86 162.294 112.837 162.346 112.833C162.398 112.83 162.45 112.849 162.489 112.884C162.529 112.919 162.553 112.968 162.557 113.02V113.02C162.56 113.073 162.541 113.125 162.506 113.164C162.471 113.204 162.422 113.228 162.37 113.232V113.232C162.343 113.233 162.317 113.229 162.292 113.22C162.267 113.211 162.244 113.197 162.224 113.179C162.205 113.162 162.189 113.14 162.177 113.116C162.166 113.092 162.16 113.066 162.158 113.04V113.04ZM162.082 111.523C162.08 111.496 162.084 111.47 162.093 111.445C162.102 111.42 162.116 111.397 162.134 111.377C162.152 111.358 162.173 111.342 162.197 111.33C162.221 111.319 162.247 111.313 162.274 111.312V111.312C162.3 111.31 162.326 111.314 162.351 111.323C162.375 111.332 162.398 111.346 162.417 111.364C162.437 111.382 162.452 111.403 162.463 111.427C162.474 111.451 162.479 111.477 162.48 111.504V111.504C162.481 111.529 162.478 111.555 162.469 111.58C162.46 111.604 162.447 111.626 162.429 111.646C162.412 111.665 162.391 111.68 162.367 111.691C162.344 111.702 162.319 111.709 162.293 111.71V111.71C162.24 111.713 162.189 111.694 162.149 111.659C162.11 111.624 162.085 111.575 162.082 111.523V111.523ZM162.01 110.001C162.008 109.975 162.012 109.949 162.021 109.925C162.03 109.901 162.043 109.878 162.06 109.859C162.078 109.84 162.099 109.824 162.122 109.813C162.146 109.802 162.171 109.796 162.197 109.795V109.795C162.223 109.793 162.249 109.796 162.274 109.805C162.299 109.813 162.322 109.826 162.342 109.844C162.362 109.861 162.378 109.882 162.389 109.906C162.4 109.93 162.407 109.956 162.408 109.982V109.982C162.409 110.035 162.39 110.087 162.354 110.126C162.319 110.165 162.269 110.189 162.216 110.193V110.193C162.163 110.194 162.112 110.175 162.074 110.139C162.035 110.103 162.012 110.054 162.01 110.001V110.001ZM161.933 108.48C161.932 108.427 161.951 108.376 161.987 108.337C162.023 108.299 162.072 108.276 162.125 108.273V108.273C162.151 108.272 162.177 108.276 162.201 108.284C162.225 108.293 162.248 108.307 162.267 108.324C162.286 108.341 162.302 108.362 162.313 108.386C162.324 108.409 162.33 108.434 162.331 108.46V108.46C162.334 108.513 162.316 108.565 162.281 108.604C162.246 108.644 162.197 108.668 162.144 108.672V108.672C162.118 108.673 162.091 108.669 162.066 108.66C162.041 108.651 162.018 108.637 161.999 108.619C161.979 108.602 161.963 108.58 161.952 108.556C161.941 108.532 161.934 108.506 161.933 108.48V108.48ZM161.861 106.963C161.859 106.936 161.862 106.91 161.871 106.885C161.879 106.86 161.892 106.837 161.91 106.818C161.927 106.798 161.949 106.782 161.972 106.771C161.996 106.759 162.022 106.753 162.048 106.752V106.752C162.074 106.75 162.101 106.754 162.125 106.763C162.15 106.772 162.173 106.786 162.192 106.804C162.211 106.822 162.226 106.843 162.237 106.867C162.248 106.891 162.254 106.917 162.254 106.944V106.944C162.256 106.969 162.252 106.995 162.243 107.02C162.235 107.044 162.221 107.066 162.204 107.086C162.186 107.105 162.165 107.12 162.142 107.131C162.118 107.142 162.093 107.149 162.067 107.15V107.15C162.041 107.151 162.016 107.147 161.991 107.139C161.967 107.13 161.944 107.117 161.925 107.099C161.906 107.082 161.891 107.061 161.879 107.037C161.868 107.014 161.862 106.989 161.861 106.963V106.963ZM161.784 105.441C161.783 105.415 161.787 105.389 161.795 105.365C161.804 105.341 161.817 105.318 161.835 105.299C161.852 105.28 161.873 105.264 161.897 105.253C161.92 105.242 161.945 105.236 161.971 105.235V105.235C162.024 105.232 162.076 105.25 162.115 105.285C162.155 105.32 162.179 105.369 162.182 105.422C162.184 105.475 162.165 105.527 162.129 105.566C162.093 105.605 162.044 105.629 161.99 105.633V105.633C161.938 105.634 161.887 105.615 161.848 105.579C161.81 105.543 161.787 105.494 161.784 105.441V105.441ZM161.707 103.924C161.706 103.898 161.71 103.871 161.719 103.846C161.728 103.821 161.742 103.799 161.759 103.779C161.777 103.759 161.799 103.743 161.823 103.732C161.847 103.721 161.873 103.714 161.899 103.713V103.713C161.925 103.712 161.951 103.716 161.975 103.724C162 103.733 162.022 103.747 162.041 103.764C162.06 103.781 162.076 103.802 162.087 103.826C162.098 103.849 162.104 103.874 162.106 103.9V103.9C162.108 103.953 162.09 104.005 162.055 104.044C162.02 104.084 161.971 104.108 161.918 104.112V104.112C161.866 104.114 161.814 104.096 161.775 104.061C161.735 104.026 161.711 103.977 161.707 103.924V103.924Z" fill="white"/>
<path d="M162.657 119.314C162.631 119.313 162.605 119.308 162.581 119.297C162.557 119.286 162.536 119.271 162.518 119.251C162.499 119.233 162.484 119.212 162.474 119.188C162.464 119.164 162.46 119.138 162.46 119.112C162.456 119.087 162.456 119.06 162.46 119.035C162.469 119.011 162.484 118.989 162.504 118.973C162.521 118.954 162.542 118.939 162.566 118.929C162.615 118.91 162.67 118.91 162.72 118.929C162.745 118.939 162.768 118.954 162.787 118.973C162.803 118.991 162.816 119.012 162.825 119.035C162.832 119.06 162.832 119.087 162.825 119.112C162.824 119.164 162.804 119.214 162.768 119.251C162.748 119.27 162.726 119.285 162.7 119.294C162.687 119.303 162.673 119.31 162.657 119.314V119.314Z" fill="white"/>
<path d="M160.848 119.112C160.848 119.086 160.853 119.06 160.863 119.035C160.874 119.011 160.889 118.989 160.907 118.971C160.926 118.953 160.948 118.938 160.973 118.929C160.997 118.919 161.023 118.914 161.05 118.915V118.915C161.075 118.915 161.101 118.92 161.125 118.93C161.149 118.94 161.171 118.954 161.189 118.973C161.207 118.991 161.222 119.013 161.231 119.037C161.241 119.06 161.246 119.086 161.246 119.112C161.246 119.165 161.226 119.215 161.189 119.253C161.152 119.29 161.102 119.312 161.05 119.314C160.996 119.314 160.945 119.292 160.907 119.254C160.869 119.217 160.848 119.165 160.848 119.112ZM159.235 119.112C159.235 119.086 159.24 119.06 159.251 119.035C159.261 119.011 159.276 118.989 159.295 118.971C159.313 118.953 159.336 118.938 159.36 118.929C159.385 118.919 159.411 118.914 159.437 118.915V118.915C159.463 118.915 159.488 118.92 159.512 118.93C159.536 118.94 159.558 118.954 159.576 118.973C159.594 118.991 159.609 119.013 159.619 119.037C159.629 119.06 159.634 119.086 159.634 119.112C159.634 119.138 159.63 119.164 159.62 119.189C159.61 119.213 159.596 119.235 159.578 119.254C159.559 119.273 159.537 119.288 159.513 119.298C159.489 119.308 159.463 119.314 159.437 119.314V119.314C159.384 119.312 159.334 119.29 159.297 119.253C159.261 119.215 159.24 119.165 159.24 119.112H159.235ZM157.627 119.112C157.627 119.086 157.632 119.06 157.642 119.037C157.652 119.013 157.667 118.991 157.685 118.973C157.703 118.954 157.725 118.94 157.749 118.93C157.773 118.92 157.798 118.915 157.824 118.915C157.85 118.914 157.876 118.919 157.901 118.929C157.925 118.938 157.948 118.953 157.966 118.971C157.985 118.989 158 119.011 158.01 119.035C158.02 119.06 158.026 119.086 158.026 119.112C158.026 119.165 158.004 119.217 157.967 119.254C157.929 119.292 157.878 119.314 157.824 119.314C157.798 119.314 157.772 119.308 157.748 119.298C157.723 119.288 157.702 119.273 157.683 119.254C157.665 119.235 157.65 119.213 157.641 119.189C157.631 119.164 157.627 119.138 157.627 119.112V119.112ZM156.014 119.112C156.014 119.086 156.02 119.06 156.03 119.035C156.04 119.011 156.055 118.989 156.074 118.971C156.093 118.953 156.115 118.938 156.139 118.929C156.164 118.919 156.19 118.914 156.216 118.915V118.915C156.242 118.915 156.267 118.92 156.291 118.93C156.315 118.94 156.337 118.954 156.355 118.973C156.373 118.991 156.388 119.013 156.398 119.037C156.408 119.06 156.413 119.086 156.413 119.112V119.112C156.413 119.138 156.409 119.164 156.399 119.189C156.39 119.213 156.375 119.235 156.357 119.254C156.339 119.273 156.317 119.288 156.292 119.298C156.268 119.308 156.242 119.314 156.216 119.314V119.314C156.163 119.314 156.111 119.292 156.074 119.254C156.036 119.217 156.014 119.165 156.014 119.112ZM154.406 119.112C154.406 119.086 154.412 119.06 154.421 119.037C154.431 119.013 154.446 118.991 154.464 118.973C154.482 118.954 154.504 118.94 154.528 118.93C154.552 118.92 154.577 118.915 154.603 118.915V118.915C154.629 118.914 154.656 118.919 154.68 118.929C154.704 118.938 154.727 118.953 154.746 118.971C154.764 118.989 154.779 119.011 154.789 119.035C154.8 119.06 154.805 119.086 154.805 119.112V119.112C154.805 119.165 154.784 119.217 154.746 119.254C154.708 119.292 154.657 119.314 154.603 119.314C154.577 119.314 154.551 119.308 154.527 119.298C154.503 119.288 154.481 119.273 154.462 119.254C154.444 119.235 154.43 119.213 154.42 119.189C154.41 119.164 154.406 119.138 154.406 119.112V119.112ZM152.794 119.112C152.794 119.086 152.799 119.06 152.809 119.035C152.819 119.011 152.834 118.989 152.853 118.971C152.872 118.953 152.894 118.938 152.918 118.929C152.943 118.919 152.969 118.914 152.995 118.915C153.021 118.915 153.047 118.92 153.071 118.93C153.094 118.94 153.116 118.954 153.134 118.973C153.153 118.991 153.167 119.013 153.177 119.037C153.187 119.06 153.192 119.086 153.192 119.112C153.193 119.138 153.188 119.164 153.178 119.189C153.169 119.213 153.154 119.235 153.136 119.254C153.118 119.273 153.096 119.288 153.072 119.298C153.047 119.308 153.022 119.314 152.995 119.314V119.314C152.942 119.314 152.891 119.292 152.853 119.254C152.815 119.217 152.794 119.165 152.794 119.112ZM151.181 119.112C151.181 119.086 151.186 119.06 151.196 119.035C151.206 119.011 151.221 118.989 151.24 118.971C151.259 118.953 151.281 118.938 151.306 118.929C151.33 118.919 151.356 118.914 151.382 118.915C151.408 118.915 151.434 118.92 151.458 118.93C151.482 118.94 151.503 118.954 151.522 118.973C151.54 118.991 151.554 119.013 151.564 119.037C151.574 119.06 151.579 119.086 151.579 119.112C151.58 119.138 151.575 119.164 151.566 119.189C151.556 119.213 151.542 119.235 151.523 119.254C151.505 119.273 151.483 119.288 151.459 119.298C151.435 119.308 151.409 119.314 151.382 119.314V119.314C151.329 119.314 151.278 119.292 151.24 119.254C151.202 119.217 151.181 119.165 151.181 119.112V119.112ZM149.573 119.112C149.573 119.086 149.578 119.06 149.588 119.037C149.598 119.013 149.612 118.991 149.63 118.973C149.649 118.954 149.67 118.94 149.694 118.93C149.718 118.92 149.744 118.915 149.77 118.915V118.915C149.796 118.914 149.822 118.919 149.846 118.929C149.871 118.938 149.893 118.953 149.912 118.971C149.931 118.989 149.946 119.011 149.956 119.035C149.966 119.06 149.971 119.086 149.971 119.112V119.112C149.971 119.165 149.95 119.217 149.912 119.254C149.874 119.292 149.823 119.314 149.77 119.314C149.717 119.312 149.667 119.29 149.63 119.253C149.593 119.215 149.573 119.165 149.573 119.112V119.112ZM147.96 119.112C147.96 119.086 147.965 119.06 147.975 119.035C147.986 119.011 148.001 118.989 148.019 118.971C148.038 118.953 148.06 118.938 148.085 118.929C148.109 118.919 148.135 118.914 148.162 118.915C148.188 118.915 148.213 118.92 148.237 118.93C148.261 118.94 148.283 118.954 148.301 118.973C148.319 118.991 148.334 119.013 148.343 119.037C148.353 119.06 148.358 119.086 148.358 119.112C148.359 119.138 148.354 119.164 148.345 119.189C148.335 119.213 148.321 119.235 148.303 119.254C148.284 119.273 148.262 119.288 148.238 119.298C148.214 119.308 148.188 119.314 148.162 119.314V119.314C148.108 119.314 148.057 119.292 148.019 119.254C147.981 119.217 147.96 119.165 147.96 119.112V119.112ZM146.352 119.112C146.352 119.086 146.357 119.06 146.367 119.037C146.377 119.013 146.391 118.991 146.41 118.973C146.428 118.954 146.45 118.94 146.474 118.93C146.497 118.92 146.523 118.915 146.549 118.915C146.575 118.914 146.601 118.919 146.626 118.929C146.65 118.938 146.672 118.953 146.691 118.971C146.71 118.989 146.725 119.011 146.735 119.035C146.745 119.06 146.75 119.086 146.75 119.112C146.75 119.165 146.729 119.217 146.691 119.254C146.654 119.292 146.602 119.314 146.549 119.314C146.523 119.314 146.497 119.308 146.472 119.298C146.448 119.288 146.426 119.273 146.408 119.254C146.39 119.235 146.375 119.213 146.366 119.189C146.356 119.164 146.351 119.138 146.352 119.112V119.112ZM144.739 119.112C144.739 119.086 144.744 119.06 144.755 119.035C144.765 119.011 144.78 118.989 144.799 118.971C144.817 118.953 144.84 118.938 144.864 118.929C144.888 118.919 144.915 118.914 144.941 118.915V118.915C144.967 118.915 144.992 118.92 145.016 118.93C145.04 118.94 145.062 118.954 145.08 118.973C145.098 118.991 145.113 119.013 145.123 119.037C145.133 119.06 145.138 119.086 145.138 119.112C145.138 119.138 145.134 119.164 145.124 119.189C145.114 119.213 145.1 119.235 145.082 119.254C145.063 119.273 145.041 119.288 145.017 119.298C144.993 119.308 144.967 119.314 144.941 119.314V119.314C144.887 119.314 144.836 119.292 144.798 119.254C144.76 119.217 144.739 119.165 144.739 119.112V119.112Z" fill="white"/>
<path d="M143.328 119.313C143.302 119.313 143.276 119.307 143.252 119.296C143.228 119.285 143.207 119.27 143.189 119.251C143.169 119.234 143.154 119.213 143.146 119.188C143.141 119.163 143.141 119.137 143.146 119.112C143.145 119.086 143.149 119.06 143.159 119.036C143.169 119.012 143.184 118.99 143.203 118.972C143.23 118.943 143.265 118.924 143.304 118.916C143.343 118.908 143.383 118.913 143.419 118.929C143.443 118.938 143.465 118.953 143.482 118.972C143.501 118.99 143.517 119.011 143.528 119.035C143.538 119.059 143.544 119.085 143.544 119.112C143.548 119.137 143.548 119.163 143.544 119.188C143.523 119.235 143.485 119.273 143.438 119.294C143.404 119.311 143.366 119.317 143.328 119.313V119.313Z" fill="white"/>
<path opacity="0.5" d="M165.456 65.6307H110.074L109.018 44.2227H164.4L165.456 65.6307Z" fill="#4BB747"/>
<path d="M162.849 99.9362L162.72 98.5346C166.198 98.4016 169.488 96.9193 171.893 94.4018C173.308 92.9188 174.356 91.1255 174.955 89.165L176.299 89.645C175.642 91.8003 174.492 93.7727 172.939 95.405C170.293 98.1699 166.674 99.7952 162.849 99.9362V99.9362Z" fill="#263238"/>
<g style="mix-blend-mode:multiply" opacity="0.5">
<path d="M170.904 74.4002C169.188 72.7572 167.107 71.5448 164.832 70.8626L165.173 69.5186C167.674 70.2701 169.962 71.6024 171.85 73.4066C174.026 75.4371 175.595 78.033 176.381 80.9041C177.167 83.7752 177.138 86.8082 176.299 89.6642L174.955 89.1842C175.718 86.5866 175.743 83.8282 175.027 81.2173C174.312 78.6065 172.884 76.2461 170.904 74.4002V74.4002Z" fill="#4BB747"/>
</g>
<path d="M150.926 95.3946C147.928 92.5638 146.111 88.7043 145.838 84.5898H147.24C147.514 88.4674 149.279 92.0882 152.165 94.6918C155.052 97.2954 158.835 98.6794 162.72 98.553L162.85 99.9546C160.657 100.037 158.471 99.6755 156.422 98.8919C154.374 98.1083 152.504 96.9187 150.926 95.3946V95.3946Z" fill="#4BB747"/>
<path opacity="0.7" d="M145.838 84.5901C145.694 82.5466 145.975 80.4955 146.664 78.5663C147.353 76.637 148.435 74.8718 149.841 73.3821C151.786 71.3777 154.249 69.9528 156.956 69.2663C159.663 68.5798 162.508 68.6587 165.172 69.4941L164.832 70.8381C162.405 70.0794 159.815 70.0108 157.352 70.6397C154.889 71.2687 152.649 72.5706 150.883 74.3997C149.606 75.7518 148.624 77.3535 147.997 79.104C147.37 80.8545 147.112 82.7159 147.24 84.5709L145.838 84.5901Z" fill="white"/>
<path opacity="0.6" d="M170.092 92.8733C174.557 88.2963 174.279 80.7832 169.47 76.0924C164.662 71.4016 157.144 71.3094 152.679 75.8864C148.214 80.4634 148.493 87.9765 153.301 92.6673C158.11 97.3581 165.627 97.4503 170.092 92.8733Z" fill="white"/>
<path d="M132.437 107.607L132.201 108.567C129.782 107.852 127.182 108.08 124.925 109.205C123.614 109.859 122.475 110.811 121.598 111.984L120.782 111.36C121.744 110.07 122.995 109.023 124.435 108.303C126.919 107.068 129.777 106.82 132.437 107.607V107.607Z" fill="#263238"/>
<g style="mix-blend-mode:multiply" opacity="0.5">
<path d="M120.97 122.775C121.777 124.275 122.929 125.563 124.33 126.533L123.783 127.349C122.242 126.281 120.974 124.865 120.082 123.216C119.056 121.379 118.576 119.287 118.7 117.187C118.823 115.086 119.544 113.065 120.778 111.36L121.594 111.984C120.47 113.535 119.814 115.376 119.703 117.288C119.593 119.201 120.032 121.104 120.97 122.775V122.775Z" fill="#4BB747"/>
</g>
<path opacity="0.7" d="M139.598 113.385C141.008 115.939 141.369 118.941 140.606 121.757L139.646 121.449C140.341 118.886 140.013 116.152 138.729 113.827C138.048 112.558 137.121 111.438 136.001 110.531C134.882 109.624 133.594 108.95 132.211 108.547L132.446 107.587C133.964 108.029 135.378 108.77 136.606 109.765C137.835 110.761 138.852 111.992 139.598 113.385V113.385Z" fill="white"/>
<path d="M140.606 121.756C140.222 123.163 139.546 124.473 138.621 125.6C137.696 126.727 136.544 127.647 135.24 128.299C133.418 129.184 131.392 129.562 129.374 129.393C127.356 129.224 125.421 128.515 123.772 127.339L124.32 126.523C125.82 127.592 127.58 128.236 129.416 128.388C131.252 128.54 133.095 128.194 134.75 127.387C135.937 126.795 136.986 125.959 137.828 124.934C138.67 123.909 139.286 122.719 139.636 121.439L140.606 121.756Z" fill="#4BB747"/>
<path opacity="0.6" d="M136.077 124.372C139.274 121.095 139.075 115.716 135.633 112.358C132.19 109 126.808 108.935 123.611 112.212C120.414 115.489 120.613 120.868 124.055 124.226C127.498 127.584 132.88 127.649 136.077 124.372Z" fill="white"/>
<path d="M144.36 46.9199H142.459L137.683 54.0431L143.165 61.1663H145.066L139.584 54.0431L144.36 46.9199Z" fill="white"/>
<path d="M150.048 46.9199H151.949L157.435 54.0431L152.654 61.1663H150.749L155.529 54.0431L150.048 46.9199Z" fill="white"/>
<g opacity="0.6">
<path d="M101.544 53.3672H89.4048C89.2876 53.3663 89.1715 53.3896 89.0636 53.4355C88.9558 53.4814 88.8586 53.549 88.778 53.6341C88.6974 53.7192 88.6352 53.8199 88.5952 53.9301C88.5552 54.0402 88.5383 54.1575 88.5456 54.2744L88.9584 62.6216C88.9719 62.867 89.079 63.0978 89.2576 63.2666C89.4362 63.4353 89.6727 63.5292 89.9184 63.5288H102.058C102.175 63.5297 102.291 63.5065 102.399 63.4606C102.507 63.4146 102.604 63.347 102.684 63.262C102.765 63.1769 102.827 63.0761 102.867 62.966C102.907 62.8558 102.924 62.7386 102.917 62.6216L102.504 54.2744C102.49 54.0291 102.383 53.7982 102.205 53.6295C102.026 53.4607 101.79 53.3668 101.544 53.3672ZM96.96 61.1336H94.7616L94.9152 58.4792C94.7036 58.3472 94.5268 58.1662 94.3998 57.9515C94.2728 57.7368 94.1993 57.4947 94.1856 57.2456C94.1744 57.0546 94.2026 56.8634 94.2683 56.6837C94.3341 56.5041 94.4361 56.3398 94.568 56.2012C94.6998 56.0626 94.8588 55.9526 95.0349 55.8779C95.2111 55.8033 95.4007 55.7656 95.592 55.7672C95.9896 55.7714 96.3708 55.9264 96.6586 56.2008C96.9464 56.4752 97.1193 56.8486 97.1424 57.2456C97.1588 57.4862 97.1116 57.727 97.0054 57.9435C96.8992 58.1601 96.7379 58.3448 96.5376 58.4792L96.96 61.1336Z" fill="#4BB747"/>
<path opacity="0.2" d="M94.1854 57.2447C94.1992 57.4938 94.2727 57.7359 94.3996 57.9506C94.5266 58.1653 94.7034 58.3463 94.915 58.4783L94.7614 61.1327H95.8798L95.995 63.5327H89.9086C89.6629 63.5331 89.4264 63.4392 89.2478 63.2705C89.0692 63.1017 88.9621 62.8709 88.9486 62.6255L88.5358 54.2783C88.5286 54.1613 88.5455 54.0441 88.5855 53.934C88.6254 53.8238 88.6877 53.7231 88.7682 53.638C88.8488 53.5529 88.9461 53.4853 89.0539 53.4394C89.1617 53.3935 89.2778 53.3702 89.395 53.3711H95.467L95.5822 55.7711C95.3921 55.7708 95.204 55.8093 95.0293 55.8843C94.8547 55.9592 94.6971 56.069 94.5663 56.207C94.4356 56.3449 94.3344 56.5081 94.2689 56.6866C94.2034 56.865 94.175 57.0549 94.1854 57.2447V57.2447Z" fill="black"/>
<path d="M100.43 52.7668C100.215 52.7647 100.008 52.6807 99.852 52.5318C99.696 52.383 99.6025 52.1804 99.5903 51.9652L99.5471 51.1492C99.4986 50.0418 99.0459 48.9906 98.2745 48.1945C97.5032 47.3984 96.4668 46.9126 95.3615 46.8292C94.8036 46.7941 94.2446 46.8781 93.7215 47.0754C93.1985 47.2728 92.7233 47.579 92.3276 47.9738C91.9318 48.3687 91.6245 48.8431 91.426 49.3657C91.2274 49.8883 91.1422 50.4471 91.1759 51.0052L91.2239 51.9652C91.2299 52.0691 91.2143 52.1732 91.1783 52.2709C91.1422 52.3687 91.0864 52.4579 91.0144 52.5331C90.9423 52.6083 90.8556 52.6679 90.7595 52.7081C90.6634 52.7483 90.5601 52.7682 90.4559 52.7668C90.2403 52.7647 90.0336 52.6807 89.8776 52.5318C89.7216 52.383 89.6281 52.1804 89.6159 51.9652L89.5775 51.1684C89.5249 50.4303 89.6206 49.6891 89.8592 48.9886C90.0977 48.2881 90.4742 47.6425 90.9663 47.0899C91.4585 46.5374 92.0564 46.089 92.7247 45.7713C93.3931 45.4536 94.1183 45.2731 94.8575 45.2404C96.453 45.1989 98.0022 45.779 99.1781 46.8582C100.354 47.9373 101.065 49.4312 101.16 51.0244L101.203 51.9844C101.207 52.0874 101.19 52.1901 101.153 52.2862C101.115 52.3822 101.059 52.4697 100.986 52.543C100.914 52.6163 100.827 52.674 100.731 52.7125C100.636 52.751 100.533 52.7695 100.43 52.7668V52.7668Z" fill="#4BB747"/>
</g>
<path opacity="0.4" d="M105.729 142.205H66.0861L62.6685 73.0029H102.312L105.729 142.205Z" fill="#4BB747"/>
<path opacity="0.3" d="M102.475 76.3197H62.8317L62.6685 73.0029H102.312L102.475 76.3197Z" fill="#4BB747"/>
<path opacity="0.3" d="M105.73 142.204H66.0865L65.9233 138.888H105.567L105.73 142.204Z" fill="#4BB747"/>
<path d="M74.9758 92.5874L73.5358 91.8482C73.3197 91.229 73.0432 90.6325 72.7102 90.0674V90.0674L73.099 88.565L69.9838 85.5986L68.5054 86.0786C67.9243 85.7742 67.3151 85.5266 66.6862 85.3394V85.3394L65.8846 83.957H61.7038L61.0318 85.3394C60.4271 85.5252 59.8432 85.7729 59.2894 86.0786L57.7678 85.5986L54.9454 88.565L55.4782 90.0674C55.2027 90.6376 54.9856 91.2343 54.8302 91.8482L53.4814 92.5874L53.6878 96.7826L55.1278 97.517C55.3472 98.135 55.6236 98.7311 55.9534 99.2978V99.2978L55.5598 100.8L58.675 103.767L60.1534 103.287C60.7329 103.591 61.3406 103.839 61.9678 104.026L62.7598 105.432H66.955L67.6222 104.045C68.2273 103.86 68.8113 103.612 69.3646 103.306L70.891 103.786L73.7086 100.819L73.1758 99.317C73.4542 98.748 73.6715 98.1511 73.8238 97.5362L75.1774 96.8018L74.9758 92.5874ZM64.7038 102.288C62.6583 102.267 60.6969 101.471 59.216 100.059C57.7352 98.6481 56.8453 96.7272 56.7262 94.685C56.6662 93.7023 56.8092 92.7178 57.1463 91.7928C57.4833 90.8677 58.0072 90.022 58.6854 89.3083C59.3636 88.5946 60.1814 88.0281 61.088 87.6442C61.9946 87.2604 62.9706 87.0673 63.955 87.077C66.0019 87.0979 67.9645 87.895 69.4462 89.3072C70.928 90.7195 71.8184 92.6415 71.9374 94.685C71.9968 95.6677 71.8532 96.6522 71.5155 97.577C71.1779 98.5017 70.6534 99.3471 69.9748 100.06C69.2962 100.774 68.478 101.34 67.5712 101.723C66.6643 102.106 65.6883 102.299 64.7038 102.288V102.288Z" fill="#4BB747"/>
<path opacity="0.6" d="M64.0082 88.1419C63.1616 88.1337 62.3225 88.2999 61.543 88.6301C60.7635 88.9603 60.0603 89.4474 59.4772 90.0611C58.8941 90.6748 58.4436 91.402 58.1537 92.1974C57.8638 92.9928 57.7407 93.8393 57.7922 94.6843C57.8968 96.4444 58.6666 98.099 59.9455 99.3129C61.2244 100.527 62.9169 101.209 64.6802 101.222C65.528 101.233 66.3691 101.069 67.1507 100.74C67.9324 100.411 68.638 99.925 69.2234 99.3116C69.8089 98.6982 70.2617 97.9707 70.5537 97.1746C70.8456 96.3785 70.9703 95.5308 70.9202 94.6843C70.8152 92.9196 70.0423 91.261 68.7584 90.0458C67.4745 88.8305 65.776 88.1498 64.0082 88.1419V88.1419Z" fill="white"/>
<path d="M106.142 99.0723H83.6351C83.4131 99.0713 83.1932 99.1157 82.989 99.2028C82.7849 99.29 82.6007 99.4179 82.4478 99.5789C82.2949 99.7399 82.1766 99.9304 82.1001 100.139C82.0236 100.347 81.9906 100.569 82.003 100.791L82.5742 112.344C82.601 112.806 82.8023 113.241 83.1374 113.56C83.4725 113.879 83.9164 114.059 84.379 114.063H97.9054L98.1551 119.069L102.917 114.063H106.886C107.108 114.064 107.329 114.02 107.533 113.934C107.738 113.847 107.922 113.719 108.075 113.558C108.228 113.396 108.346 113.206 108.423 112.997C108.499 112.788 108.531 112.566 108.518 112.344L107.947 100.8C107.922 100.337 107.721 99.9008 107.386 99.58C107.051 99.2592 106.606 99.0777 106.142 99.0723V99.0723Z" fill="#4BB747"/>
<path d="M75.7536 118.301H91.1137C91.4297 118.305 91.7325 118.429 91.9612 118.647C92.19 118.865 92.3279 119.161 92.3473 119.477L92.736 127.368C92.7453 127.519 92.7233 127.671 92.6713 127.813C92.6194 127.956 92.5387 128.086 92.4342 128.196C92.3297 128.306 92.2037 128.393 92.064 128.452C91.9244 128.511 91.7741 128.541 91.6225 128.539H82.3921L82.5601 131.962L78.9696 128.539H76.2577C75.9425 128.536 75.6404 128.413 75.4122 128.196C75.1841 127.979 75.0471 127.683 75.0288 127.368L74.6401 119.477C74.6301 119.325 74.6516 119.173 74.7033 119.03C74.7549 118.887 74.8355 118.756 74.9401 118.646C75.0446 118.535 75.1709 118.448 75.3109 118.388C75.4509 118.329 75.6016 118.299 75.7536 118.301V118.301Z" fill="white"/>
<path d="M208.766 90.0871L206.496 89.9863L207.523 94.3063C208.332 93.759 209.07 93.1142 209.721 92.3863C209.815 92.2778 209.887 92.1517 209.932 92.0154C209.977 91.8791 209.995 91.7352 209.984 91.592C209.973 91.4488 209.934 91.3091 209.869 91.181C209.805 91.0529 209.715 90.9389 209.606 90.8455L208.766 90.0871Z" fill="#FF8B7B"/>
<path d="M203.861 92.3143L204.878 95.8327L207.523 94.2967L206.496 89.9863L203.861 92.3143Z" fill="#FF8B7B"/>
<path d="M191.529 68.0689L190.44 69.3265C190.065 69.7585 189.701 70.2001 189.341 70.6465C188.621 71.5345 187.901 72.4273 187.238 73.3441C185.894 75.1078 184.705 76.9853 183.686 78.9553C183.566 79.1953 183.47 79.4353 183.36 79.6705L183.197 80.0209C183.197 80.0209 183.197 79.9969 183.197 80.0209C183.139 80.257 183.148 80.5043 183.221 80.7361C183.487 81.6811 183.881 82.5854 184.392 83.4241C185.564 85.3795 186.866 87.2541 188.289 89.0353L186.48 90.9553C184.437 89.4597 182.593 87.7096 180.993 85.7473C180.084 84.655 179.356 83.4232 178.838 82.0993C178.491 81.2033 178.364 80.2369 178.469 79.2817C178.507 78.983 178.575 78.6888 178.67 78.4033L178.843 77.9233C178.958 77.6065 179.069 77.2849 179.189 76.9633C180.187 74.5948 181.439 72.3416 182.923 70.2433C183.643 69.2113 184.363 68.2033 185.174 67.2433C185.568 66.7633 185.966 66.2833 186.374 65.8033C186.782 65.3233 187.19 64.8817 187.665 64.3633L191.529 68.0689Z" fill="#FF8B7B"/>
<path d="M191.179 90.5431L189.13 94.5847L187.128 92.8663L188.77 89.9863L191.179 90.5431Z" fill="#FF8B7B"/>
<path d="M211.262 64.1904C212.525 66.4224 213.701 68.664 214.829 70.9536C215.957 73.2432 217.037 75.5568 218.045 77.9328L218.126 78.1392L218.217 78.4032C218.278 78.5747 218.323 78.7515 218.352 78.9312C218.381 79.0944 218.4 79.2624 218.419 79.4112C218.429 79.5615 218.429 79.7122 218.419 79.8624C218.416 80.1379 218.389 80.4126 218.337 80.6832C218.296 80.922 218.238 81.1578 218.165 81.3888C217.922 82.16 217.588 82.8996 217.171 83.592C216.811 84.2057 216.411 84.7957 215.976 85.3584C215.558 85.9056 215.136 86.4288 214.694 86.928C212.944 88.8905 211.015 90.6869 208.934 92.2944L207.101 90.3744C208.637 88.4544 210.163 86.4576 211.488 84.4656C212.134 83.5204 212.704 82.5252 213.192 81.4896C213.391 81.0771 213.539 80.6419 213.633 80.1936C213.647 80.1207 213.655 80.0469 213.657 79.9728C213.657 79.9104 213.657 79.8576 213.657 79.848C213.657 79.8384 213.657 79.8144 213.657 79.848C213.655 79.8591 213.655 79.8706 213.657 79.8816C213.657 79.8816 213.657 79.92 213.657 79.9488C213.653 79.9629 213.653 79.9779 213.657 79.992C213.657 79.992 213.681 80.0304 213.657 79.992C212.51 77.7984 211.305 75.6 210.115 73.392C208.925 71.184 207.715 68.9712 206.563 66.7632L211.262 64.1904Z" fill="#FF8B7B"/>
<path d="M193.109 50.5536C193.166 50.832 193.066 51.0912 192.888 51.1392C192.71 51.1872 192.514 50.9952 192.451 50.7168C192.389 50.4384 192.494 50.1744 192.672 50.1312C192.85 50.088 193.046 50.2752 193.109 50.5536Z" fill="#263238"/>
<path d="M193.094 51.0869C192.945 52.0233 192.67 52.9354 192.278 53.7989C192.499 53.8877 192.737 53.9264 192.974 53.9123C193.211 53.8982 193.443 53.8316 193.651 53.7173L193.094 51.0869Z" fill="#FF5652"/>
<path d="M192.797 53.237C192.432 53.237 192.077 52.9538 191.794 52.4306C191.202 51.1822 191.099 49.7574 191.506 48.437C191.717 47.8514 192.048 47.5154 192.432 47.477C192.816 47.4386 193.186 47.7314 193.483 48.2786C193.791 48.893 193.968 49.5649 194.002 50.2514C194.122 51.8594 193.613 53.165 192.845 53.2226L192.797 53.237ZM192.48 47.7266H192.446C192.168 47.7266 191.909 48.0386 191.731 48.5186C191.528 49.137 191.455 49.7905 191.515 50.4386C191.543 51.0892 191.707 51.7268 191.995 52.3106C192.24 52.7666 192.542 53.0162 192.821 52.9922C193.43 52.949 193.858 51.7058 193.752 50.2754C193.723 49.6249 193.56 48.9874 193.272 48.4034C193.037 47.9714 192.749 47.7266 192.48 47.7266Z" fill="#263238"/>
<path d="M192.36 48.86C192.394 48.86 192.427 48.85 192.456 48.8312C192.634 48.7243 192.836 48.6616 193.044 48.6482C193.252 48.6349 193.46 48.6713 193.651 48.7544C193.692 48.7703 193.737 48.7697 193.777 48.7527C193.818 48.7356 193.85 48.7035 193.867 48.6632C193.883 48.6217 193.883 48.5756 193.866 48.5345C193.849 48.4933 193.816 48.4603 193.776 48.4424C193.533 48.3382 193.269 48.2942 193.005 48.3143C192.742 48.3344 192.488 48.4178 192.264 48.5576C192.245 48.5696 192.23 48.5852 192.218 48.6034C192.206 48.6217 192.197 48.6421 192.193 48.6636C192.189 48.6851 192.19 48.7072 192.194 48.7285C192.199 48.7499 192.208 48.7701 192.22 48.788C192.236 48.8104 192.257 48.8286 192.281 48.8412C192.305 48.8537 192.332 48.8602 192.36 48.86V48.86Z" fill="#263238"/>
<path d="M202.689 52.5078C202.598 55.4118 201.523 58.9206 203.261 60.639C203.261 60.639 202.454 63.255 197.659 63.255C192.379 63.255 195.259 60.639 195.259 60.639C198.163 59.9526 198.173 57.8214 197.75 55.815L202.689 52.5078Z" fill="#FF8B7B"/>
<path d="M204.494 61.5365C204.907 60.7109 205.325 59.4389 204.494 59.1365C203.558 58.8101 198.806 57.9845 195.192 59.1365C195.381 59.5392 195.484 59.9775 195.492 60.4225C195.5 60.8676 195.414 61.3093 195.24 61.7189L204.494 61.5365Z" fill="#263238"/>
<path d="M210.821 181.974C210.461 181.974 210.11 181.921 209.981 181.743C209.937 181.686 209.914 181.616 209.914 181.544C209.914 181.472 209.937 181.402 209.981 181.345C210.01 181.294 210.051 181.25 210.099 181.216C210.147 181.183 210.201 181.159 210.259 181.148C210.773 181.038 211.699 181.7 211.757 181.729C211.77 181.737 211.78 181.75 211.786 181.764C211.792 181.779 211.794 181.795 211.79 181.811C211.788 181.827 211.781 181.842 211.769 181.854C211.758 181.866 211.744 181.874 211.728 181.878C211.429 181.94 211.126 181.972 210.821 181.974V181.974ZM210.403 181.302H210.307C210.238 181.317 210.178 181.358 210.139 181.417C210.057 181.556 210.101 181.614 210.115 181.633C210.259 181.83 210.979 181.835 211.507 181.743C211.178 181.513 210.8 181.362 210.403 181.302V181.302Z" fill="white"/>
<path d="M211.723 181.877H211.685C211.33 181.68 210.658 180.917 210.725 180.519C210.738 180.456 210.772 180.399 210.822 180.358C210.872 180.317 210.934 180.294 210.998 180.293C211.062 180.287 211.126 180.294 211.187 180.313C211.248 180.332 211.305 180.363 211.354 180.404C211.752 180.74 211.795 181.757 211.795 181.8C211.796 181.815 211.793 181.83 211.786 181.844C211.78 181.857 211.769 181.869 211.757 181.877H211.723ZM211.066 180.437H211.027C210.917 180.437 210.902 180.504 210.898 180.528C210.854 180.764 211.282 181.344 211.627 181.613C211.618 181.216 211.488 180.83 211.253 180.509C211.205 180.468 211.143 180.446 211.08 180.447L211.066 180.437Z" fill="white"/>
<path d="M189.648 181.974C189.168 181.974 188.76 181.911 188.616 181.71C188.578 181.656 188.558 181.593 188.558 181.527C188.558 181.462 188.578 181.398 188.616 181.345C188.995 180.721 190.56 181.618 190.737 181.724C190.752 181.733 190.764 181.746 190.77 181.761C190.777 181.777 190.779 181.794 190.776 181.81C190.772 181.827 190.764 181.842 190.752 181.854C190.74 181.866 190.725 181.874 190.709 181.878C190.358 181.939 190.004 181.971 189.648 181.974V181.974ZM189.105 181.292C189.044 181.284 188.981 181.293 188.923 181.317C188.866 181.342 188.816 181.381 188.779 181.431C188.707 181.546 188.741 181.594 188.755 181.614C188.909 181.834 189.801 181.844 190.464 181.753C190.046 181.511 189.584 181.354 189.105 181.292V181.292Z" fill="white"/>
<path d="M190.713 181.877H190.68C190.257 181.68 189.456 180.917 189.523 180.528C189.523 180.432 189.605 180.312 189.84 180.288C189.926 180.276 190.014 180.283 190.097 180.308C190.18 180.334 190.256 180.378 190.32 180.437C190.757 180.807 190.8 181.752 190.8 181.796C190.802 181.81 190.8 181.824 190.794 181.837C190.788 181.85 190.778 181.86 190.766 181.868C190.75 181.876 190.732 181.879 190.713 181.877V181.877ZM189.907 180.437H189.859C189.701 180.437 189.691 180.514 189.686 180.538C189.648 180.783 190.19 181.373 190.613 181.632C190.59 181.235 190.444 180.854 190.195 180.543C190.113 180.478 190.011 180.444 189.907 180.447V180.437Z" fill="white"/>
<path d="M194.592 181.796H191.064L191.03 173.626H194.553L194.592 181.796Z" fill="#FF8B7B"/>
<path d="M215.765 181.796H212.237L210.777 173.626H214.305L215.765 181.796Z" fill="#FF8B7B"/>
<path d="M212.002 181.388H215.962C216.031 181.387 216.098 181.41 216.152 181.454C216.206 181.498 216.242 181.56 216.254 181.628L216.83 184.762C216.843 184.84 216.839 184.92 216.817 184.996C216.795 185.072 216.757 185.142 216.706 185.201C216.654 185.261 216.59 185.308 216.517 185.34C216.445 185.372 216.367 185.388 216.288 185.386C214.906 185.386 214.238 185.285 212.496 185.285C211.426 185.285 209.213 185.396 207.734 185.396C206.256 185.396 206.117 183.932 206.726 183.797C209.467 183.202 210.523 182.386 211.421 181.604C211.582 181.463 211.788 181.386 212.002 181.388Z" fill="#263238"/>
<path d="M191.102 181.388H194.942C195.011 181.387 195.078 181.41 195.13 181.454C195.183 181.498 195.219 181.56 195.23 181.628L195.806 184.762C195.82 184.839 195.817 184.919 195.797 184.995C195.777 185.071 195.739 185.141 195.688 185.201C195.637 185.261 195.574 185.309 195.502 185.341C195.43 185.373 195.352 185.388 195.273 185.386C193.886 185.386 191.884 185.285 190.137 185.285C188.097 185.285 186.326 185.396 183.936 185.396C182.496 185.396 182.14 183.932 182.75 183.797C185.534 183.197 187.79 183.13 190.228 181.661C190.489 181.492 190.791 181.397 191.102 181.388V181.388Z" fill="#263238"/>
<path d="M209.99 61.4406C213.264 62.199 216.71 71.2086 216.71 71.2086L209.899 75.759C208.335 73.3864 206.964 70.892 205.8 68.2998C203.995 64.1766 206.64 60.663 209.99 61.4406Z" fill="#4BB747"/>
<path opacity="0.3" d="M209.99 61.4406C213.264 62.199 216.71 71.2086 216.71 71.2086L209.899 75.759C208.335 73.3864 206.964 70.892 205.8 68.2998C203.995 64.1766 206.64 60.663 209.99 61.4406Z" fill="#FAFAFA"/>
<path opacity="0.2" d="M207.398 67.2002L210.216 75.557L209.894 75.773C209.894 75.773 208.608 73.853 207.24 71.2946L207.398 67.2002Z" fill="black"/>
<path d="M187.987 77.1891C188.016 81.1251 188.251 86.0211 188.837 92.0979H207.72C207.965 89.2179 206.688 75.0771 210.005 61.4355C207.932 61.0336 205.834 60.7674 203.726 60.6387C201.057 60.485 198.38 60.485 195.71 60.6387C193.868 60.818 192.042 61.139 190.248 61.5987C190.248 61.5987 188.635 63.3459 188.146 71.5395C188.04 73.1763 187.978 75.0387 187.987 77.1891Z" fill="#4BB747"/>
<path opacity="0.3" d="M187.987 77.1891C188.016 81.1251 188.251 86.0211 188.837 92.0979H207.72C207.965 89.2179 206.688 75.0771 210.005 61.4355C207.932 61.0336 205.834 60.7674 203.726 60.6387C201.057 60.485 198.38 60.485 195.71 60.6387C193.868 60.818 192.042 61.139 190.248 61.5987C190.248 61.5987 188.635 63.3459 188.146 71.5395C188.04 73.1763 187.978 75.0387 187.987 77.1891Z" fill="#FAFAFA"/>
<path opacity="0.2" d="M187.987 77.1888C189.129 75.1056 191.203 70.9248 190.91 68.5488L188.126 71.5632C188.04 73.176 187.977 75.0384 187.987 77.1888Z" fill="black"/>
<path d="M193.925 64.8003C194.222 68.1603 186.605 76.2435 186.605 76.2435L180.499 71.2659C182.099 68.5724 184.015 66.0795 186.206 63.8403C189.777 60.3843 193.593 61.0419 193.925 64.8003Z" fill="#4BB747"/>
<path opacity="0.3" d="M193.925 64.8003C194.222 68.1603 186.605 76.2435 186.605 76.2435L180.499 71.2659C182.099 68.5724 184.015 66.0795 186.206 63.8403C189.777 60.3843 193.593 61.0419 193.925 64.8003Z" fill="#FAFAFA"/>
<path opacity="0.2" d="M191.03 173.631L191.049 177.84H194.577L194.558 173.631H191.03Z" fill="black"/>
<path opacity="0.2" d="M214.305 173.631H210.777L211.531 177.84H215.059L214.305 173.631Z" fill="black"/>
<path d="M202.181 47.6402C202.694 51.1106 203.174 53.1122 201.835 55.2962C201.411 56.0112 200.799 56.5966 200.066 56.9887C199.333 57.3809 198.507 57.5649 197.676 57.5209C196.846 57.4769 196.044 57.2065 195.356 56.7391C194.669 56.2716 194.122 55.6249 193.776 54.869C192.398 51.989 191.784 46.7858 194.813 44.5874C195.454 44.0934 196.213 43.7773 197.015 43.6708C197.817 43.5644 198.633 43.6714 199.38 43.9811C200.128 44.2907 200.78 44.7921 201.272 45.4346C201.764 46.077 202.077 46.8378 202.181 47.6402Z" fill="#FF8B7B"/>
<path d="M196.281 46.6901C185.188 46.4213 194.265 39.7061 194.265 39.7061C192.441 42.9077 197.668 42.6149 198.988 41.1749C200.592 39.4133 203.491 41.8661 203.26 43.7861C204.95 43.5749 206.289 44.8277 205.66 48.8597C205.032 52.8917 203.712 54.0293 203.02 55.0133C202.329 55.9973 202.387 55.0613 200.083 55.4933C198.499 55.7909 195.844 52.3733 195.552 50.3765C195.344 49.0999 195.603 47.7912 196.281 46.6901V46.6901Z" fill="#263238"/>
<path d="M201.989 44.3717C201.989 44.3717 204.869 43.1717 202.949 40.1621C205.618 41.5493 205.214 44.0789 201.989 44.3717Z" fill="#263238"/>
<path d="M197.818 49.786C197.804 50.6697 197.508 51.5259 196.973 52.2292C196.258 53.1508 195.437 52.7092 195.24 51.6724C195.067 50.7508 195.24 49.162 196.133 48.6052C197.026 48.0484 197.822 48.73 197.818 49.786Z" fill="#FF8B7B"/>
<path d="M195.533 92.0983C195.533 92.0983 198.494 119.041 200.299 129.121C202.277 140.161 209.899 177.005 209.899 177.005H216.36C216.36 177.005 211.771 141.073 210.821 130.124C209.789 118.244 207.682 92.0791 207.682 92.0791L195.533 92.0983Z" fill="#263238"/>
<path d="M208.982 174.644C208.954 174.644 209.554 177.125 209.554 177.125H216.84L216.792 174.912L208.982 174.644Z" fill="#4BB747"/>
<path opacity="0.2" d="M197.688 101.698C202.282 102.606 201.125 119.862 200.227 128.737C199.133 122.463 197.645 110.391 196.642 101.823C196.966 101.665 197.335 101.621 197.688 101.698V101.698Z" fill="black"/>
<path d="M188.842 92.0977C188.842 92.0977 187.334 118.464 187.306 129.216C187.272 140.4 189.763 177.024 189.763 177.024H195.72C195.72 177.024 197.328 141.053 198.019 130.07C198.768 118.07 201.221 92.0977 201.221 92.0977H188.842Z" fill="#263238"/>
<path d="M187.397 88.7139L189.072 88.8483C189.208 88.859 189.34 88.9001 189.459 88.9685C189.577 89.037 189.678 89.131 189.756 89.2437C189.833 89.3565 189.884 89.4851 189.905 89.6201C189.927 89.7552 189.917 89.8933 189.878 90.0243L189.187 92.3523C189.129 92.5414 189.025 92.7137 188.886 92.8544C188.747 92.9951 188.576 93.1001 188.387 93.1604C188.199 93.2207 187.998 93.2346 187.803 93.2009C187.608 93.1672 187.424 93.0868 187.267 92.9667C186.4 92.1628 185.779 91.129 185.477 89.9859L187.397 88.7139Z" fill="#FF8B7B"/>
<path opacity="0.2" d="M191.179 172.733C191.163 172.733 191.148 172.727 191.137 172.717C191.125 172.706 191.118 172.691 191.117 172.675C190.454 162.543 188.918 138.015 188.947 129.216C188.971 120.216 190.042 100.08 190.387 94.1235C190.385 94.1142 190.384 94.1044 190.386 94.0949C190.388 94.0854 190.392 94.0765 190.397 94.0688C190.403 94.0611 190.411 94.0548 190.419 94.0505C190.428 94.0462 190.438 94.0439 190.447 94.0439C190.457 94.0439 190.466 94.0462 190.475 94.0505C190.484 94.0548 190.491 94.0611 190.497 94.0688C190.503 94.0765 190.507 94.0854 190.509 94.0949C190.51 94.1044 190.51 94.1142 190.507 94.1235C190.181 100.08 189.11 120.216 189.067 129.211C189.038 138.005 190.574 162.528 191.237 172.666C191.237 172.674 191.236 172.682 191.234 172.689C191.231 172.697 191.227 172.704 191.222 172.71C191.216 172.716 191.21 172.72 191.202 172.723C191.195 172.727 191.187 172.728 191.179 172.728V172.733Z" fill="#FAFAFA"/>
<path d="M188.707 174.644C188.678 174.644 188.947 177.125 188.947 177.125H196.2L196.483 174.912L188.707 174.644Z" fill="#4BB747"/>
<rect y="143" width="48" height="48" rx="24" fill="#4BB747"/>
<path d="M24.648 175C24.488 175 24.344 174.944 24.216 174.832C24.104 174.72 24.048 174.576 24.048 174.4V162.976L20.76 165.496C20.616 165.608 20.464 165.648 20.304 165.616C20.16 165.584 20.032 165.496 19.92 165.352L18.504 163.504C18.408 163.36 18.368 163.208 18.384 163.048C18.416 162.872 18.512 162.736 18.672 162.64L24.192 158.368C24.288 158.304 24.376 158.264 24.456 158.248C24.552 158.216 24.656 158.2 24.768 158.2H27.768C27.928 158.2 28.064 158.256 28.176 158.368C28.304 158.48 28.368 158.624 28.368 158.8V174.4C28.368 174.576 28.304 174.72 28.176 174.832C28.064 174.944 27.928 175 27.768 175H24.648Z" fill="white"/>
</svg>
