<svg width="64" height="64" viewBox="0 0 64 64" fill="none" xmlns="http://www.w3.org/2000/svg">
<path d="M22.1566 60L17.2015 51.3333L7.35668 49.2667L8.46504 39.4667L2.20605 32L8.46504 24.6L7.35668 14.8L17.2015 12.7333L22.1566 4L30.8931 8.13333L39.6296 4L44.6498 12.7333L54.4295 14.8L53.3211 24.6L59.5801 32L53.3211 39.4667L54.4295 49.2667L44.6498 51.3333L39.6296 60L30.8931 55.8667L22.1566 60ZM23.9169 54.7333L30.8931 51.7333L38.0648 54.7333L42.4331 48.0667L50.0612 46.0667L49.2788 38.1333L54.5598 32L49.2788 25.7333L50.0612 17.8L42.4331 15.9333L37.9344 9.26667L30.8931 12.2667L23.7213 9.26667L19.3531 15.9333L11.7249 17.8L12.5073 25.7333L7.22628 32L12.5073 38.1333L11.7249 46.2L19.3531 48.0667L23.9169 54.7333ZM28.0896 40.8667L42.8895 25.8667L39.9556 23.1333L28.0896 35.1333L21.8958 28.5333L18.8967 31.5333L28.0896 40.8667Z" fill="#4BB747"/>
</svg>
